<?xml version="1.0" encoding="utf-8" ?>
<svg baseProfile="full" height="89.4581mm" version="1.1" width="60.826446832255826mm" xmlns="http://www.w3.org/2000/svg" xmlns:ev="http://www.w3.org/2001/xml-events" xmlns:xlink="http://www.w3.org/1999/xlink"><defs /><rect fill="white" height="246.111371937" stroke="black" width="144.660634846" x="10.0" y="10.0" /><line stroke="black" x1="10.0" x2="10.0" y1="10.0" y2="19.6440423231" /><line stroke="black" x1="14.8220211615" x2="14.8220211615" y1="10.0" y2="14.8220211615" /><line stroke="black" x1="19.6440423231" x2="19.6440423231" y1="10.0" y2="14.8220211615" /><line stroke="black" x1="24.4660634846" x2="24.4660634846" y1="10.0" y2="14.8220211615" /><line stroke="black" x1="29.2880846461" x2="29.2880846461" y1="10.0" y2="14.8220211615" /><line stroke="black" x1="34.1101058076" x2="34.1101058076" y1="10.0" y2="17.2330317423" /><line stroke="black" x1="38.9321269692" x2="38.9321269692" y1="10.0" y2="14.8220211615" /><line stroke="black" x1="43.7541481307" x2="43.7541481307" y1="10.0" y2="14.8220211615" /><line stroke="black" x1="48.5761692922" x2="48.5761692922" y1="10.0" y2="14.8220211615" /><line stroke="black" x1="53.3981904538" x2="53.3981904538" y1="10.0" y2="14.8220211615" /><line stroke="black" x1="58.2202116153" x2="58.2202116153" y1="10.0" y2="19.6440423231" /><line stroke="black" x1="58.2202116153" x2="58.2202116153" y1="256.111371937" y2="246.467329614" /><line stroke="black" x1="53.3981904538" x2="53.3981904538" y1="256.111371937" y2="251.289350775" /><line stroke="black" x1="48.5761692922" x2="48.5761692922" y1="256.111371937" y2="251.289350775" /><line stroke="black" x1="43.7541481307" x2="43.7541481307" y1="256.111371937" y2="251.289350775" /><line stroke="black" x1="38.9321269692" x2="38.9321269692" y1="256.111371937" y2="251.289350775" /><line stroke="black" x1="34.1101058076" x2="34.1101058076" y1="256.111371937" y2="248.878340194" /><line stroke="black" x1="29.2880846461" x2="29.2880846461" y1="256.111371937" y2="251.289350775" /><line stroke="black" x1="24.4660634846" x2="24.4660634846" y1="256.111371937" y2="251.289350775" /><line stroke="black" x1="19.6440423231" x2="19.6440423231" y1="256.111371937" y2="251.289350775" /><line stroke="black" x1="14.8220211615" x2="14.8220211615" y1="256.111371937" y2="251.289350775" /><line stroke="black" x1="10.0" x2="10.0" y1="256.111371937" y2="246.467329614" /><line stroke="black" x1="58.2202116153" x2="58.2202116153" y1="10.0" y2="19.6440423231" /><line stroke="black" x1="63.0422327768" x2="63.0422327768" y1="10.0" y2="14.8220211615" /><line stroke="black" x1="67.8642539383" x2="67.8642539383" y1="10.0" y2="14.8220211615" /><line stroke="black" x1="72.6862750999" x2="72.6862750999" y1="10.0" y2="14.8220211615" /><line stroke="black" x1="77.5082962614" x2="77.5082962614" y1="10.0" y2="14.8220211615" /><line stroke="black" x1="82.3303174229" x2="82.3303174229" y1="10.0" y2="17.2330317423" /><line stroke="black" x1="87.1523385845" x2="87.1523385845" y1="10.0" y2="14.8220211615" /><line stroke="black" x1="91.974359746" x2="91.974359746" y1="10.0" y2="14.8220211615" /><line stroke="black" x1="96.7963809075" x2="96.7963809075" y1="10.0" y2="14.8220211615" /><line stroke="black" x1="101.618402069" x2="101.618402069" y1="10.0" y2="14.8220211615" /><line stroke="black" x1="106.440423231" x2="106.440423231" y1="10.0" y2="19.6440423231" /><line stroke="black" x1="106.440423231" x2="106.440423231" y1="256.111371937" y2="246.467329614" /><line stroke="black" x1="101.618402069" x2="101.618402069" y1="256.111371937" y2="251.289350775" /><line stroke="black" x1="96.7963809075" x2="96.7963809075" y1="256.111371937" y2="251.289350775" /><line stroke="black" x1="91.974359746" x2="91.974359746" y1="256.111371937" y2="251.289350775" /><line stroke="black" x1="87.1523385845" x2="87.1523385845" y1="256.111371937" y2="251.289350775" /><line stroke="black" x1="82.3303174229" x2="82.3303174229" y1="256.111371937" y2="248.878340194" /><line stroke="black" x1="77.5082962614" x2="77.5082962614" y1="256.111371937" y2="251.289350775" /><line stroke="black" x1="72.6862750999" x2="72.6862750999" y1="256.111371937" y2="251.289350775" /><line stroke="black" x1="67.8642539383" x2="67.8642539383" y1="256.111371937" y2="251.289350775" /><line stroke="black" x1="63.0422327768" x2="63.0422327768" y1="256.111371937" y2="251.289350775" /><line stroke="black" x1="58.2202116153" x2="58.2202116153" y1="256.111371937" y2="246.467329614" /><line stroke="black" x1="106.440423231" x2="106.440423231" y1="10.0" y2="19.6440423231" /><line stroke="black" x1="111.262444392" x2="111.262444392" y1="10.0" y2="14.8220211615" /><line stroke="black" x1="116.084465554" x2="116.084465554" y1="10.0" y2="14.8220211615" /><line stroke="black" x1="120.906486715" x2="120.906486715" y1="10.0" y2="14.8220211615" /><line stroke="black" x1="125.728507877" x2="125.728507877" y1="10.0" y2="14.8220211615" /><line stroke="black" x1="130.550529038" x2="130.550529038" y1="10.0" y2="17.2330317423" /><line stroke="black" x1="135.3725502" x2="135.3725502" y1="10.0" y2="14.8220211615" /><line stroke="black" x1="140.194571361" x2="140.194571361" y1="10.0" y2="14.8220211615" /><line stroke="black" x1="145.016592523" x2="145.016592523" y1="10.0" y2="14.8220211615" /><line stroke="black" x1="149.838613684" x2="149.838613684" y1="10.0" y2="14.8220211615" /><line stroke="black" x1="154.660634846" x2="154.660634846" y1="10.0" y2="19.6440423231" /><line stroke="black" x1="154.660634846" x2="154.660634846" y1="256.111371937" y2="246.467329614" /><line stroke="black" x1="149.838613684" x2="149.838613684" y1="256.111371937" y2="251.289350775" /><line stroke="black" x1="145.016592523" x2="145.016592523" y1="256.111371937" y2="251.289350775" /><line stroke="black" x1="140.194571361" x2="140.194571361" y1="256.111371937" y2="251.289350775" /><line stroke="black" x1="135.3725502" x2="135.3725502" y1="256.111371937" y2="251.289350775" /><line stroke="black" x1="130.550529038" x2="130.550529038" y1="256.111371937" y2="248.878340194" /><line stroke="black" x1="125.728507877" x2="125.728507877" y1="256.111371937" y2="251.289350775" /><line stroke="black" x1="120.906486715" x2="120.906486715" y1="256.111371937" y2="251.289350775" /><line stroke="black" x1="116.084465554" x2="116.084465554" y1="256.111371937" y2="251.289350775" /><line stroke="black" x1="111.262444392" x2="111.262444392" y1="256.111371937" y2="251.289350775" /><line stroke="black" x1="106.440423231" x2="106.440423231" y1="256.111371937" y2="246.467329614" /><line stroke="black" x1="154.660634846" x2="138.25321005" y1="10.0" y2="10.0" /><line stroke="black" x1="154.660634846" x2="146.456922448" y1="18.2037123979" y2="18.2037123979" /><line stroke="black" x1="154.660634846" x2="146.456922448" y1="26.4074247958" y2="26.4074247958" /><line stroke="black" x1="154.660634846" x2="146.456922448" y1="34.6111371937" y2="34.6111371937" /><line stroke="black" x1="154.660634846" x2="146.456922448" y1="42.8148495916" y2="42.8148495916" /><line stroke="black" x1="154.660634846" x2="142.355066249" y1="51.0185619894" y2="51.0185619894" /><line stroke="black" x1="154.660634846" x2="146.456922448" y1="59.2222743873" y2="59.2222743873" /><line stroke="black" x1="154.660634846" x2="146.456922448" y1="67.4259867852" y2="67.4259867852" /><line stroke="black" x1="154.660634846" x2="146.456922448" y1="75.6296991831" y2="75.6296991831" /><line stroke="black" x1="154.660634846" x2="146.456922448" y1="83.833411581" y2="83.833411581" /><line stroke="black" x1="154.660634846" x2="138.25321005" y1="92.0371239789" y2="92.0371239789" /><line stroke="black" x1="10.0" x2="26.4074247958" y1="92.0371239789" y2="92.0371239789" /><line stroke="black" x1="10.0" x2="18.2037123979" y1="83.833411581" y2="83.833411581" /><line stroke="black" x1="10.0" x2="18.2037123979" y1="75.6296991831" y2="75.6296991831" /><line stroke="black" x1="10.0" x2="18.2037123979" y1="67.4259867852" y2="67.4259867852" /><line stroke="black" x1="10.0" x2="18.2037123979" y1="59.2222743873" y2="59.2222743873" /><line stroke="black" x1="10.0" x2="22.3055685968" y1="51.0185619894" y2="51.0185619894" /><line stroke="black" x1="10.0" x2="18.2037123979" y1="42.8148495916" y2="42.8148495916" /><line stroke="black" x1="10.0" x2="18.2037123979" y1="34.6111371937" y2="34.6111371937" /><line stroke="black" x1="10.0" x2="18.2037123979" y1="26.4074247958" y2="26.4074247958" /><line stroke="black" x1="10.0" x2="18.2037123979" y1="18.2037123979" y2="18.2037123979" /><line stroke="black" x1="10.0" x2="26.4074247958" y1="10.0" y2="10.0" /><line stroke="black" x1="154.660634846" x2="138.25321005" y1="92.0371239789" y2="92.0371239789" /><line stroke="black" x1="154.660634846" x2="146.456922448" y1="100.240836377" y2="100.240836377" /><line stroke="black" x1="154.660634846" x2="146.456922448" y1="108.444548775" y2="108.444548775" /><line stroke="black" x1="154.660634846" x2="146.456922448" y1="116.648261173" y2="116.648261173" /><line stroke="black" x1="154.660634846" x2="146.456922448" y1="124.85197357" y2="124.85197357" /><line stroke="black" x1="154.660634846" x2="142.355066249" y1="133.055685968" y2="133.055685968" /><line stroke="black" x1="154.660634846" x2="146.456922448" y1="141.259398366" y2="141.259398366" /><line stroke="black" x1="154.660634846" x2="146.456922448" y1="149.463110764" y2="149.463110764" /><line stroke="black" x1="154.660634846" x2="146.456922448" y1="157.666823162" y2="157.666823162" /><line stroke="black" x1="154.660634846" x2="146.456922448" y1="165.87053556" y2="165.87053556" /><line stroke="black" x1="154.660634846" x2="138.25321005" y1="174.074247958" y2="174.074247958" /><line stroke="black" x1="10.0" x2="26.4074247958" y1="174.074247958" y2="174.074247958" /><line stroke="black" x1="10.0" x2="18.2037123979" y1="165.87053556" y2="165.87053556" /><line stroke="black" x1="10.0" x2="18.2037123979" y1="157.666823162" y2="157.666823162" /><line stroke="black" x1="10.0" x2="18.2037123979" y1="149.463110764" y2="149.463110764" /><line stroke="black" x1="10.0" x2="18.2037123979" y1="141.259398366" y2="141.259398366" /><line stroke="black" x1="10.0" x2="22.3055685968" y1="133.055685968" y2="133.055685968" /><line stroke="black" x1="10.0" x2="18.2037123979" y1="124.85197357" y2="124.85197357" /><line stroke="black" x1="10.0" x2="18.2037123979" y1="116.648261173" y2="116.648261173" /><line stroke="black" x1="10.0" x2="18.2037123979" y1="108.444548775" y2="108.444548775" /><line stroke="black" x1="10.0" x2="18.2037123979" y1="100.240836377" y2="100.240836377" /><line stroke="black" x1="10.0" x2="26.4074247958" y1="92.0371239789" y2="92.0371239789" /><line stroke="black" x1="154.660634846" x2="138.25321005" y1="174.074247958" y2="174.074247958" /><line stroke="black" x1="154.660634846" x2="146.456922448" y1="182.277960356" y2="182.277960356" /><line stroke="black" x1="154.660634846" x2="146.456922448" y1="190.481672754" y2="190.481672754" /><line stroke="black" x1="154.660634846" x2="146.456922448" y1="198.685385151" y2="198.685385151" /><line stroke="black" x1="154.660634846" x2="146.456922448" y1="206.889097549" y2="206.889097549" /><line stroke="black" x1="154.660634846" x2="142.355066249" y1="215.092809947" y2="215.092809947" /><line stroke="black" x1="154.660634846" x2="146.456922448" y1="223.296522345" y2="223.296522345" /><line stroke="black" x1="154.660634846" x2="146.456922448" y1="231.500234743" y2="231.500234743" /><line stroke="black" x1="154.660634846" x2="146.456922448" y1="239.703947141" y2="239.703947141" /><line stroke="black" x1="154.660634846" x2="146.456922448" y1="247.907659539" y2="247.907659539" /><line stroke="black" x1="154.660634846" x2="138.25321005" y1="256.111371937" y2="256.111371937" /><line stroke="black" x1="10.0" x2="26.4074247958" y1="256.111371937" y2="256.111371937" /><line stroke="black" x1="10.0" x2="18.2037123979" y1="247.907659539" y2="247.907659539" /><line stroke="black" x1="10.0" x2="18.2037123979" y1="239.703947141" y2="239.703947141" /><line stroke="black" x1="10.0" x2="18.2037123979" y1="231.500234743" y2="231.500234743" /><line stroke="black" x1="10.0" x2="18.2037123979" y1="223.296522345" y2="223.296522345" /><line stroke="black" x1="10.0" x2="22.3055685968" y1="215.092809947" y2="215.092809947" /><line stroke="black" x1="10.0" x2="18.2037123979" y1="206.889097549" y2="206.889097549" /><line stroke="black" x1="10.0" x2="18.2037123979" y1="198.685385151" y2="198.685385151" /><line stroke="black" x1="10.0" x2="18.2037123979" y1="190.481672754" y2="190.481672754" /><line stroke="black" x1="10.0" x2="18.2037123979" y1="182.277960356" y2="182.277960356" /><line stroke="black" x1="10.0" x2="26.4074247958" y1="174.074247958" y2="174.074247958" /><line stroke="black" x1="10.0" x2="154.660634846" y1="92.0371239789" y2="92.0371239789" /><line stroke="black" x1="10.0" x2="154.660634846" y1="174.074247958" y2="174.074247958" /><line stroke="black" x1="58.2202116153" x2="58.2202116153" y1="10.0" y2="256.111371937" /><line stroke="black" x1="106.440423231" x2="106.440423231" y1="10.0" y2="256.111371937" /><circle cx="82.3303174229" cy="133.055685968" fill="none" r="50.631222196050956" stroke="black" /><line stroke="black" x1="82.3303174229" x2="82.3303174229" y1="82.4244637723" y2="77.3613415527" /><text font-size="0.08" text-anchor="middle" transform="matrix(50.63 0.00 0.00 50.63 82.33 133.06)" x="0.0" y="-1.12">000</text><line stroke="black" x1="91.1223368903" x2="92.0015388371" y1="83.1936658052" y2="78.2074637889" /><text font-size="0.08" text-anchor="middle" transform="matrix(49.86 8.79 -8.79 49.86 82.33 133.06)" x="0.0" y="-1.12">010</text><line stroke="black" x1="99.6472152952" x2="101.378905082" y1="85.4779000893" y2="80.7201215014" /><text font-size="0.08" text-anchor="middle" transform="matrix(47.58 17.32 -17.32 47.58 82.33 133.06)" x="0.0" y="-1.12">020</text><line stroke="black" x1="107.645928521" x2="110.177489631" y1="89.2077613219" y2="84.8229688573" /><text font-size="0.08" text-anchor="middle" transform="matrix(43.85 25.32 -25.32 43.85 82.33 133.06)" x="0.0" y="-1.12">030</text><line stroke="black" x1="114.875439714" x2="118.129951943" y1="94.2699195567" y2="90.3913429156" /><text font-size="0.08" text-anchor="middle" transform="matrix(38.79 32.55 -32.55 38.79 82.33 133.06)" x="0.0" y="-1.12">040</text><line stroke="black" x1="121.116083835" x2="124.994660476" y1="100.510563677" y2="97.2560514484" /><text font-size="0.08" text-anchor="middle" transform="matrix(32.55 38.79 -38.79 32.55 82.33 133.06)" x="0.0" y="-1.12">050</text><line stroke="black" x1="126.178242069" x2="130.563034534" y1="107.74007487" y2="105.208513761" /><text font-size="0.08" text-anchor="middle" transform="matrix(25.32 43.85 -43.85 25.32 82.33 133.06)" x="0.0" y="-1.12">060</text><line stroke="black" x1="129.908103302" x2="134.66588189" y1="115.738788096" y2="114.007098309" /><text font-size="0.08" text-anchor="middle" transform="matrix(17.32 47.58 -47.58 17.32 82.33 133.06)" x="0.0" y="-1.12">070</text><line stroke="black" x1="132.192337586" x2="137.178539602" y1="124.263666501" y2="123.384464554" /><text font-size="0.08" text-anchor="middle" transform="matrix(8.79 49.86 -49.86 8.79 82.33 133.06)" x="0.0" y="-1.12">080</text><line stroke="black" x1="132.961539619" x2="138.024661839" y1="133.055685968" y2="133.055685968" /><text font-size="0.08" text-anchor="middle" transform="matrix(0.00 50.63 -50.63 0.00 82.33 133.06)" x="0.0" y="-1.12">090</text><line stroke="black" x1="132.192337586" x2="137.178539602" y1="141.847705436" y2="142.726907382" /><text font-size="0.08" text-anchor="middle" transform="matrix(-8.79 49.86 -49.86 -8.79 82.33 133.06)" x="0.0" y="-1.12">100</text><line stroke="black" x1="129.908103302" x2="134.66588189" y1="150.372583841" y2="152.104273628" /><text font-size="0.08" text-anchor="middle" transform="matrix(-17.32 47.58 -47.58 -17.32 82.33 133.06)" x="0.0" y="-1.12">110</text><line stroke="black" x1="126.178242069" x2="130.563034534" y1="158.371297066" y2="160.902858176" /><text font-size="0.08" text-anchor="middle" transform="matrix(-25.32 43.85 -43.85 -25.32 82.33 133.06)" x="0.0" y="-1.12">120</text><line stroke="black" x1="121.116083835" x2="124.994660476" y1="165.600808259" y2="168.855320488" /><text font-size="0.08" text-anchor="middle" transform="matrix(-32.55 38.79 -38.79 -32.55 82.33 133.06)" x="0.0" y="-1.12">130</text><line stroke="black" x1="114.875439714" x2="118.129951943" y1="171.84145238" y2="175.720029021" /><text font-size="0.08" text-anchor="middle" transform="matrix(-38.79 32.55 -32.55 -38.79 82.33 133.06)" x="0.0" y="-1.12">140</text><line stroke="black" x1="107.645928521" x2="110.177489631" y1="176.903610615" y2="181.288403079" /><text font-size="0.08" text-anchor="middle" transform="matrix(-43.85 25.32 -25.32 -43.85 82.33 133.06)" x="0.0" y="-1.12">150</text><line stroke="black" x1="99.6472152952" x2="101.378905082" y1="180.633471847" y2="185.391250435" /><text font-size="0.08" text-anchor="middle" transform="matrix(-47.58 17.32 -17.32 -47.58 82.33 133.06)" x="0.0" y="-1.12">160</text><line stroke="black" x1="91.1223368903" x2="92.0015388371" y1="182.917706132" y2="187.903908148" /><text font-size="0.08" text-anchor="middle" transform="matrix(-49.86 8.79 -8.79 -49.86 82.33 133.06)" x="0.0" y="-1.12">170</text><line stroke="black" x1="82.3303174229" x2="82.3303174229" y1="183.686908164" y2="188.750030384" /><text font-size="0.08" text-anchor="middle" transform="matrix(-50.63 0.00 -0.00 -50.63 82.33 133.06)" x="0.0" y="-1.12">180</text><line stroke="black" x1="73.5382979555" x2="72.6590960088" y1="182.917706132" y2="187.903908148" /><text font-size="0.08" text-anchor="middle" transform="matrix(-49.86 -8.79 8.79 -49.86 82.33 133.06)" x="0.0" y="-1.12">190</text><line stroke="black" x1="65.0134195507" x2="63.2817297635" y1="180.633471847" y2="185.391250435" /><text font-size="0.08" text-anchor="middle" transform="matrix(-47.58 -17.32 17.32 -47.58 82.33 133.06)" x="0.0" y="-1.12">200</text><line stroke="black" x1="57.0147063249" x2="54.4831452151" y1="176.903610615" y2="181.288403079" /><text font-size="0.08" text-anchor="middle" transform="matrix(-43.85 -25.32 25.32 -43.85 82.33 133.06)" x="0.0" y="-1.12">210</text><line stroke="black" x1="49.785195132" x2="46.5306829029" y1="171.84145238" y2="175.720029021" /><text font-size="0.08" text-anchor="middle" transform="matrix(-38.79 -32.55 32.55 -38.79 82.33 133.06)" x="0.0" y="-1.12">220</text><line stroke="black" x1="43.5445510113" x2="39.6659743702" y1="165.600808259" y2="168.855320488" /><text font-size="0.08" text-anchor="middle" transform="matrix(-32.55 -38.79 38.79 -32.55 82.33 133.06)" x="0.0" y="-1.12">230</text><line stroke="black" x1="38.4823927765" x2="34.0976003119" y1="158.371297066" y2="160.902858176" /><text font-size="0.08" text-anchor="middle" transform="matrix(-25.32 -43.85 43.85 -25.32 82.33 133.06)" x="0.0" y="-1.12">240</text><line stroke="black" x1="34.7525315439" x2="29.994752956" y1="150.372583841" y2="152.104273628" /><text font-size="0.08" text-anchor="middle" transform="matrix(-17.32 -47.58 47.58 -17.32 82.33 133.06)" x="0.0" y="-1.12">250</text><line stroke="black" x1="32.4682972598" x2="27.4820952435" y1="141.847705436" y2="142.726907382" /><text font-size="0.08" text-anchor="middle" transform="matrix(-8.79 -49.86 49.86 -8.79 82.33 133.06)" x="0.0" y="-1.12">260</text><line stroke="black" x1="31.6990952269" x2="26.6359730073" y1="133.055685968" y2="133.055685968" /><text font-size="0.08" text-anchor="middle" transform="matrix(-0.00 -50.63 50.63 -0.00 82.33 133.06)" x="0.0" y="-1.12">270</text><line stroke="black" x1="32.4682972598" x2="27.4820952435" y1="124.263666501" y2="123.384464554" /><text font-size="0.08" text-anchor="middle" transform="matrix(8.79 -49.86 49.86 8.79 82.33 133.06)" x="0.0" y="-1.12">280</text><line stroke="black" x1="34.7525315439" x2="29.994752956" y1="115.738788096" y2="114.007098309" /><text font-size="0.08" text-anchor="middle" transform="matrix(17.32 -47.58 47.58 17.32 82.33 133.06)" x="0.0" y="-1.12">290</text><line stroke="black" x1="38.4823927765" x2="34.0976003119" y1="107.74007487" y2="105.208513761" /><text font-size="0.08" text-anchor="middle" transform="matrix(25.32 -43.85 43.85 25.32 82.33 133.06)" x="0.0" y="-1.12">300</text><line stroke="black" x1="43.5445510113" x2="39.6659743702" y1="100.510563677" y2="97.2560514484" /><text font-size="0.08" text-anchor="middle" transform="matrix(32.55 -38.79 38.79 32.55 82.33 133.06)" x="0.0" y="-1.12">310</text><line stroke="black" x1="49.785195132" x2="46.5306829029" y1="94.2699195567" y2="90.3913429156" /><text font-size="0.08" text-anchor="middle" transform="matrix(38.79 -32.55 32.55 38.79 82.33 133.06)" x="0.0" y="-1.12">320</text><line stroke="black" x1="57.0147063249" x2="54.4831452151" y1="89.2077613219" y2="84.8229688573" /><text font-size="0.08" text-anchor="middle" transform="matrix(43.85 -25.32 25.32 43.85 82.33 133.06)" x="0.0" y="-1.12">330</text><line stroke="black" x1="65.0134195507" x2="63.2817297635" y1="85.4779000893" y2="80.7201215014" /><text font-size="0.08" text-anchor="middle" transform="matrix(47.58 -17.32 17.32 47.58 82.33 133.06)" x="0.0" y="-1.12">340</text><line stroke="black" x1="73.5382979555" x2="72.6590960088" y1="83.1936658052" y2="78.2074637889" /><text font-size="0.08" text-anchor="middle" transform="matrix(49.86 -8.79 8.79 49.86 82.33 133.06)" x="0.0" y="-1.12">350</text><line stroke="black" x1="82.3303174229" x2="82.3303174229" y1="87.4875859919" y2="178.623785945" /><line stroke="black" x1="36.7622174465" x2="127.898417399" y1="133.055685968" y2="133.055685968" /><text font-size="0.09" font-weight="bold" text-anchor="middle" transform="matrix(45.57 0.00 0.00 45.57 82.33 133.06)" x="0.0" y="-1.4">N</text><circle cx="82.3303174229" cy="133.055685968" fill="none" r="7.086614" stroke="black" /><circle cx="10.0" cy="10.0" fill="none" r="7.086614" stroke="black" /><circle cx="10.0" cy="256.111371937" fill="none" r="7.086614" stroke="black" /><circle cx="154.660634846" cy="10.0" fill="none" r="7.086614" stroke="black" /><circle cx="154.660634846" cy="256.111371937" fill="none" r="7.086614" stroke="black" /><line stroke="black" x1="0.4132234161279129mm" x2="50.41322341612791mm" y1="79.4581mm" y2="79.4581mm" /><line stroke="black" x1="0.4132234161279129mm" x2="0.4132234161279129mm" y1="77.4581mm" y2="81.4581mm" /><line stroke="black" x1="50.41322341612791mm" x2="50.41322341612791mm" y1="77.4581mm" y2="81.4581mm" /><text font-size="9" text-anchor="middle" x="90.04685242292994" y="274.4578279367">5cm</text><text font-size="1.4249999999999998mm" text-anchor="middle" x="20.413223416127913mm" y="57.066480000000006mm">Maßstab: 1:80000</text><text font-size="1.4249999999999998mm" text-anchor="middle" x="20.413223416127913mm" y="58.566480000000006mm">54°N</text><text font-size="1.4249999999999998mm" text-anchor="middle" x="20.413223416127913mm" y="60.066480000000006mm">Missweisung: 0.0°</text><image height="5.286375129222504mm" preserveAspectRatio="xMidYMid meet" width="8.740140213647873mm" x="16.043153309303975mm" xlink:href="file:///c:\Users\tiger\Documents\Benches\PyBench\pygpsplot\Wimpelh150.jpg" y="11.24843243538875mm" /><text font-size="1.4249999999999998mm" text-anchor="middle" x="20.413223416127913mm" y="18.034807564611256mm">Essener-Faltboot-Fahrer e.V.</text></svg>