<?xml version="1.0" encoding="utf-8" ?>
<svg baseProfile="full" height="205.2216mm" version="1.1" width="128.87052488601555mm" xmlns="http://www.w3.org/2000/svg" xmlns:ev="http://www.w3.org/2001/xml-events" xmlns:xlink="http://www.w3.org/1999/xlink"><defs /><rect fill="white" height="656.296991831" stroke="black" width="385.761692922" x="10.0" y="10.0" /><line stroke="black" x1="10.0" x2="10.0" y1="10.0" y2="35.7174461948" /><line stroke="black" x1="22.8587230974" x2="22.8587230974" y1="10.0" y2="22.8587230974" /><line stroke="black" x1="35.7174461948" x2="35.7174461948" y1="10.0" y2="22.8587230974" /><line stroke="black" x1="48.5761692922" x2="48.5761692922" y1="10.0" y2="22.8587230974" /><line stroke="black" x1="61.4348923896" x2="61.4348923896" y1="10.0" y2="22.8587230974" /><line stroke="black" x1="74.293615487" x2="74.293615487" y1="10.0" y2="29.2880846461" /><line stroke="black" x1="87.1523385845" x2="87.1523385845" y1="10.0" y2="22.8587230974" /><line stroke="black" x1="100.011061682" x2="100.011061682" y1="10.0" y2="22.8587230974" /><line stroke="black" x1="112.869784779" x2="112.869784779" y1="10.0" y2="22.8587230974" /><line stroke="black" x1="125.728507877" x2="125.728507877" y1="10.0" y2="22.8587230974" /><line stroke="black" x1="138.587230974" x2="138.587230974" y1="10.0" y2="35.7174461948" /><line stroke="black" x1="138.587230974" x2="138.587230974" y1="666.296991831" y2="640.579545636" /><line stroke="black" x1="125.728507877" x2="125.728507877" y1="666.296991831" y2="653.438268734" /><line stroke="black" x1="112.869784779" x2="112.869784779" y1="666.296991831" y2="653.438268734" /><line stroke="black" x1="100.011061682" x2="100.011061682" y1="666.296991831" y2="653.438268734" /><line stroke="black" x1="87.1523385845" x2="87.1523385845" y1="666.296991831" y2="653.438268734" /><line stroke="black" x1="74.293615487" x2="74.293615487" y1="666.296991831" y2="647.008907185" /><line stroke="black" x1="61.4348923896" x2="61.4348923896" y1="666.296991831" y2="653.438268734" /><line stroke="black" x1="48.5761692922" x2="48.5761692922" y1="666.296991831" y2="653.438268734" /><line stroke="black" x1="35.7174461948" x2="35.7174461948" y1="666.296991831" y2="653.438268734" /><line stroke="black" x1="22.8587230974" x2="22.8587230974" y1="666.296991831" y2="653.438268734" /><line stroke="black" x1="10.0" x2="10.0" y1="666.296991831" y2="640.579545636" /><line stroke="black" x1="138.587230974" x2="138.587230974" y1="10.0" y2="35.7174461948" /><line stroke="black" x1="151.445954072" x2="151.445954072" y1="10.0" y2="22.8587230974" /><line stroke="black" x1="164.304677169" x2="164.304677169" y1="10.0" y2="22.8587230974" /><line stroke="black" x1="177.163400266" x2="177.163400266" y1="10.0" y2="22.8587230974" /><line stroke="black" x1="190.022123364" x2="190.022123364" y1="10.0" y2="22.8587230974" /><line stroke="black" x1="202.880846461" x2="202.880846461" y1="10.0" y2="29.2880846461" /><line stroke="black" x1="215.739569559" x2="215.739569559" y1="10.0" y2="22.8587230974" /><line stroke="black" x1="228.598292656" x2="228.598292656" y1="10.0" y2="22.8587230974" /><line stroke="black" x1="241.457015753" x2="241.457015753" y1="10.0" y2="22.8587230974" /><line stroke="black" x1="254.315738851" x2="254.315738851" y1="10.0" y2="22.8587230974" /><line stroke="black" x1="267.174461948" x2="267.174461948" y1="10.0" y2="35.7174461948" /><line stroke="black" x1="267.174461948" x2="267.174461948" y1="666.296991831" y2="640.579545636" /><line stroke="black" x1="254.315738851" x2="254.315738851" y1="666.296991831" y2="653.438268734" /><line stroke="black" x1="241.457015753" x2="241.457015753" y1="666.296991831" y2="653.438268734" /><line stroke="black" x1="228.598292656" x2="228.598292656" y1="666.296991831" y2="653.438268734" /><line stroke="black" x1="215.739569559" x2="215.739569559" y1="666.296991831" y2="653.438268734" /><line stroke="black" x1="202.880846461" x2="202.880846461" y1="666.296991831" y2="647.008907185" /><line stroke="black" x1="190.022123364" x2="190.022123364" y1="666.296991831" y2="653.438268734" /><line stroke="black" x1="177.163400266" x2="177.163400266" y1="666.296991831" y2="653.438268734" /><line stroke="black" x1="164.304677169" x2="164.304677169" y1="666.296991831" y2="653.438268734" /><line stroke="black" x1="151.445954072" x2="151.445954072" y1="666.296991831" y2="653.438268734" /><line stroke="black" x1="138.587230974" x2="138.587230974" y1="666.296991831" y2="640.579545636" /><line stroke="black" x1="267.174461948" x2="267.174461948" y1="10.0" y2="35.7174461948" /><line stroke="black" x1="280.033185046" x2="280.033185046" y1="10.0" y2="22.8587230974" /><line stroke="black" x1="292.891908143" x2="292.891908143" y1="10.0" y2="22.8587230974" /><line stroke="black" x1="305.75063124" x2="305.75063124" y1="10.0" y2="22.8587230974" /><line stroke="black" x1="318.609354338" x2="318.609354338" y1="10.0" y2="22.8587230974" /><line stroke="black" x1="331.468077435" x2="331.468077435" y1="10.0" y2="29.2880846461" /><line stroke="black" x1="344.326800533" x2="344.326800533" y1="10.0" y2="22.8587230974" /><line stroke="black" x1="357.18552363" x2="357.18552363" y1="10.0" y2="22.8587230974" /><line stroke="black" x1="370.044246727" x2="370.044246727" y1="10.0" y2="22.8587230974" /><line stroke="black" x1="382.902969825" x2="382.902969825" y1="10.0" y2="22.8587230974" /><line stroke="black" x1="395.761692922" x2="395.761692922" y1="10.0" y2="35.7174461948" /><line stroke="black" x1="395.761692922" x2="395.761692922" y1="666.296991831" y2="640.579545636" /><line stroke="black" x1="382.902969825" x2="382.902969825" y1="666.296991831" y2="653.438268734" /><line stroke="black" x1="370.044246727" x2="370.044246727" y1="666.296991831" y2="653.438268734" /><line stroke="black" x1="357.18552363" x2="357.18552363" y1="666.296991831" y2="653.438268734" /><line stroke="black" x1="344.326800533" x2="344.326800533" y1="666.296991831" y2="653.438268734" /><line stroke="black" x1="331.468077435" x2="331.468077435" y1="666.296991831" y2="647.008907185" /><line stroke="black" x1="318.609354338" x2="318.609354338" y1="666.296991831" y2="653.438268734" /><line stroke="black" x1="305.75063124" x2="305.75063124" y1="666.296991831" y2="653.438268734" /><line stroke="black" x1="292.891908143" x2="292.891908143" y1="666.296991831" y2="653.438268734" /><line stroke="black" x1="280.033185046" x2="280.033185046" y1="666.296991831" y2="653.438268734" /><line stroke="black" x1="267.174461948" x2="267.174461948" y1="666.296991831" y2="640.579545636" /><line stroke="black" x1="395.761692922" x2="352.008560134" y1="10.0" y2="10.0" /><line stroke="black" x1="395.761692922" x2="373.885126528" y1="31.8765663944" y2="31.8765663944" /><line stroke="black" x1="395.761692922" x2="373.885126528" y1="53.7531327887" y2="53.7531327887" /><line stroke="black" x1="395.761692922" x2="373.885126528" y1="75.6296991831" y2="75.6296991831" /><line stroke="black" x1="395.761692922" x2="373.885126528" y1="97.5062655775" y2="97.5062655775" /><line stroke="black" x1="395.761692922" x2="362.946843331" y1="119.382831972" y2="119.382831972" /><line stroke="black" x1="395.761692922" x2="373.885126528" y1="141.259398366" y2="141.259398366" /><line stroke="black" x1="395.761692922" x2="373.885126528" y1="163.135964761" y2="163.135964761" /><line stroke="black" x1="395.761692922" x2="373.885126528" y1="185.012531155" y2="185.012531155" /><line stroke="black" x1="395.761692922" x2="373.885126528" y1="206.889097549" y2="206.889097549" /><line stroke="black" x1="395.761692922" x2="352.008560134" y1="228.765663944" y2="228.765663944" /><line stroke="black" x1="10.0" x2="53.7531327887" y1="228.765663944" y2="228.765663944" /><line stroke="black" x1="10.0" x2="31.8765663944" y1="206.889097549" y2="206.889097549" /><line stroke="black" x1="10.0" x2="31.8765663944" y1="185.012531155" y2="185.012531155" /><line stroke="black" x1="10.0" x2="31.8765663944" y1="163.135964761" y2="163.135964761" /><line stroke="black" x1="10.0" x2="31.8765663944" y1="141.259398366" y2="141.259398366" /><line stroke="black" x1="10.0" x2="42.8148495916" y1="119.382831972" y2="119.382831972" /><line stroke="black" x1="10.0" x2="31.8765663944" y1="97.5062655775" y2="97.5062655775" /><line stroke="black" x1="10.0" x2="31.8765663944" y1="75.6296991831" y2="75.6296991831" /><line stroke="black" x1="10.0" x2="31.8765663944" y1="53.7531327887" y2="53.7531327887" /><line stroke="black" x1="10.0" x2="31.8765663944" y1="31.8765663944" y2="31.8765663944" /><line stroke="black" x1="10.0" x2="53.7531327887" y1="10.0" y2="10.0" /><line stroke="black" x1="395.761692922" x2="352.008560134" y1="228.765663944" y2="228.765663944" /><line stroke="black" x1="395.761692922" x2="373.885126528" y1="250.642230338" y2="250.642230338" /><line stroke="black" x1="395.761692922" x2="373.885126528" y1="272.518796732" y2="272.518796732" /><line stroke="black" x1="395.761692922" x2="373.885126528" y1="294.395363127" y2="294.395363127" /><line stroke="black" x1="395.761692922" x2="373.885126528" y1="316.271929521" y2="316.271929521" /><line stroke="black" x1="395.761692922" x2="362.946843331" y1="338.148495916" y2="338.148495916" /><line stroke="black" x1="395.761692922" x2="373.885126528" y1="360.02506231" y2="360.02506231" /><line stroke="black" x1="395.761692922" x2="373.885126528" y1="381.901628704" y2="381.901628704" /><line stroke="black" x1="395.761692922" x2="373.885126528" y1="403.778195099" y2="403.778195099" /><line stroke="black" x1="395.761692922" x2="373.885126528" y1="425.654761493" y2="425.654761493" /><line stroke="black" x1="395.761692922" x2="352.008560134" y1="447.531327887" y2="447.531327887" /><line stroke="black" x1="10.0" x2="53.7531327887" y1="447.531327887" y2="447.531327887" /><line stroke="black" x1="10.0" x2="31.8765663944" y1="425.654761493" y2="425.654761493" /><line stroke="black" x1="10.0" x2="31.8765663944" y1="403.778195099" y2="403.778195099" /><line stroke="black" x1="10.0" x2="31.8765663944" y1="381.901628704" y2="381.901628704" /><line stroke="black" x1="10.0" x2="31.8765663944" y1="360.02506231" y2="360.02506231" /><line stroke="black" x1="10.0" x2="42.8148495916" y1="338.148495916" y2="338.148495916" /><line stroke="black" x1="10.0" x2="31.8765663944" y1="316.271929521" y2="316.271929521" /><line stroke="black" x1="10.0" x2="31.8765663944" y1="294.395363127" y2="294.395363127" /><line stroke="black" x1="10.0" x2="31.8765663944" y1="272.518796732" y2="272.518796732" /><line stroke="black" x1="10.0" x2="31.8765663944" y1="250.642230338" y2="250.642230338" /><line stroke="black" x1="10.0" x2="53.7531327887" y1="228.765663944" y2="228.765663944" /><line stroke="black" x1="395.761692922" x2="352.008560134" y1="447.531327887" y2="447.531327887" /><line stroke="black" x1="395.761692922" x2="373.885126528" y1="469.407894282" y2="469.407894282" /><line stroke="black" x1="395.761692922" x2="373.885126528" y1="491.284460676" y2="491.284460676" /><line stroke="black" x1="395.761692922" x2="373.885126528" y1="513.161027071" y2="513.161027071" /><line stroke="black" x1="395.761692922" x2="373.885126528" y1="535.037593465" y2="535.037593465" /><line stroke="black" x1="395.761692922" x2="362.946843331" y1="556.914159859" y2="556.914159859" /><line stroke="black" x1="395.761692922" x2="373.885126528" y1="578.790726254" y2="578.790726254" /><line stroke="black" x1="395.761692922" x2="373.885126528" y1="600.667292648" y2="600.667292648" /><line stroke="black" x1="395.761692922" x2="373.885126528" y1="622.543859042" y2="622.543859042" /><line stroke="black" x1="395.761692922" x2="373.885126528" y1="644.420425437" y2="644.420425437" /><line stroke="black" x1="395.761692922" x2="352.008560134" y1="666.296991831" y2="666.296991831" /><line stroke="black" x1="10.0" x2="53.7531327887" y1="666.296991831" y2="666.296991831" /><line stroke="black" x1="10.0" x2="31.8765663944" y1="644.420425437" y2="644.420425437" /><line stroke="black" x1="10.0" x2="31.8765663944" y1="622.543859042" y2="622.543859042" /><line stroke="black" x1="10.0" x2="31.8765663944" y1="600.667292648" y2="600.667292648" /><line stroke="black" x1="10.0" x2="31.8765663944" y1="578.790726254" y2="578.790726254" /><line stroke="black" x1="10.0" x2="42.8148495916" y1="556.914159859" y2="556.914159859" /><line stroke="black" x1="10.0" x2="31.8765663944" y1="535.037593465" y2="535.037593465" /><line stroke="black" x1="10.0" x2="31.8765663944" y1="513.161027071" y2="513.161027071" /><line stroke="black" x1="10.0" x2="31.8765663944" y1="491.284460676" y2="491.284460676" /><line stroke="black" x1="10.0" x2="31.8765663944" y1="469.407894282" y2="469.407894282" /><line stroke="black" x1="10.0" x2="53.7531327887" y1="447.531327887" y2="447.531327887" /><line stroke="black" x1="10.0" x2="395.761692922" y1="228.765663944" y2="228.765663944" /><line stroke="black" x1="10.0" x2="395.761692922" y1="447.531327887" y2="447.531327887" /><line stroke="black" x1="138.587230974" x2="138.587230974" y1="10.0" y2="666.296991831" /><line stroke="black" x1="267.174461948" x2="267.174461948" y1="10.0" y2="666.296991831" /><circle cx="202.880846461" cy="338.148495916" fill="none" r="135.01659252280257" stroke="black" /><line stroke="black" x1="202.880846461" x2="202.880846461" y1="203.131903393" y2="189.630244141" /><text font-size="0.08" text-anchor="middle" transform="matrix(135.02 0.00 0.00 135.02 202.88 338.15)" x="0.0" y="-1.12">000</text><line stroke="black" x1="226.326231708" x2="228.670770232" y1="205.183108814" y2="191.886570104" /><text font-size="0.08" text-anchor="middle" transform="matrix(132.97 23.45 -23.45 132.97 202.88 338.15)" x="0.0" y="-1.12">010</text><line stroke="black" x1="249.059240787" x2="253.67708022" y1="211.274400238" y2="198.586990671" /><text font-size="0.08" text-anchor="middle" transform="matrix(126.87 46.18 -46.18 126.87 202.88 338.15)" x="0.0" y="-1.12">020</text><line stroke="black" x1="270.389142723" x2="277.139972349" y1="221.220696858" y2="209.527916953" /><text font-size="0.08" text-anchor="middle" transform="matrix(116.93 67.51 -67.51 116.93 202.88 338.15)" x="0.0" y="-1.12">030</text><line stroke="black" x1="289.667839237" x2="298.346538514" y1="234.719785485" y2="224.376914442" /><text font-size="0.08" text-anchor="middle" transform="matrix(103.43 86.79 -86.79 103.43 202.88 338.15)" x="0.0" y="-1.12">040</text><line stroke="black" x1="306.309556892" x2="316.652427935" y1="251.36150314" y2="242.682803862" /><text font-size="0.08" text-anchor="middle" transform="matrix(86.79 103.43 -103.43 86.79 202.88 338.15)" x="0.0" y="-1.12">050</text><line stroke="black" x1="319.808645518" x2="331.501425424" y1="270.640199654" y2="263.889370028" /><text font-size="0.08" text-anchor="middle" transform="matrix(67.51 116.93 -116.93 67.51 202.88 338.15)" x="0.0" y="-1.12">060</text><line stroke="black" x1="329.754942138" x2="342.442351706" y1="291.97010159" y2="287.352262157" /><text font-size="0.08" text-anchor="middle" transform="matrix(46.18 126.87 -126.87 46.18 202.88 338.15)" x="0.0" y="-1.12">070</text><line stroke="black" x1="335.846233563" x2="349.142772273" y1="314.703110669" y2="312.358572145" /><text font-size="0.08" text-anchor="middle" transform="matrix(23.45 132.97 -132.97 23.45 202.88 338.15)" x="0.0" y="-1.12">080</text><line stroke="black" x1="337.897438984" x2="351.399098236" y1="338.148495916" y2="338.148495916" /><text font-size="0.08" text-anchor="middle" transform="matrix(0.00 135.02 -135.02 0.00 202.88 338.15)" x="0.0" y="-1.12">090</text><line stroke="black" x1="335.846233563" x2="349.142772273" y1="361.593881162" y2="363.938419687" /><text font-size="0.08" text-anchor="middle" transform="matrix(-23.45 132.97 -132.97 -23.45 202.88 338.15)" x="0.0" y="-1.12">100</text><line stroke="black" x1="329.754942138" x2="342.442351706" y1="384.326890242" y2="388.944729674" /><text font-size="0.08" text-anchor="middle" transform="matrix(-46.18 126.87 -126.87 -46.18 202.88 338.15)" x="0.0" y="-1.12">110</text><line stroke="black" x1="319.808645518" x2="331.501425424" y1="405.656792177" y2="412.407621803" /><text font-size="0.08" text-anchor="middle" transform="matrix(-67.51 116.93 -116.93 -67.51 202.88 338.15)" x="0.0" y="-1.12">120</text><line stroke="black" x1="306.309556892" x2="316.652427935" y1="424.935488691" y2="433.614187969" /><text font-size="0.08" text-anchor="middle" transform="matrix(-86.79 103.43 -103.43 -86.79 202.88 338.15)" x="0.0" y="-1.12">130</text><line stroke="black" x1="289.667839237" x2="298.346538514" y1="441.577206347" y2="451.92007739" /><text font-size="0.08" text-anchor="middle" transform="matrix(-103.43 86.79 -86.79 -103.43 202.88 338.15)" x="0.0" y="-1.12">140</text><line stroke="black" x1="270.389142723" x2="277.139972349" y1="455.076294973" y2="466.769074878" /><text font-size="0.08" text-anchor="middle" transform="matrix(-116.93 67.51 -67.51 -116.93 202.88 338.15)" x="0.0" y="-1.12">150</text><line stroke="black" x1="249.059240787" x2="253.67708022" y1="465.022591593" y2="477.710001161" /><text font-size="0.08" text-anchor="middle" transform="matrix(-126.87 46.18 -46.18 -126.87 202.88 338.15)" x="0.0" y="-1.12">160</text><line stroke="black" x1="226.326231708" x2="228.670770232" y1="471.113883017" y2="484.410421728" /><text font-size="0.08" text-anchor="middle" transform="matrix(-132.97 23.45 -23.45 -132.97 202.88 338.15)" x="0.0" y="-1.12">170</text><line stroke="black" x1="202.880846461" x2="202.880846461" y1="473.165088438" y2="486.666747691" /><text font-size="0.08" text-anchor="middle" transform="matrix(-135.02 0.00 -0.00 -135.02 202.88 338.15)" x="0.0" y="-1.12">180</text><line stroke="black" x1="179.435461215" x2="177.09092269" y1="471.113883017" y2="484.410421728" /><text font-size="0.08" text-anchor="middle" transform="matrix(-132.97 -23.45 23.45 -132.97 202.88 338.15)" x="0.0" y="-1.12">190</text><line stroke="black" x1="156.702452135" x2="152.084612703" y1="465.022591593" y2="477.710001161" /><text font-size="0.08" text-anchor="middle" transform="matrix(-126.87 -46.18 46.18 -126.87 202.88 338.15)" x="0.0" y="-1.12">200</text><line stroke="black" x1="135.3725502" x2="128.621720574" y1="455.076294973" y2="466.769074878" /><text font-size="0.08" text-anchor="middle" transform="matrix(-116.93 -67.51 67.51 -116.93 202.88 338.15)" x="0.0" y="-1.12">210</text><line stroke="black" x1="116.093853685" x2="107.415154408" y1="441.577206347" y2="451.92007739" /><text font-size="0.08" text-anchor="middle" transform="matrix(-103.43 -86.79 86.79 -103.43 202.88 338.15)" x="0.0" y="-1.12">220</text><line stroke="black" x1="99.4521360302" x2="89.1092649871" y1="424.935488691" y2="433.614187969" /><text font-size="0.08" text-anchor="middle" transform="matrix(-86.79 -103.43 103.43 -86.79 202.88 338.15)" x="0.0" y="-1.12">230</text><line stroke="black" x1="85.953047404" x2="74.2602674983" y1="405.656792177" y2="412.407621803" /><text font-size="0.08" text-anchor="middle" transform="matrix(-67.51 -116.93 116.93 -67.51 202.88 338.15)" x="0.0" y="-1.12">240</text><line stroke="black" x1="76.0067507838" x2="63.3193412161" y1="384.326890242" y2="388.944729674" /><text font-size="0.08" text-anchor="middle" transform="matrix(-46.18 -126.87 126.87 -46.18 202.88 338.15)" x="0.0" y="-1.12">250</text><line stroke="black" x1="69.9154593594" x2="56.6189206492" y1="361.593881162" y2="363.938419687" /><text font-size="0.08" text-anchor="middle" transform="matrix(-23.45 -132.97 132.97 -23.45 202.88 338.15)" x="0.0" y="-1.12">260</text><line stroke="black" x1="67.8642539383" x2="54.3625946861" y1="338.148495916" y2="338.148495916" /><text font-size="0.08" text-anchor="middle" transform="matrix(-0.00 -135.02 135.02 -0.00 202.88 338.15)" x="0.0" y="-1.12">270</text><line stroke="black" x1="69.9154593594" x2="56.6189206492" y1="314.703110669" y2="312.358572145" /><text font-size="0.08" text-anchor="middle" transform="matrix(23.45 -132.97 132.97 23.45 202.88 338.15)" x="0.0" y="-1.12">280</text><line stroke="black" x1="76.0067507838" x2="63.3193412161" y1="291.97010159" y2="287.352262157" /><text font-size="0.08" text-anchor="middle" transform="matrix(46.18 -126.87 126.87 46.18 202.88 338.15)" x="0.0" y="-1.12">290</text><line stroke="black" x1="85.953047404" x2="74.2602674983" y1="270.640199654" y2="263.889370028" /><text font-size="0.08" text-anchor="middle" transform="matrix(67.51 -116.93 116.93 67.51 202.88 338.15)" x="0.0" y="-1.12">300</text><line stroke="black" x1="99.4521360302" x2="89.1092649871" y1="251.36150314" y2="242.682803862" /><text font-size="0.08" text-anchor="middle" transform="matrix(86.79 -103.43 103.43 86.79 202.88 338.15)" x="0.0" y="-1.12">310</text><line stroke="black" x1="116.093853685" x2="107.415154408" y1="234.719785485" y2="224.376914442" /><text font-size="0.08" text-anchor="middle" transform="matrix(103.43 -86.79 86.79 103.43 202.88 338.15)" x="0.0" y="-1.12">320</text><line stroke="black" x1="135.3725502" x2="128.621720574" y1="221.220696858" y2="209.527916953" /><text font-size="0.08" text-anchor="middle" transform="matrix(116.93 -67.51 67.51 116.93 202.88 338.15)" x="0.0" y="-1.12">330</text><line stroke="black" x1="156.702452135" x2="152.084612703" y1="211.274400238" y2="198.586990671" /><text font-size="0.08" text-anchor="middle" transform="matrix(126.87 -46.18 46.18 126.87 202.88 338.15)" x="0.0" y="-1.12">340</text><line stroke="black" x1="179.435461215" x2="177.09092269" y1="205.183108814" y2="191.886570104" /><text font-size="0.08" text-anchor="middle" transform="matrix(132.97 -23.45 23.45 132.97 202.88 338.15)" x="0.0" y="-1.12">350</text><line stroke="black" x1="202.880846461" x2="202.880846461" y1="216.633562645" y2="459.663429186" /><line stroke="black" x1="81.3659131906" x2="324.395779732" y1="338.148495916" y2="338.148495916" /><text font-size="0.09" font-weight="bold" text-anchor="middle" transform="matrix(121.51 0.00 0.00 121.51 202.88 338.15)" x="0.0" y="-1.4">N</text><circle cx="202.880846461" cy="338.148495916" fill="none" r="7.086614" stroke="black" /><circle cx="10.0" cy="10.0" fill="none" r="7.086614" stroke="black" /><circle cx="10.0" cy="666.296991831" fill="none" r="7.086614" stroke="black" /><circle cx="395.761692922" cy="10.0" fill="none" r="7.086614" stroke="black" /><circle cx="395.761692922" cy="666.296991831" fill="none" r="7.086614" stroke="black" /><line stroke="black" x1="34.43526244300777mm" x2="84.43526244300777mm" y1="195.2216mm" y2="195.2216mm" /><line stroke="black" x1="34.43526244300777mm" x2="34.43526244300777mm" y1="193.2216mm" y2="197.2216mm" /><line stroke="black" x1="84.43526244300777mm" x2="84.43526244300777mm" y1="193.2216mm" y2="197.2216mm" /><text font-size="9" text-anchor="middle" x="210.59738146114654" y="684.6434478312">5cm</text><text font-size="3.8mm" text-anchor="middle" x="54.43526244300777mm" y="152.17728mm">Maßstab: 1:30000</text><text font-size="3.8mm" text-anchor="middle" x="54.43526244300777mm" y="156.17728mm">54°N</text><text font-size="3.8mm" text-anchor="middle" x="54.43526244300777mm" y="160.17728mm">Missweisung: 0.0°</text><image height="14.097000344593342mm" preserveAspectRatio="xMidYMid meet" width="23.30704056972766mm" x="42.78174215814394mm" xlink:href="file:///c:\Users\tiger\Documents\Benches\PyBench\pygpsplot\Wimpelh150.jpg" y="20.73473982770333mm" /><text font-size="3.8mm" text-anchor="middle" x="54.43526244300777mm" y="38.83174017229667mm">Essener-Faltboot-Fahrer e.V.</text></svg>