<?xml version="1.0" encoding="utf-8" ?>
<svg baseProfile="full" height="100%" version="1.1" width="100%" xmlns="http://www.w3.org/2000/svg" xmlns:ev="http://www.w3.org/2001/xml-events" xmlns:xlink="http://www.w3.org/1999/xlink"><defs /><rect fill="white" height="185.2mm" stroke="black" width="108.85782872456602mm" x="10.0mm" y="10.0mm" /><line stroke="black" x1="10.0mm" x2="10.0mm" y1="10.0mm" y2="17.257188581637735mm" /><line stroke="black" x1="13.628594290818867mm" x2="13.628594290818867mm" y1="10.0mm" y2="13.628594290818867mm" /><line stroke="black" x1="17.257188581637735mm" x2="17.257188581637735mm" y1="10.0mm" y2="13.628594290818867mm" /><line stroke="black" x1="20.885782872456602mm" x2="20.885782872456602mm" y1="10.0mm" y2="13.628594290818867mm" /><line stroke="black" x1="24.51437716327547mm" x2="24.51437716327547mm" y1="10.0mm" y2="13.628594290818867mm" /><line stroke="black" x1="28.142971454094337mm" x2="28.142971454094337mm" y1="10.0mm" y2="15.442891436228301mm" /><line stroke="black" x1="31.771565744913207mm" x2="31.771565744913207mm" y1="10.0mm" y2="13.628594290818867mm" /><line stroke="black" x1="35.40016003573207mm" x2="35.40016003573207mm" y1="10.0mm" y2="13.628594290818867mm" /><line stroke="black" x1="39.02875432655094mm" x2="39.02875432655094mm" y1="10.0mm" y2="13.628594290818867mm" /><line stroke="black" x1="42.657348617369806mm" x2="42.657348617369806mm" y1="10.0mm" y2="13.628594290818867mm" /><line stroke="black" x1="46.28594290818867mm" x2="46.28594290818867mm" y1="10.0mm" y2="17.257188581637735mm" /><line stroke="black" x1="46.28594290818867mm" x2="46.28594290818867mm" y1="195.2mm" y2="187.94281141836225mm" /><line stroke="black" x1="42.657348617369806mm" x2="42.657348617369806mm" y1="195.2mm" y2="191.57140570918114mm" /><line stroke="black" x1="39.02875432655094mm" x2="39.02875432655094mm" y1="195.2mm" y2="191.57140570918114mm" /><line stroke="black" x1="35.40016003573207mm" x2="35.40016003573207mm" y1="195.2mm" y2="191.57140570918114mm" /><line stroke="black" x1="31.771565744913204mm" x2="31.771565744913204mm" y1="195.2mm" y2="191.57140570918114mm" /><line stroke="black" x1="28.142971454094337mm" x2="28.142971454094337mm" y1="195.2mm" y2="189.75710856377168mm" /><line stroke="black" x1="24.514377163275466mm" x2="24.514377163275466mm" y1="195.2mm" y2="191.57140570918114mm" /><line stroke="black" x1="20.8857828724566mm" x2="20.8857828724566mm" y1="195.2mm" y2="191.57140570918114mm" /><line stroke="black" x1="17.257188581637735mm" x2="17.257188581637735mm" y1="195.2mm" y2="191.57140570918114mm" /><line stroke="black" x1="13.628594290818867mm" x2="13.628594290818867mm" y1="195.2mm" y2="191.57140570918114mm" /><line stroke="black" x1="10.0mm" x2="10.0mm" y1="195.2mm" y2="187.94281141836225mm" /><line stroke="black" x1="46.28594290818867mm" x2="46.28594290818867mm" y1="10.0mm" y2="17.257188581637735mm" /><line stroke="black" x1="49.91453719900754mm" x2="49.91453719900754mm" y1="10.0mm" y2="13.628594290818867mm" /><line stroke="black" x1="53.54313148982641mm" x2="53.54313148982641mm" y1="10.0mm" y2="13.628594290818867mm" /><line stroke="black" x1="57.171725780645275mm" x2="57.171725780645275mm" y1="10.0mm" y2="13.628594290818867mm" /><line stroke="black" x1="60.80032007146414mm" x2="60.80032007146414mm" y1="10.0mm" y2="13.628594290818867mm" /><line stroke="black" x1="64.42891436228301mm" x2="64.42891436228301mm" y1="10.0mm" y2="15.442891436228301mm" /><line stroke="black" x1="68.05750865310188mm" x2="68.05750865310188mm" y1="10.0mm" y2="13.628594290818867mm" /><line stroke="black" x1="71.68610294392074mm" x2="71.68610294392074mm" y1="10.0mm" y2="13.628594290818867mm" /><line stroke="black" x1="75.31469723473961mm" x2="75.31469723473961mm" y1="10.0mm" y2="13.628594290818867mm" /><line stroke="black" x1="78.94329152555848mm" x2="78.94329152555848mm" y1="10.0mm" y2="13.628594290818867mm" /><line stroke="black" x1="82.57188581637735mm" x2="82.57188581637735mm" y1="10.0mm" y2="17.257188581637735mm" /><line stroke="black" x1="82.57188581637735mm" x2="82.57188581637735mm" y1="195.2mm" y2="187.94281141836225mm" /><line stroke="black" x1="78.94329152555848mm" x2="78.94329152555848mm" y1="195.2mm" y2="191.57140570918114mm" /><line stroke="black" x1="75.31469723473961mm" x2="75.31469723473961mm" y1="195.2mm" y2="191.57140570918114mm" /><line stroke="black" x1="71.68610294392074mm" x2="71.68610294392074mm" y1="195.2mm" y2="191.57140570918114mm" /><line stroke="black" x1="68.05750865310188mm" x2="68.05750865310188mm" y1="195.2mm" y2="191.57140570918114mm" /><line stroke="black" x1="64.42891436228301mm" x2="64.42891436228301mm" y1="195.2mm" y2="189.75710856377168mm" /><line stroke="black" x1="60.80032007146414mm" x2="60.80032007146414mm" y1="195.2mm" y2="191.57140570918114mm" /><line stroke="black" x1="57.171725780645275mm" x2="57.171725780645275mm" y1="195.2mm" y2="191.57140570918114mm" /><line stroke="black" x1="53.54313148982641mm" x2="53.54313148982641mm" y1="195.2mm" y2="191.57140570918114mm" /><line stroke="black" x1="49.91453719900754mm" x2="49.91453719900754mm" y1="195.2mm" y2="191.57140570918114mm" /><line stroke="black" x1="46.28594290818867mm" x2="46.28594290818867mm" y1="195.2mm" y2="187.94281141836225mm" /><line stroke="black" x1="82.57188581637735mm" x2="82.57188581637735mm" y1="10.0mm" y2="17.257188581637735mm" /><line stroke="black" x1="86.20048010719621mm" x2="86.20048010719621mm" y1="10.0mm" y2="13.628594290818867mm" /><line stroke="black" x1="89.82907439801508mm" x2="89.82907439801508mm" y1="10.0mm" y2="13.628594290818867mm" /><line stroke="black" x1="93.45766868883395mm" x2="93.45766868883395mm" y1="10.0mm" y2="13.628594290818867mm" /><line stroke="black" x1="97.08626297965282mm" x2="97.08626297965282mm" y1="10.0mm" y2="13.628594290818867mm" /><line stroke="black" x1="100.71485727047168mm" x2="100.71485727047168mm" y1="10.0mm" y2="15.442891436228301mm" /><line stroke="black" x1="104.34345156129055mm" x2="104.34345156129055mm" y1="10.0mm" y2="13.628594290818867mm" /><line stroke="black" x1="107.97204585210942mm" x2="107.97204585210942mm" y1="10.0mm" y2="13.628594290818867mm" /><line stroke="black" x1="111.60064014292828mm" x2="111.60064014292828mm" y1="10.0mm" y2="13.628594290818867mm" /><line stroke="black" x1="115.22923443374715mm" x2="115.22923443374715mm" y1="10.0mm" y2="13.628594290818867mm" /><line stroke="black" x1="118.85782872456602mm" x2="118.85782872456602mm" y1="10.0mm" y2="17.257188581637735mm" /><line stroke="black" x1="118.85782872456602mm" x2="118.85782872456602mm" y1="195.2mm" y2="187.94281141836225mm" /><line stroke="black" x1="115.22923443374715mm" x2="115.22923443374715mm" y1="195.2mm" y2="191.57140570918114mm" /><line stroke="black" x1="111.60064014292828mm" x2="111.60064014292828mm" y1="195.2mm" y2="191.57140570918114mm" /><line stroke="black" x1="107.97204585210942mm" x2="107.97204585210942mm" y1="195.2mm" y2="191.57140570918114mm" /><line stroke="black" x1="104.34345156129055mm" x2="104.34345156129055mm" y1="195.2mm" y2="191.57140570918114mm" /><line stroke="black" x1="100.71485727047168mm" x2="100.71485727047168mm" y1="195.2mm" y2="189.75710856377168mm" /><line stroke="black" x1="97.08626297965282mm" x2="97.08626297965282mm" y1="195.2mm" y2="191.57140570918114mm" /><line stroke="black" x1="93.45766868883395mm" x2="93.45766868883395mm" y1="195.2mm" y2="191.57140570918114mm" /><line stroke="black" x1="89.82907439801508mm" x2="89.82907439801508mm" y1="195.2mm" y2="191.57140570918114mm" /><line stroke="black" x1="86.20048010719621mm" x2="86.20048010719621mm" y1="195.2mm" y2="191.57140570918114mm" /><line stroke="black" x1="82.57188581637735mm" x2="82.57188581637735mm" y1="195.2mm" y2="187.94281141836225mm" /><line stroke="black" x1="118.85782872456602mm" x2="106.51116205789936mm" y1="10.0mm" y2="10.0mm" /><line stroke="black" x1="118.85782872456602mm" x2="112.68449539123269mm" y1="16.173333333333332mm" y2="16.173333333333332mm" /><line stroke="black" x1="118.85782872456602mm" x2="112.68449539123269mm" y1="22.346666666666668mm" y2="22.346666666666668mm" /><line stroke="black" x1="118.85782872456602mm" x2="112.68449539123269mm" y1="28.520000000000003mm" y2="28.520000000000003mm" /><line stroke="black" x1="118.85782872456602mm" x2="112.68449539123269mm" y1="34.693333333333335mm" y2="34.693333333333335mm" /><line stroke="black" x1="118.85782872456602mm" x2="109.59782872456603mm" y1="40.86666666666667mm" y2="40.86666666666667mm" /><line stroke="black" x1="118.85782872456602mm" x2="112.68449539123269mm" y1="47.040000000000006mm" y2="47.040000000000006mm" /><line stroke="black" x1="118.85782872456602mm" x2="112.68449539123269mm" y1="53.21333333333334mm" y2="53.21333333333334mm" /><line stroke="black" x1="118.85782872456602mm" x2="112.68449539123269mm" y1="59.38666666666667mm" y2="59.38666666666667mm" /><line stroke="black" x1="118.85782872456602mm" x2="112.68449539123269mm" y1="65.56mm" y2="65.56mm" /><line stroke="black" x1="118.85782872456602mm" x2="106.51116205789936mm" y1="71.73333333333333mm" y2="71.73333333333333mm" /><line stroke="black" x1="10.0mm" x2="22.346666666666668mm" y1="71.73333333333333mm" y2="71.73333333333333mm" /><line stroke="black" x1="9.999999999999998mm" x2="16.173333333333332mm" y1="65.56mm" y2="65.56mm" /><line stroke="black" x1="9.999999999999998mm" x2="16.173333333333332mm" y1="59.38666666666667mm" y2="59.38666666666666mm" /><line stroke="black" x1="9.999999999999996mm" x2="16.173333333333332mm" y1="53.21333333333333mm" y2="53.21333333333333mm" /><line stroke="black" x1="9.999999999999995mm" x2="16.17333333333333mm" y1="47.04mm" y2="47.04mm" /><line stroke="black" x1="9.999999999999995mm" x2="19.259999999999994mm" y1="40.86666666666667mm" y2="40.86666666666667mm" /><line stroke="black" x1="9.999999999999993mm" x2="16.173333333333325mm" y1="34.69333333333333mm" y2="34.69333333333333mm" /><line stroke="black" x1="9.999999999999993mm" x2="16.173333333333325mm" y1="28.519999999999996mm" y2="28.519999999999996mm" /><line stroke="black" x1="9.999999999999991mm" x2="16.173333333333325mm" y1="22.346666666666664mm" y2="22.346666666666664mm" /><line stroke="black" x1="9.99999999999999mm" x2="16.173333333333325mm" y1="16.173333333333332mm" y2="16.173333333333332mm" /><line stroke="black" x1="9.99999999999999mm" x2="22.346666666666657mm" y1="10.0mm" y2="10.0mm" /><line stroke="black" x1="118.85782872456602mm" x2="106.51116205789936mm" y1="71.73333333333333mm" y2="71.73333333333333mm" /><line stroke="black" x1="118.85782872456602mm" x2="112.68449539123269mm" y1="77.90666666666667mm" y2="77.90666666666667mm" /><line stroke="black" x1="118.85782872456602mm" x2="112.68449539123269mm" y1="84.08mm" y2="84.08mm" /><line stroke="black" x1="118.85782872456602mm" x2="112.68449539123269mm" y1="90.25333333333333mm" y2="90.25333333333333mm" /><line stroke="black" x1="118.85782872456602mm" x2="112.68449539123269mm" y1="96.42666666666668mm" y2="96.42666666666668mm" /><line stroke="black" x1="118.85782872456602mm" x2="109.59782872456603mm" y1="102.6mm" y2="102.6mm" /><line stroke="black" x1="118.85782872456602mm" x2="112.68449539123269mm" y1="108.77333333333334mm" y2="108.77333333333334mm" /><line stroke="black" x1="118.85782872456602mm" x2="112.68449539123269mm" y1="114.94666666666667mm" y2="114.94666666666667mm" /><line stroke="black" x1="118.85782872456602mm" x2="112.68449539123269mm" y1="121.12mm" y2="121.12mm" /><line stroke="black" x1="118.85782872456602mm" x2="112.68449539123269mm" y1="127.29333333333334mm" y2="127.29333333333334mm" /><line stroke="black" x1="118.85782872456602mm" x2="106.51116205789936mm" y1="133.46666666666667mm" y2="133.46666666666667mm" /><line stroke="black" x1="10.0mm" x2="22.346666666666668mm" y1="133.46666666666667mm" y2="133.46666666666667mm" /><line stroke="black" x1="9.999999999999998mm" x2="16.173333333333332mm" y1="127.29333333333334mm" y2="127.29333333333334mm" /><line stroke="black" x1="9.999999999999998mm" x2="16.173333333333332mm" y1="121.12mm" y2="121.12mm" /><line stroke="black" x1="9.999999999999996mm" x2="16.173333333333332mm" y1="114.94666666666666mm" y2="114.94666666666666mm" /><line stroke="black" x1="9.999999999999995mm" x2="16.17333333333333mm" y1="108.77333333333334mm" y2="108.77333333333334mm" /><line stroke="black" x1="9.999999999999995mm" x2="19.259999999999994mm" y1="102.6mm" y2="102.6mm" /><line stroke="black" x1="9.999999999999993mm" x2="16.173333333333325mm" y1="96.42666666666666mm" y2="96.42666666666666mm" /><line stroke="black" x1="9.999999999999993mm" x2="16.173333333333325mm" y1="90.25333333333333mm" y2="90.25333333333333mm" /><line stroke="black" x1="9.999999999999991mm" x2="16.173333333333325mm" y1="84.08mm" y2="84.08mm" /><line stroke="black" x1="9.99999999999999mm" x2="16.173333333333325mm" y1="77.90666666666667mm" y2="77.90666666666667mm" /><line stroke="black" x1="9.99999999999999mm" x2="22.346666666666657mm" y1="71.73333333333333mm" y2="71.73333333333333mm" /><line stroke="black" x1="118.85782872456602mm" x2="106.51116205789936mm" y1="133.46666666666667mm" y2="133.46666666666667mm" /><line stroke="black" x1="118.85782872456602mm" x2="112.68449539123269mm" y1="139.64000000000001mm" y2="139.64000000000001mm" /><line stroke="black" x1="118.85782872456602mm" x2="112.68449539123269mm" y1="145.81333333333333mm" y2="145.81333333333333mm" /><line stroke="black" x1="118.85782872456602mm" x2="112.68449539123269mm" y1="151.98666666666668mm" y2="151.98666666666668mm" /><line stroke="black" x1="118.85782872456602mm" x2="112.68449539123269mm" y1="158.16mm" y2="158.16mm" /><line stroke="black" x1="118.85782872456602mm" x2="109.59782872456603mm" y1="164.33333333333334mm" y2="164.33333333333334mm" /><line stroke="black" x1="118.85782872456602mm" x2="112.68449539123269mm" y1="170.50666666666666mm" y2="170.50666666666666mm" /><line stroke="black" x1="118.85782872456602mm" x2="112.68449539123269mm" y1="176.68mm" y2="176.68mm" /><line stroke="black" x1="118.85782872456602mm" x2="112.68449539123269mm" y1="182.85333333333335mm" y2="182.85333333333335mm" /><line stroke="black" x1="118.85782872456602mm" x2="112.68449539123269mm" y1="189.02666666666667mm" y2="189.02666666666667mm" /><line stroke="black" x1="118.85782872456602mm" x2="106.51116205789936mm" y1="195.2mm" y2="195.2mm" /><line stroke="black" x1="10.0mm" x2="22.346666666666668mm" y1="195.2mm" y2="195.2mm" /><line stroke="black" x1="9.999999999999998mm" x2="16.173333333333332mm" y1="189.02666666666664mm" y2="189.02666666666664mm" /><line stroke="black" x1="9.999999999999998mm" x2="16.173333333333332mm" y1="182.85333333333332mm" y2="182.85333333333332mm" /><line stroke="black" x1="9.999999999999996mm" x2="16.173333333333332mm" y1="176.67999999999998mm" y2="176.67999999999998mm" /><line stroke="black" x1="9.999999999999995mm" x2="16.17333333333333mm" y1="170.50666666666666mm" y2="170.50666666666666mm" /><line stroke="black" x1="9.999999999999995mm" x2="19.259999999999994mm" y1="164.33333333333331mm" y2="164.33333333333331mm" /><line stroke="black" x1="9.999999999999993mm" x2="16.173333333333325mm" y1="158.15999999999997mm" y2="158.15999999999997mm" /><line stroke="black" x1="9.999999999999993mm" x2="16.173333333333325mm" y1="151.98666666666665mm" y2="151.98666666666665mm" /><line stroke="black" x1="9.999999999999991mm" x2="16.173333333333325mm" y1="145.81333333333333mm" y2="145.81333333333333mm" /><line stroke="black" x1="9.99999999999999mm" x2="16.173333333333325mm" y1="139.64mm" y2="139.64mm" /><line stroke="black" x1="9.99999999999999mm" x2="22.346666666666657mm" y1="133.46666666666664mm" y2="133.46666666666664mm" /><line stroke="black" x1="10.0mm" x2="118.85782872456602mm" y1="71.73333333333333mm" y2="71.73333333333333mm" /><line stroke="black" x1="10.0mm" x2="118.85782872456602mm" y1="133.46666666666667mm" y2="133.46666666666667mm" /><line stroke="black" x1="46.28594290818867mm" x2="46.28594290818867mm" y1="10.0mm" y2="195.2mm" /><line stroke="black" x1="82.57188581637735mm" x2="82.57188581637735mm" y1="10.0mm" y2="195.2mm" /><circle cx="64.42891436228301mm" cy="102.6mm" fill="none" r="38.10024005359811mm" stroke="black" /><line stroke="black" x1="64.42891436228301mm" x2="64.42891436228301mm" y1="64.4997599464019mm" y2="60.68973594104207mm" /><text rotate="0.0" text-anchor="middle" x="49.18881834084377mm" y="57.64171673675423mm">0</text><line stroke="black" x1="71.0449516162629mm" x2="71.7065553416609mm" y1="65.07858820359031mm" y2="61.32644702394934mm" /><text rotate="10.0" text-anchor="middle" x="57.22727360341542mm" y="55.678319178644614mm">1</text><text rotate="10.0" text-anchor="middle" x="72.23583832197929mm" y="58.324734080236574mm">0</text><line stroke="black" x1="77.45996392615702mm" x2="78.76306888254442mm" y1="66.79748557146215mm" y2="63.21723412860836mm" /><text rotate="20.0" text-anchor="middle" x="65.4845470762392mm" y="55.140613148775735mm">2</text><text rotate="20.0" text-anchor="middle" x="79.80555284765434mm" y="60.35303297432534mm">0</text><line stroke="black" x1="83.47903438908206mm" x2="85.38404639176197mm" y1="69.60422422329864mm" y2="66.30464664562851mm" /><text rotate="30.0" text-anchor="middle" x="73.70974568322535mm" y="56.04493657277279mm">3</text><text rotate="30.0" text-anchor="middle" x="86.90805599390589mm" y="63.66498458349241mm">0</text><line stroke="black" x1="88.91927659481868mm" x2="91.36831281807224mm" y1="73.41352282544204mm" y2="70.49487510798625mm" /><text rotate="40.0" text-anchor="middle" x="81.65295092685193mm" y="58.36381204100735mm">4</text><text rotate="40.0" text-anchor="middle" x="93.32754179667509mm" y="68.15995693402162mm">0</text><line stroke="black" x1="93.61539153684095mm" x2="96.53403925429674mm" y1="78.10963776746432mm" y2="75.66060154421075mm" /><text rotate="50.0" text-anchor="middle" x="89.07281253524711mm" y="62.02678169578472mm">5</text><text rotate="50.0" text-anchor="middle" x="98.86895742826138mm" y="73.7013725656079mm">0</text><line stroke="black" x1="97.42469013898435mm" x2="100.72426771665448mm" y1="83.54987997320094mm" y2="81.64486797052103mm" /><text rotate="60.0" text-anchor="middle" x="95.74388176807096mm" y="66.92254805769656mm">6</text><text rotate="60.0" text-anchor="middle" x="103.36392977879059mm" y="80.1208583683771mm">0</text><line stroke="black" x1="100.23142879082084mm" x2="103.81168023367464mm" y1="89.56895043612599mm" y2="88.26584547973857mm" /><text rotate="70.0" text-anchor="middle" x="101.46346156240806mm" y="72.90235574321352mm">7</text><text rotate="70.0" text-anchor="middle" x="106.67588138795766mm" y="87.22336151462866mm">0</text><line stroke="black" x1="101.95032615869269mm" x2="105.70246733833366mm" y1="95.9839627460201mm" y2="95.3223590206221mm" /><text rotate="80.0" text-anchor="middle" x="106.05776538045447mm" y="79.78451132173984mm">8</text><text rotate="80.0" text-anchor="middle" x="108.70418028204642mm" y="94.7930760403037mm">0</text><line stroke="black" x1="102.52915441588112mm" x2="106.33917842124093mm" y1="102.6mm" y2="102.6mm" /><text rotate="90.0" text-anchor="middle" x="109.38719762552877mm" y="87.35990397856075mm">9</text><text rotate="90.0" text-anchor="middle" x="109.38719762552877mm" y="102.6mm">0</text><line stroke="black" x1="101.95032615869269mm" x2="105.70246733833366mm" y1="109.21603725397989mm" y2="109.87764097937789mm" /><text rotate="100.0" text-anchor="middle" x="111.35059518363839mm" y="95.3983592411324mm">1</text><text rotate="100.0" text-anchor="middle" x="108.70418028204642mm" y="110.40692395969627mm">0</text><text rotate="100.0" text-anchor="middle" x="106.05776538045447mm" y="125.41548867826015mm">0</text><line stroke="black" x1="100.23142879082086mm" x2="103.81168023367465mm" y1="115.631049563874mm" y2="116.9341545202614mm" /><text rotate="110.0" text-anchor="middle" x="111.88830121350728mm" y="103.65563271395618mm">1</text><text rotate="110.0" text-anchor="middle" x="106.67588138795767mm" y="117.97663848537132mm">1</text><text rotate="110.0" text-anchor="middle" x="101.46346156240807mm" y="132.29764425678647mm">0</text><line stroke="black" x1="97.42469013898435mm" x2="100.72426771665448mm" y1="121.65012002679904mm" y2="123.55513202947895mm" /><text rotate="120.0" text-anchor="middle" x="110.98397778951022mm" y="111.88083132094233mm">1</text><text rotate="120.0" text-anchor="middle" x="103.36392977879059mm" y="125.07914163162286mm">2</text><text rotate="120.0" text-anchor="middle" x="95.74388176807098mm" y="138.2774519423034mm">0</text><line stroke="black" x1="93.61539153684095mm" x2="96.53403925429674mm" y1="127.09036223253567mm" y2="129.53939845578924mm" /><text rotate="130.0" text-anchor="middle" x="108.66510232127565mm" y="119.82403656456891mm">1</text><text rotate="130.0" text-anchor="middle" x="98.86895742826138mm" y="131.4986274343921mm">3</text><text rotate="130.0" text-anchor="middle" x="89.07281253524711mm" y="143.17321830421525mm">0</text><line stroke="black" x1="88.91927659481868mm" x2="91.36831281807225mm" y1="131.78647717455794mm" y2="134.7051248920137mm" /><text rotate="140.0" text-anchor="middle" x="105.00213266649828mm" y="127.2438981729641mm">1</text><text rotate="140.0" text-anchor="middle" x="93.3275417966751mm" y="137.04004306597835mm">4</text><text rotate="140.0" text-anchor="middle" x="81.65295092685193mm" y="146.83618795899264mm">0</text><line stroke="black" x1="83.47903438908206mm" x2="85.38404639176197mm" y1="135.59577577670134mm" y2="138.89535335437148mm" /><text rotate="150.0" text-anchor="middle" x="100.10636630458643mm" y="133.91496740578796mm">1</text><text rotate="150.0" text-anchor="middle" x="86.90805599390589mm" y="141.53501541650758mm">5</text><text rotate="150.0" text-anchor="middle" x="73.70974568322535mm" y="149.1550634272272mm">0</text><line stroke="black" x1="77.45996392615703mm" x2="78.76306888254443mm" y1="138.40251442853784mm" y2="141.98276587139162mm" /><text rotate="160.0" text-anchor="middle" x="94.12655861906948mm" y="139.63454720012504mm">1</text><text rotate="160.0" text-anchor="middle" x="79.80555284765435mm" y="144.84696702567464mm">6</text><text rotate="160.0" text-anchor="middle" x="65.48454707623921mm" y="150.05938685122425mm">0</text><line stroke="black" x1="71.0449516162629mm" x2="71.7065553416609mm" y1="140.1214117964097mm" y2="143.87355297605063mm" /><text rotate="170.0" text-anchor="middle" x="87.24440304054316mm" y="144.22885101817144mm">1</text><text rotate="170.0" text-anchor="middle" x="72.23583832197929mm" y="146.87526591976342mm">7</text><text rotate="170.0" text-anchor="middle" x="57.22727360341541mm" y="149.52168082135537mm">0</text><line stroke="black" x1="64.42891436228301mm" x2="64.42891436228301mm" y1="140.7002400535981mm" y2="144.51026405895792mm" /><text rotate="180.0" text-anchor="middle" x="79.66901038372225mm" y="147.55828326324576mm">1</text><text rotate="180.0" text-anchor="middle" x="64.42891436228301mm" y="147.55828326324576mm">8</text><text rotate="180.0" text-anchor="middle" x="49.188818340843774mm" y="147.55828326324576mm">0</text><line stroke="black" x1="57.812877108303105mm" x2="57.15127338290512mm" y1="140.1214117964097mm" y2="143.87355297605063mm" /><text rotate="190.0" text-anchor="middle" x="71.63055512115059mm" y="149.52168082135537mm">1</text><text rotate="190.0" text-anchor="middle" x="56.621990402586725mm" y="146.87526591976342mm">9</text><text rotate="190.0" text-anchor="middle" x="41.61342568402285mm" y="144.22885101817144mm">0</text><line stroke="black" x1="51.397864798409mm" x2="50.0947598420216mm" y1="138.40251442853784mm" y2="141.98276587139162mm" /><text rotate="200.0" text-anchor="middle" x="63.373281648326824mm" y="150.05938685122425mm">2</text><text rotate="200.0" text-anchor="middle" x="49.05227587691168mm" y="144.84696702567464mm">0</text><text rotate="200.0" text-anchor="middle" x="34.73127010549654mm" y="139.63454720012504mm">0</text><line stroke="black" x1="45.37879433548395mm" x2="43.47378233280405mm" y1="135.59577577670134mm" y2="138.89535335437148mm" /><text rotate="210.0" text-anchor="middle" x="55.14808304134066mm" y="149.1550634272272mm">2</text><text rotate="210.0" text-anchor="middle" x="41.94977273066012mm" y="141.53501541650758mm">1</text><text rotate="210.0" text-anchor="middle" x="28.751462419979582mm" y="133.91496740578796mm">0</text><line stroke="black" x1="39.938552129747336mm" x2="37.48951590649377mm" y1="131.78647717455794mm" y2="134.70512489201374mm" /><text rotate="220.0" text-anchor="middle" x="47.2048777977141mm" y="146.83618795899264mm">2</text><text rotate="220.0" text-anchor="middle" x="35.53028692789092mm" y="137.04004306597835mm">2</text><text rotate="220.0" text-anchor="middle" x="23.855696058067743mm" y="127.2438981729641mm">0</text><line stroke="black" x1="35.24243718772507mm" x2="32.323789470269276mm" y1="127.09036223253567mm" y2="129.53939845578924mm" /><text rotate="230.0" text-anchor="middle" x="39.78501618931892mm" y="143.17321830421525mm">2</text><text rotate="230.0" text-anchor="middle" x="29.988871296304644mm" y="131.4986274343921mm">3</text><text rotate="230.0" text-anchor="middle" x="20.192726403290372mm" y="119.82403656456891mm">0</text><line stroke="black" x1="31.43313858558168mm" x2="28.133561007911545mm" y1="121.65012002679907mm" y2="123.55513202947897mm" /><text rotate="240.0" text-anchor="middle" x="33.11394695649507mm" y="138.27745194230343mm">2</text><text rotate="240.0" text-anchor="middle" x="25.49389894577544mm" y="125.07914163162289mm">4</text><text rotate="240.0" text-anchor="middle" x="17.873850935055813mm" y="111.88083132094236mm">0</text><line stroke="black" x1="28.626399933745176mm" x2="25.04614849089139mm" y1="115.63104956387403mm" y2="116.93415452026143mm" /><text rotate="250.0" text-anchor="middle" x="27.394367162157977mm" y="132.2976442567865mm">2</text><text rotate="250.0" text-anchor="middle" x="22.181947336608367mm" y="117.97663848537135mm">5</text><text rotate="250.0" text-anchor="middle" x="16.969527511058757mm" y="103.65563271395622mm">0</text><line stroke="black" x1="26.90750256587333mm" x2="23.155361386232357mm" y1="109.21603725397989mm" y2="109.87764097937789mm" /><text rotate="260.0" text-anchor="middle" x="22.80006334411155mm" y="125.41548867826015mm">2</text><text rotate="260.0" text-anchor="middle" x="20.15364844251959mm" y="110.40692395969627mm">6</text><text rotate="260.0" text-anchor="middle" x="17.50723354092763mm" y="95.3983592411324mm">0</text><line stroke="black" x1="26.328674308684903mm" x2="22.51865030332509mm" y1="102.6mm" y2="102.60000000000001mm" /><text rotate="270.0" text-anchor="middle" x="19.47063109903725mm" y="117.84009602143925mm">2</text><text rotate="270.0" text-anchor="middle" x="19.47063109903725mm" y="102.60000000000001mm">7</text><text rotate="270.0" text-anchor="middle" x="19.47063109903725mm" y="87.35990397856077mm">0</text><line stroke="black" x1="26.907502565873322mm" x2="23.15536138623235mm" y1="95.98396274602011mm" y2="95.32235902062212mm" /><text rotate="280.0" text-anchor="middle" x="17.50723354092763mm" y="109.8016407588676mm">2</text><text rotate="280.0" text-anchor="middle" x="20.153648442519582mm" y="94.79307604030373mm">8</text><text rotate="280.0" text-anchor="middle" x="22.800063344111535mm" y="79.78451132173986mm">0</text><line stroke="black" x1="28.626399933745162mm" x2="25.046148490891376mm" y1="89.568950436126mm" y2="88.2658454797386mm" /><text rotate="290.0" text-anchor="middle" x="16.969527511058757mm" y="101.54436728604384mm">2</text><text rotate="290.0" text-anchor="middle" x="22.181947336608353mm" y="87.22336151462869mm">9</text><text rotate="290.0" text-anchor="middle" x="27.39436716215795mm" y="72.90235574321355mm">0</text><line stroke="black" x1="31.433138585581666mm" x2="28.13356100791153mm" y1="83.54987997320094mm" y2="81.64486797052103mm" /><text rotate="300.0" text-anchor="middle" x="17.873850935055806mm" y="93.31916867905764mm">3</text><text rotate="300.0" text-anchor="middle" x="25.493898945775427mm" y="80.1208583683771mm">0</text><text rotate="300.0" text-anchor="middle" x="33.11394695649505mm" y="66.92254805769656mm">0</text><line stroke="black" x1="35.24243718772506mm" x2="32.32378947026927mm" y1="78.10963776746432mm" y2="75.66060154421075mm" /><text rotate="310.0" text-anchor="middle" x="20.192726403290365mm" y="85.37596343543109mm">3</text><text rotate="310.0" text-anchor="middle" x="29.988871296304637mm" y="73.7013725656079mm">1</text><text rotate="310.0" text-anchor="middle" x="39.78501618931891mm" y="62.02678169578473mm">0</text><line stroke="black" x1="39.93855212974733mm" x2="37.48951590649376mm" y1="73.41352282544206mm" y2="70.49487510798627mm" /><text rotate="320.0" text-anchor="middle" x="23.855696058067736mm" y="77.95610182703591mm">3</text><text rotate="320.0" text-anchor="middle" x="35.53028692789091mm" y="68.15995693402164mm">2</text><text rotate="320.0" text-anchor="middle" x="47.20487779771408mm" y="58.363812041007364mm">0</text><line stroke="black" x1="45.37879433548394mm" x2="43.473782332804035mm" y1="69.60422422329867mm" y2="66.30464664562854mm" /><text rotate="330.0" text-anchor="middle" x="28.751462419979575mm" y="71.28503259421205mm">3</text><text rotate="330.0" text-anchor="middle" x="41.94977273066011mm" y="63.664984583492426mm">3</text><text rotate="330.0" text-anchor="middle" x="55.14808304134064mm" y="56.0449365727728mm">0</text><line stroke="black" x1="51.397864798409mm" x2="50.0947598420216mm" y1="66.79748557146215mm" y2="63.21723412860836mm" /><text rotate="340.0" text-anchor="middle" x="34.73127010549655mm" y="65.56545279987495mm">3</text><text rotate="340.0" text-anchor="middle" x="49.052275876911686mm" y="60.35303297432534mm">4</text><text rotate="340.0" text-anchor="middle" x="63.373281648326824mm" y="55.140613148775735mm">0</text><line stroke="black" x1="57.81287710830308mm" x2="57.15127338290508mm" y1="65.07858820359033mm" y2="61.32644702394935mm" /><text rotate="350.0" text-anchor="middle" x="41.613425684022815mm" y="60.971148981828556mm">3</text><text rotate="350.0" text-anchor="middle" x="56.62199040258669mm" y="58.32473408023658mm">5</text><text rotate="350.0" text-anchor="middle" x="71.63055512115055mm" y="55.67831917864461mm">0</text></svg>