<?xml version="1.0" encoding="utf-8" ?>
<svg baseProfile="full" height="89.54503128911139mm" version="1.1" width="60.38500522459678mm" xmlns="http://www.w3.org/2000/svg" xmlns:ev="http://www.w3.org/2001/xml-events" xmlns:xlink="http://www.w3.org/1999/xlink"><defs /><rect fill="white" height="246.419396182" stroke="black" width="143.096471707" x="10.0" y="10.0" /><line stroke="black" x1="10.0" x2="10.0" y1="10.0" y2="19.5397647805" /><line stroke="black" x1="14.7698823902" x2="14.7698823902" y1="10.0" y2="14.7698823902" /><line stroke="black" x1="19.5397647805" x2="19.5397647805" y1="10.0" y2="14.7698823902" /><line stroke="black" x1="24.3096471707" x2="24.3096471707" y1="10.0" y2="14.7698823902" /><line stroke="black" x1="29.079529561" x2="29.079529561" y1="10.0" y2="14.7698823902" /><line stroke="black" x1="33.8494119512" x2="33.8494119512" y1="10.0" y2="17.1548235854" /><line stroke="black" x1="38.6192943415" x2="38.6192943415" y1="10.0" y2="14.7698823902" /><line stroke="black" x1="43.3891767317" x2="43.3891767317" y1="10.0" y2="14.7698823902" /><line stroke="black" x1="48.159059122" x2="48.159059122" y1="10.0" y2="14.7698823902" /><line stroke="black" x1="52.9289415122" x2="52.9289415122" y1="10.0" y2="14.7698823902" /><line stroke="black" x1="57.6988239025" x2="57.6988239025" y1="10.0" y2="19.5397647805" /><line stroke="black" x1="57.6988239025" x2="57.6988239025" y1="256.419396182" y2="246.879631401" /><line stroke="black" x1="52.9289415122" x2="52.9289415122" y1="256.419396182" y2="251.649513792" /><line stroke="black" x1="48.159059122" x2="48.159059122" y1="256.419396182" y2="251.649513792" /><line stroke="black" x1="43.3891767317" x2="43.3891767317" y1="256.419396182" y2="251.649513792" /><line stroke="black" x1="38.6192943415" x2="38.6192943415" y1="256.419396182" y2="251.649513792" /><line stroke="black" x1="33.8494119512" x2="33.8494119512" y1="256.419396182" y2="249.264572597" /><line stroke="black" x1="29.079529561" x2="29.079529561" y1="256.419396182" y2="251.649513792" /><line stroke="black" x1="24.3096471707" x2="24.3096471707" y1="256.419396182" y2="251.649513792" /><line stroke="black" x1="19.5397647805" x2="19.5397647805" y1="256.419396182" y2="251.649513792" /><line stroke="black" x1="14.7698823902" x2="14.7698823902" y1="256.419396182" y2="251.649513792" /><line stroke="black" x1="10.0" x2="10.0" y1="256.419396182" y2="246.879631401" /><line stroke="black" x1="57.6988239025" x2="57.6988239025" y1="10.0" y2="19.5397647805" /><line stroke="black" x1="62.4687062927" x2="62.4687062927" y1="10.0" y2="14.7698823902" /><line stroke="black" x1="67.2385886829" x2="67.2385886829" y1="10.0" y2="14.7698823902" /><line stroke="black" x1="72.0084710732" x2="72.0084710732" y1="10.0" y2="14.7698823902" /><line stroke="black" x1="76.7783534634" x2="76.7783534634" y1="10.0" y2="14.7698823902" /><line stroke="black" x1="81.5482358537" x2="81.5482358537" y1="10.0" y2="17.1548235854" /><line stroke="black" x1="86.3181182439" x2="86.3181182439" y1="10.0" y2="14.7698823902" /><line stroke="black" x1="91.0880006342" x2="91.0880006342" y1="10.0" y2="14.7698823902" /><line stroke="black" x1="95.8578830244" x2="95.8578830244" y1="10.0" y2="14.7698823902" /><line stroke="black" x1="100.627765415" x2="100.627765415" y1="10.0" y2="14.7698823902" /><line stroke="black" x1="105.397647805" x2="105.397647805" y1="10.0" y2="19.5397647805" /><line stroke="black" x1="105.397647805" x2="105.397647805" y1="256.419396182" y2="246.879631401" /><line stroke="black" x1="100.627765415" x2="100.627765415" y1="256.419396182" y2="251.649513792" /><line stroke="black" x1="95.8578830244" x2="95.8578830244" y1="256.419396182" y2="251.649513792" /><line stroke="black" x1="91.0880006342" x2="91.0880006342" y1="256.419396182" y2="251.649513792" /><line stroke="black" x1="86.3181182439" x2="86.3181182439" y1="256.419396182" y2="251.649513792" /><line stroke="black" x1="81.5482358537" x2="81.5482358537" y1="256.419396182" y2="249.264572597" /><line stroke="black" x1="76.7783534634" x2="76.7783534634" y1="256.419396182" y2="251.649513792" /><line stroke="black" x1="72.0084710732" x2="72.0084710732" y1="256.419396182" y2="251.649513792" /><line stroke="black" x1="67.2385886829" x2="67.2385886829" y1="256.419396182" y2="251.649513792" /><line stroke="black" x1="62.4687062927" x2="62.4687062927" y1="256.419396182" y2="251.649513792" /><line stroke="black" x1="57.6988239025" x2="57.6988239025" y1="256.419396182" y2="246.879631401" /><line stroke="black" x1="105.397647805" x2="105.397647805" y1="10.0" y2="19.5397647805" /><line stroke="black" x1="110.167530195" x2="110.167530195" y1="10.0" y2="14.7698823902" /><line stroke="black" x1="114.937412585" x2="114.937412585" y1="10.0" y2="14.7698823902" /><line stroke="black" x1="119.707294976" x2="119.707294976" y1="10.0" y2="14.7698823902" /><line stroke="black" x1="124.477177366" x2="124.477177366" y1="10.0" y2="14.7698823902" /><line stroke="black" x1="129.247059756" x2="129.247059756" y1="10.0" y2="17.1548235854" /><line stroke="black" x1="134.016942146" x2="134.016942146" y1="10.0" y2="14.7698823902" /><line stroke="black" x1="138.786824537" x2="138.786824537" y1="10.0" y2="14.7698823902" /><line stroke="black" x1="143.556706927" x2="143.556706927" y1="10.0" y2="14.7698823902" /><line stroke="black" x1="148.326589317" x2="148.326589317" y1="10.0" y2="14.7698823902" /><line stroke="black" x1="153.096471707" x2="153.096471707" y1="10.0" y2="19.5397647805" /><line stroke="black" x1="153.096471707" x2="153.096471707" y1="256.419396182" y2="246.879631401" /><line stroke="black" x1="148.326589317" x2="148.326589317" y1="256.419396182" y2="251.649513792" /><line stroke="black" x1="143.556706927" x2="143.556706927" y1="256.419396182" y2="251.649513792" /><line stroke="black" x1="138.786824537" x2="138.786824537" y1="256.419396182" y2="251.649513792" /><line stroke="black" x1="134.016942146" x2="134.016942146" y1="256.419396182" y2="251.649513792" /><line stroke="black" x1="129.247059756" x2="129.247059756" y1="256.419396182" y2="249.264572597" /><line stroke="black" x1="124.477177366" x2="124.477177366" y1="256.419396182" y2="251.649513792" /><line stroke="black" x1="119.707294976" x2="119.707294976" y1="256.419396182" y2="251.649513792" /><line stroke="black" x1="114.937412585" x2="114.937412585" y1="256.419396182" y2="251.649513792" /><line stroke="black" x1="110.167530195" x2="110.167530195" y1="256.419396182" y2="251.649513792" /><line stroke="black" x1="105.397647805" x2="105.397647805" y1="256.419396182" y2="246.879631401" /><line stroke="black" x1="153.096471707" x2="136.668511962" y1="10.0" y2="10.0" /><line stroke="black" x1="153.096471707" x2="144.882491835" y1="18.2139798727" y2="18.2139798727" /><line stroke="black" x1="153.096471707" x2="144.882491835" y1="26.4279597455" y2="26.4279597455" /><line stroke="black" x1="153.096471707" x2="144.882491835" y1="34.6419396182" y2="34.6419396182" /><line stroke="black" x1="153.096471707" x2="144.882491835" y1="42.8559194909" y2="42.8559194909" /><line stroke="black" x1="153.096471707" x2="140.775501898" y1="51.0698993637" y2="51.0698993637" /><line stroke="black" x1="153.096471707" x2="144.882491835" y1="59.2838792364" y2="59.2838792364" /><line stroke="black" x1="153.096471707" x2="144.882491835" y1="67.4978591091" y2="67.4978591091" /><line stroke="black" x1="153.096471707" x2="144.882491835" y1="75.7118389818" y2="75.7118389818" /><line stroke="black" x1="153.096471707" x2="144.882491835" y1="83.9258188546" y2="83.9258188546" /><line stroke="black" x1="153.096471707" x2="136.668511962" y1="92.1397987273" y2="92.1397987273" /><line stroke="black" x1="10.0" x2="26.4279597455" y1="92.1397987273" y2="92.1397987273" /><line stroke="black" x1="10.0" x2="18.2139798727" y1="83.9258188546" y2="83.9258188546" /><line stroke="black" x1="10.0" x2="18.2139798727" y1="75.7118389818" y2="75.7118389818" /><line stroke="black" x1="10.0" x2="18.2139798727" y1="67.4978591091" y2="67.4978591091" /><line stroke="black" x1="10.0" x2="18.2139798727" y1="59.2838792364" y2="59.2838792364" /><line stroke="black" x1="10.0" x2="22.3209698091" y1="51.0698993637" y2="51.0698993637" /><line stroke="black" x1="10.0" x2="18.2139798727" y1="42.8559194909" y2="42.8559194909" /><line stroke="black" x1="10.0" x2="18.2139798727" y1="34.6419396182" y2="34.6419396182" /><line stroke="black" x1="10.0" x2="18.2139798727" y1="26.4279597455" y2="26.4279597455" /><line stroke="black" x1="10.0" x2="18.2139798727" y1="18.2139798727" y2="18.2139798727" /><line stroke="black" x1="10.0" x2="26.4279597455" y1="10.0" y2="10.0" /><line stroke="black" x1="153.096471707" x2="136.668511962" y1="92.1397987273" y2="92.1397987273" /><line stroke="black" x1="153.096471707" x2="144.882491835" y1="100.3537786" y2="100.3537786" /><line stroke="black" x1="153.096471707" x2="144.882491835" y1="108.567758473" y2="108.567758473" /><line stroke="black" x1="153.096471707" x2="144.882491835" y1="116.781738346" y2="116.781738346" /><line stroke="black" x1="153.096471707" x2="144.882491835" y1="124.995718218" y2="124.995718218" /><line stroke="black" x1="153.096471707" x2="140.775501898" y1="133.209698091" y2="133.209698091" /><line stroke="black" x1="153.096471707" x2="144.882491835" y1="141.423677964" y2="141.423677964" /><line stroke="black" x1="153.096471707" x2="144.882491835" y1="149.637657836" y2="149.637657836" /><line stroke="black" x1="153.096471707" x2="144.882491835" y1="157.851637709" y2="157.851637709" /><line stroke="black" x1="153.096471707" x2="144.882491835" y1="166.065617582" y2="166.065617582" /><line stroke="black" x1="153.096471707" x2="136.668511962" y1="174.279597455" y2="174.279597455" /><line stroke="black" x1="10.0" x2="26.4279597455" y1="174.279597455" y2="174.279597455" /><line stroke="black" x1="10.0" x2="18.2139798727" y1="166.065617582" y2="166.065617582" /><line stroke="black" x1="10.0" x2="18.2139798727" y1="157.851637709" y2="157.851637709" /><line stroke="black" x1="10.0" x2="18.2139798727" y1="149.637657836" y2="149.637657836" /><line stroke="black" x1="10.0" x2="18.2139798727" y1="141.423677964" y2="141.423677964" /><line stroke="black" x1="10.0" x2="22.3209698091" y1="133.209698091" y2="133.209698091" /><line stroke="black" x1="10.0" x2="18.2139798727" y1="124.995718218" y2="124.995718218" /><line stroke="black" x1="10.0" x2="18.2139798727" y1="116.781738346" y2="116.781738346" /><line stroke="black" x1="10.0" x2="18.2139798727" y1="108.567758473" y2="108.567758473" /><line stroke="black" x1="10.0" x2="18.2139798727" y1="100.3537786" y2="100.3537786" /><line stroke="black" x1="10.0" x2="26.4279597455" y1="92.1397987273" y2="92.1397987273" /><line stroke="black" x1="153.096471707" x2="136.668511962" y1="174.279597455" y2="174.279597455" /><line stroke="black" x1="153.096471707" x2="144.882491835" y1="182.493577327" y2="182.493577327" /><line stroke="black" x1="153.096471707" x2="144.882491835" y1="190.7075572" y2="190.7075572" /><line stroke="black" x1="153.096471707" x2="144.882491835" y1="198.921537073" y2="198.921537073" /><line stroke="black" x1="153.096471707" x2="144.882491835" y1="207.135516946" y2="207.135516946" /><line stroke="black" x1="153.096471707" x2="140.775501898" y1="215.349496818" y2="215.349496818" /><line stroke="black" x1="153.096471707" x2="144.882491835" y1="223.563476691" y2="223.563476691" /><line stroke="black" x1="153.096471707" x2="144.882491835" y1="231.777456564" y2="231.777456564" /><line stroke="black" x1="153.096471707" x2="144.882491835" y1="239.991436436" y2="239.991436436" /><line stroke="black" x1="153.096471707" x2="144.882491835" y1="248.205416309" y2="248.205416309" /><line stroke="black" x1="153.096471707" x2="136.668511962" y1="256.419396182" y2="256.419396182" /><line stroke="black" x1="10.0" x2="26.4279597455" y1="256.419396182" y2="256.419396182" /><line stroke="black" x1="10.0" x2="18.2139798727" y1="248.205416309" y2="248.205416309" /><line stroke="black" x1="10.0" x2="18.2139798727" y1="239.991436436" y2="239.991436436" /><line stroke="black" x1="10.0" x2="18.2139798727" y1="231.777456564" y2="231.777456564" /><line stroke="black" x1="10.0" x2="18.2139798727" y1="223.563476691" y2="223.563476691" /><line stroke="black" x1="10.0" x2="22.3209698091" y1="215.349496818" y2="215.349496818" /><line stroke="black" x1="10.0" x2="18.2139798727" y1="207.135516946" y2="207.135516946" /><line stroke="black" x1="10.0" x2="18.2139798727" y1="198.921537073" y2="198.921537073" /><line stroke="black" x1="10.0" x2="18.2139798727" y1="190.7075572" y2="190.7075572" /><line stroke="black" x1="10.0" x2="18.2139798727" y1="182.493577327" y2="182.493577327" /><line stroke="black" x1="10.0" x2="26.4279597455" y1="174.279597455" y2="174.279597455" /><line stroke="black" x1="10.0" x2="153.096471707" y1="92.1397987273" y2="92.1397987273" /><line stroke="black" x1="10.0" x2="153.096471707" y1="174.279597455" y2="174.279597455" /><line stroke="black" x1="57.6988239025" x2="57.6988239025" y1="10.0" y2="256.419396182" /><line stroke="black" x1="105.397647805" x2="105.397647805" y1="10.0" y2="256.419396182" /><circle cx="81.5482358537" cy="133.209698091" fill="none" r="50.083765097572616" stroke="black" /><line stroke="black" x1="83.5581871238" x2="83.7591822508" y1="83.1662807192" y2="78.1619389821" /><text font-size="0.08" text-anchor="middle" transform="matrix(50.04 2.01 -2.01 50.04 81.55 133.21)" x="0.0" y="-1.12">000</text><line stroke="black" x1="92.2175996785" x2="93.284536061" y1="84.2755770513" y2="79.3821649474" /><text font-size="0.08" text-anchor="middle" transform="matrix(48.93 10.67 -10.67 48.93 81.55 133.21)" x="0.0" y="-1.12">010</text><line stroke="black" x1="100.552829012" x2="102.453288328" y1="86.8717118893" y2="82.2379132692" /><text font-size="0.08" text-anchor="middle" transform="matrix(46.34 19.00 -19.00 46.34 81.55 133.21)" x="0.0" y="-1.12">020</text><line stroke="black" x1="108.3106134" x2="110.986851154" y1="90.8758029899" y2="86.6424134798" /><text font-size="0.08" text-anchor="middle" transform="matrix(42.33 26.76 -26.76 42.33 81.55 133.21)" x="0.0" y="-1.12">030</text><line stroke="black" x1="115.255236488" x2="118.625936551" y1="96.1661880712" y2="92.4618370692" /><text font-size="0.08" text-anchor="middle" transform="matrix(37.04 33.71 -33.71 37.04 81.55 133.21)" x="0.0" y="-1.12">040</text><line stroke="black" x1="121.175689418" x2="125.138434775" y1="102.582121459" y2="99.5193637963" /><text font-size="0.08" text-anchor="middle" transform="matrix(30.63 39.63 -39.63 30.63 81.55 133.21)" x="0.0" y="-1.12">050</text><line stroke="black" x1="125.892082225" x2="130.326466862" y1="109.928658265" y2="107.600554283" /><text font-size="0.08" text-anchor="middle" transform="matrix(23.28 44.34 -44.34 23.28 81.55 133.21)" x="0.0" y="-1.12">060</text><line stroke="black" x1="129.261109698" x2="134.032397083" y1="117.982577686" y2="116.459865645" /><text font-size="0.08" text-anchor="middle" transform="matrix(15.23 47.71 -47.71 15.23 81.55 133.21)" x="0.0" y="-1.12">070</text><line stroke="black" x1="131.180405644" x2="136.143622623" y1="126.499165454" y2="125.82811219" /><text font-size="0.08" text-anchor="middle" transform="matrix(6.71 49.63 -49.63 6.71 81.55 133.21)" x="0.0" y="-1.12">080</text><line stroke="black" x1="131.591653225" x2="136.595994963" y1="135.219649361" y2="135.420644488" /><text font-size="0.08" text-anchor="middle" transform="matrix(-2.01 50.04 -50.04 -2.01 81.55 133.21)" x="0.0" y="-1.12">090</text><line stroke="black" x1="130.482356893" x2="135.375768997" y1="143.879061916" y2="144.945998298" /><text font-size="0.08" text-anchor="middle" transform="matrix(-10.67 48.93 -48.93 -10.67 81.55 133.21)" x="0.0" y="-1.12">100</text><line stroke="black" x1="127.886222055" x2="132.520020675" y1="152.21429125" y2="154.114750566" /><text font-size="0.08" text-anchor="middle" transform="matrix(-19.00 46.34 -46.34 -19.00 81.55 133.21)" x="0.0" y="-1.12">110</text><line stroke="black" x1="123.882130955" x2="128.115520465" y1="159.972075637" y2="162.648313392" /><text font-size="0.08" text-anchor="middle" transform="matrix(-26.76 42.33 -42.33 -26.76 81.55 133.21)" x="0.0" y="-1.12">120</text><line stroke="black" x1="118.591745873" x2="122.296096875" y1="166.916698725" y2="170.287398789" /><text font-size="0.08" text-anchor="middle" transform="matrix(-33.71 37.04 -37.04 -33.71 81.55 133.21)" x="0.0" y="-1.12">130</text><line stroke="black" x1="112.175812485" x2="115.238570148" y1="172.837151656" y2="176.799897012" /><text font-size="0.08" text-anchor="middle" transform="matrix(-39.63 30.63 -30.63 -39.63 81.55 133.21)" x="0.0" y="-1.12">140</text><line stroke="black" x1="104.829275679" x2="107.157379662" y1="177.553544462" y2="181.987929099" /><text font-size="0.08" text-anchor="middle" transform="matrix(-44.34 23.28 -23.28 -44.34 81.55 133.21)" x="0.0" y="-1.12">150</text><line stroke="black" x1="96.775356259" x2="98.2980682995" y1="180.922571936" y2="185.69385932" /><text font-size="0.08" text-anchor="middle" transform="matrix(-47.71 15.23 -15.23 -47.71 81.55 133.21)" x="0.0" y="-1.12">160</text><line stroke="black" x1="88.2587684905" x2="88.9298217542" y1="182.841867881" y2="187.80508486" /><text font-size="0.08" text-anchor="middle" transform="matrix(-49.63 6.71 -6.71 -49.63 81.55 133.21)" x="0.0" y="-1.12">170</text><line stroke="black" x1="79.5382845835" x2="79.3372894565" y1="183.253115463" y2="188.2574572" /><text font-size="0.08" text-anchor="middle" transform="matrix(-50.04 -2.01 2.01 -50.04 81.55 133.21)" x="0.0" y="-1.12">180</text><line stroke="black" x1="70.8788720288" x2="69.8119356463" y1="182.143819131" y2="187.037231235" /><text font-size="0.08" text-anchor="middle" transform="matrix(-48.93 -10.67 10.67 -48.93 81.55 133.21)" x="0.0" y="-1.12">190</text><line stroke="black" x1="62.543642695" x2="60.6431833791" y1="179.547684293" y2="184.181482913" /><text font-size="0.08" text-anchor="middle" transform="matrix(-46.34 -19.00 19.00 -46.34 81.55 133.21)" x="0.0" y="-1.12">200</text><line stroke="black" x1="54.7858583075" x2="52.1096205529" y1="175.543593192" y2="179.776982702" /><text font-size="0.08" text-anchor="middle" transform="matrix(-42.33 -26.76 26.76 -42.33 81.55 133.21)" x="0.0" y="-1.12">210</text><line stroke="black" x1="47.8412352193" x2="44.4705351559" y1="170.253208111" y2="173.957559113" /><text font-size="0.08" text-anchor="middle" transform="matrix(-37.04 -33.71 33.71 -37.04 81.55 133.21)" x="0.0" y="-1.12">220</text><line stroke="black" x1="41.9207822889" x2="37.9580369324" y1="163.837274722" y2="166.900032386" /><text font-size="0.08" text-anchor="middle" transform="matrix(-30.63 -39.63 39.63 -30.63 81.55 133.21)" x="0.0" y="-1.12">230</text><line stroke="black" x1="37.2043894825" x2="32.7700048454" y1="156.490737917" y2="158.818841899" /><text font-size="0.08" text-anchor="middle" transform="matrix(-23.28 -44.34 44.34 -23.28 81.55 133.21)" x="0.0" y="-1.12">240</text><line stroke="black" x1="33.8353620091" x2="29.0640746246" y1="148.436818496" y2="149.959530537" /><text font-size="0.08" text-anchor="middle" transform="matrix(-15.23 -47.71 47.71 -15.23 81.55 133.21)" x="0.0" y="-1.12">250</text><line stroke="black" x1="31.9160660635" x2="26.9528490845" y1="139.920230728" y2="140.591283991" /><text font-size="0.08" text-anchor="middle" transform="matrix(-6.71 -49.63 49.63 -6.71 81.55 133.21)" x="0.0" y="-1.12">260</text><line stroke="black" x1="31.504818482" x2="26.5004767448" y1="131.199746821" y2="130.998751694" /><text font-size="0.08" text-anchor="middle" transform="matrix(2.01 -50.04 50.04 2.01 81.55 133.21)" x="0.0" y="-1.12">270</text><line stroke="black" x1="32.614114814" x2="27.7207027101" y1="122.540334266" y2="121.473397884" /><text font-size="0.08" text-anchor="middle" transform="matrix(10.67 -48.93 48.93 10.67 81.55 133.21)" x="0.0" y="-1.12">280</text><line stroke="black" x1="35.2102496521" x2="30.5764510319" y1="114.205104932" y2="112.304645616" /><text font-size="0.08" text-anchor="middle" transform="matrix(19.00 -46.34 46.34 19.00 81.55 133.21)" x="0.0" y="-1.12">290</text><line stroke="black" x1="39.2143407526" x2="34.9809512425" y1="106.447320545" y2="103.77108279" /><text font-size="0.08" text-anchor="middle" transform="matrix(26.76 -42.33 42.33 26.76 81.55 133.21)" x="0.0" y="-1.12">300</text><line stroke="black" x1="44.5047258339" x2="40.8003748319" y1="99.5026974566" y2="96.1319973932" /><text font-size="0.08" text-anchor="middle" transform="matrix(33.71 -37.04 37.04 33.71 81.55 133.21)" x="0.0" y="-1.12">310</text><line stroke="black" x1="50.9206592222" x2="47.857901559" y1="93.5822445261" y2="89.6194991697" /><text font-size="0.08" text-anchor="middle" transform="matrix(39.63 -30.63 30.63 39.63 81.55 133.21)" x="0.0" y="-1.12">320</text><line stroke="black" x1="58.2671960281" x2="55.9390920456" y1="88.8658517198" y2="84.4314670827" /><text font-size="0.08" text-anchor="middle" transform="matrix(44.34 -23.28 23.28 44.34 81.55 133.21)" x="0.0" y="-1.12">330</text><line stroke="black" x1="66.3211154484" x2="64.7984034079" y1="85.4968242464" y2="80.7255368619" /><text font-size="0.08" text-anchor="middle" transform="matrix(47.71 -15.23 15.23 47.71 81.55 133.21)" x="0.0" y="-1.12">340</text><line stroke="black" x1="74.8377032169" x2="74.1666499532" y1="83.5775283008" y2="78.6143113218" /><text font-size="0.08" text-anchor="middle" transform="matrix(49.63 -6.71 6.71 49.63 81.55 133.21)" x="0.0" y="-1.12">350</text><line stroke="black" x1="83.3571919968" x2="79.7392797105" y1="88.1706224564" y2="178.248773726" /><line stroke="black" x1="36.5091602191" x2="126.587311488" y1="131.400741948" y2="135.018654234" /><text font-size="0.09" font-weight="bold" text-anchor="middle" transform="matrix(45.04 1.81 -1.81 45.04 81.55 133.21)" x="0.0" y="-1.4">N</text><circle cx="81.5482358537" cy="133.209698091" fill="none" r="7.086614" stroke="black" /><circle cx="10.0" cy="10.0" fill="none" r="7.086614" stroke="black" /><circle cx="10.0" cy="256.419396182" fill="none" r="7.086614" stroke="black" /><circle cx="153.096471707" cy="10.0" fill="none" r="7.086614" stroke="black" /><circle cx="153.096471707" cy="256.419396182" fill="none" r="7.086614" stroke="black" /><line stroke="black" x1="0.19250261229839083mm" x2="50.19250261229839mm" y1="79.54503128911139mm" y2="79.54503128911139mm" /><line stroke="black" x1="0.19250261229839083mm" x2="0.19250261229839083mm" y1="77.54503128911139mm" y2="81.54503128911139mm" /><line stroke="black" x1="50.19250261229839mm" x2="50.19250261229839mm" y1="77.54503128911139mm" y2="81.54503128911139mm" /><text font-size="9" text-anchor="middle" x="89.26477085367517" y="274.7658521819274">5cm</text><text font-size="1.4267834793491865mm" text-anchor="middle" x="20.19250261229839mm" y="57.137902377972466mm">Maßstab: 1:79900</text><text font-size="1.4267834793491865mm" text-anchor="middle" x="20.19250261229839mm" y="58.639779724655824mm">54°N</text><text font-size="1.4267834793491865mm" text-anchor="middle" x="20.19250261229839mm" y="60.141657071339175mm">Missweisung: 2.3°</text><image height="5.292991368433046mm" preserveAspectRatio="xMidYMid meet" width="8.751079062475968mm" x="15.816963081060408mm" xlink:href="file:///c:\Users\tiger\Documents\Benches\PyBench\pygpsplot\Wimpelh150.jpg" y="7.7852590091501845mm" /><text font-size="1.4267834793491865mm" text-anchor="middle" x="20.19250261229839mm" y="14.580127724266585mm">Essener-Faltboot-Fahrer e.V.</text></svg>