<?xml version="1.0" encoding="utf-8" ?>
<svg baseProfile="full" height="100%" version="1.1" width="100%" xmlns="http://www.w3.org/2000/svg" xmlns:ev="http://www.w3.org/2001/xml-events" xmlns:xlink="http://www.w3.org/1999/xlink"><defs /><rect fill="white" height="185.2mm" stroke="black" width="108.85782872456602mm" x="10.0mm" y="10.0mm" /><line stroke="black" x1="10.0mm" x2="10.0mm" y1="10.0mm" y2="14.35431314898264mm" /><line stroke="black" x1="12.17715657449132mm" x2="12.17715657449132mm" y1="10.0mm" y2="12.17715657449132mm" /><line stroke="black" x1="14.35431314898264mm" x2="14.35431314898264mm" y1="10.0mm" y2="12.17715657449132mm" /><line stroke="black" x1="16.53146972347396mm" x2="16.53146972347396mm" y1="10.0mm" y2="12.17715657449132mm" /><line stroke="black" x1="18.70862629796528mm" x2="18.70862629796528mm" y1="10.0mm" y2="12.17715657449132mm" /><line stroke="black" x1="20.885782872456602mm" x2="20.885782872456602mm" y1="10.0mm" y2="13.26573486173698mm" /><line stroke="black" x1="23.062939446947922mm" x2="23.062939446947922mm" y1="10.0mm" y2="12.17715657449132mm" /><line stroke="black" x1="25.240096021439243mm" x2="25.240096021439243mm" y1="10.0mm" y2="12.17715657449132mm" /><line stroke="black" x1="27.417252595930563mm" x2="27.417252595930563mm" y1="10.0mm" y2="12.17715657449132mm" /><line stroke="black" x1="29.594409170421883mm" x2="29.594409170421883mm" y1="10.0mm" y2="12.17715657449132mm" /><line stroke="black" x1="31.771565744913204mm" x2="31.771565744913204mm" y1="10.0mm" y2="14.35431314898264mm" /><line stroke="black" x1="31.771565744913204mm" x2="31.771565744913204mm" y1="195.2mm" y2="190.84568685101735mm" /><line stroke="black" x1="29.594409170421883mm" x2="29.594409170421883mm" y1="195.2mm" y2="193.02284342550865mm" /><line stroke="black" x1="27.417252595930563mm" x2="27.417252595930563mm" y1="195.2mm" y2="193.02284342550865mm" /><line stroke="black" x1="25.240096021439243mm" x2="25.240096021439243mm" y1="195.2mm" y2="193.02284342550865mm" /><line stroke="black" x1="23.062939446947922mm" x2="23.062939446947922mm" y1="195.2mm" y2="193.02284342550865mm" /><line stroke="black" x1="20.885782872456602mm" x2="20.885782872456602mm" y1="195.2mm" y2="191.93426513826302mm" /><line stroke="black" x1="18.70862629796528mm" x2="18.70862629796528mm" y1="195.2mm" y2="193.02284342550865mm" /><line stroke="black" x1="16.53146972347396mm" x2="16.53146972347396mm" y1="195.2mm" y2="193.02284342550865mm" /><line stroke="black" x1="14.35431314898264mm" x2="14.35431314898264mm" y1="195.2mm" y2="193.02284342550865mm" /><line stroke="black" x1="12.17715657449132mm" x2="12.17715657449132mm" y1="195.2mm" y2="193.02284342550865mm" /><line stroke="black" x1="10.0mm" x2="10.0mm" y1="195.2mm" y2="190.84568685101735mm" /><line stroke="black" x1="31.771565744913204mm" x2="31.771565744913204mm" y1="10.0mm" y2="14.35431314898264mm" /><line stroke="black" x1="33.948722319404524mm" x2="33.948722319404524mm" y1="10.0mm" y2="12.17715657449132mm" /><line stroke="black" x1="36.125878893895845mm" x2="36.125878893895845mm" y1="10.0mm" y2="12.17715657449132mm" /><line stroke="black" x1="38.303035468387165mm" x2="38.303035468387165mm" y1="10.0mm" y2="12.17715657449132mm" /><line stroke="black" x1="40.480192042878485mm" x2="40.480192042878485mm" y1="10.0mm" y2="12.17715657449132mm" /><line stroke="black" x1="42.657348617369806mm" x2="42.657348617369806mm" y1="10.0mm" y2="13.26573486173698mm" /><line stroke="black" x1="44.834505191861126mm" x2="44.834505191861126mm" y1="10.0mm" y2="12.17715657449132mm" /><line stroke="black" x1="47.01166176635245mm" x2="47.01166176635245mm" y1="10.0mm" y2="12.17715657449132mm" /><line stroke="black" x1="49.18881834084377mm" x2="49.18881834084377mm" y1="10.0mm" y2="12.17715657449132mm" /><line stroke="black" x1="51.36597491533509mm" x2="51.36597491533509mm" y1="10.0mm" y2="12.17715657449132mm" /><line stroke="black" x1="53.54313148982641mm" x2="53.54313148982641mm" y1="10.0mm" y2="14.35431314898264mm" /><line stroke="black" x1="53.54313148982641mm" x2="53.54313148982641mm" y1="195.2mm" y2="190.84568685101735mm" /><line stroke="black" x1="51.36597491533509mm" x2="51.36597491533509mm" y1="195.2mm" y2="193.02284342550865mm" /><line stroke="black" x1="49.18881834084377mm" x2="49.18881834084377mm" y1="195.2mm" y2="193.02284342550865mm" /><line stroke="black" x1="47.01166176635245mm" x2="47.01166176635245mm" y1="195.2mm" y2="193.02284342550865mm" /><line stroke="black" x1="44.834505191861126mm" x2="44.834505191861126mm" y1="195.2mm" y2="193.02284342550865mm" /><line stroke="black" x1="42.657348617369806mm" x2="42.657348617369806mm" y1="195.2mm" y2="191.93426513826302mm" /><line stroke="black" x1="40.480192042878485mm" x2="40.480192042878485mm" y1="195.2mm" y2="193.02284342550865mm" /><line stroke="black" x1="38.303035468387165mm" x2="38.303035468387165mm" y1="195.2mm" y2="193.02284342550865mm" /><line stroke="black" x1="36.125878893895845mm" x2="36.125878893895845mm" y1="195.2mm" y2="193.02284342550865mm" /><line stroke="black" x1="33.948722319404524mm" x2="33.948722319404524mm" y1="195.2mm" y2="193.02284342550865mm" /><line stroke="black" x1="31.771565744913204mm" x2="31.771565744913204mm" y1="195.2mm" y2="190.84568685101735mm" /><line stroke="black" x1="53.54313148982641mm" x2="53.54313148982641mm" y1="10.0mm" y2="14.35431314898264mm" /><line stroke="black" x1="55.72028806431773mm" x2="55.72028806431773mm" y1="10.0mm" y2="12.17715657449132mm" /><line stroke="black" x1="57.89744463880905mm" x2="57.89744463880905mm" y1="10.0mm" y2="12.17715657449132mm" /><line stroke="black" x1="60.07460121330037mm" x2="60.07460121330037mm" y1="10.0mm" y2="12.17715657449132mm" /><line stroke="black" x1="62.25175778779169mm" x2="62.25175778779169mm" y1="10.0mm" y2="12.17715657449132mm" /><line stroke="black" x1="64.42891436228301mm" x2="64.42891436228301mm" y1="10.0mm" y2="13.26573486173698mm" /><line stroke="black" x1="66.60607093677433mm" x2="66.60607093677433mm" y1="10.0mm" y2="12.17715657449132mm" /><line stroke="black" x1="68.78322751126565mm" x2="68.78322751126565mm" y1="10.0mm" y2="12.17715657449132mm" /><line stroke="black" x1="70.96038408575697mm" x2="70.96038408575697mm" y1="10.0mm" y2="12.17715657449132mm" /><line stroke="black" x1="73.13754066024829mm" x2="73.13754066024829mm" y1="10.0mm" y2="12.17715657449132mm" /><line stroke="black" x1="75.31469723473961mm" x2="75.31469723473961mm" y1="10.0mm" y2="14.35431314898264mm" /><line stroke="black" x1="75.31469723473961mm" x2="75.31469723473961mm" y1="195.2mm" y2="190.84568685101735mm" /><line stroke="black" x1="73.13754066024829mm" x2="73.13754066024829mm" y1="195.2mm" y2="193.02284342550865mm" /><line stroke="black" x1="70.96038408575697mm" x2="70.96038408575697mm" y1="195.2mm" y2="193.02284342550865mm" /><line stroke="black" x1="68.78322751126565mm" x2="68.78322751126565mm" y1="195.2mm" y2="193.02284342550865mm" /><line stroke="black" x1="66.60607093677433mm" x2="66.60607093677433mm" y1="195.2mm" y2="193.02284342550865mm" /><line stroke="black" x1="64.42891436228301mm" x2="64.42891436228301mm" y1="195.2mm" y2="191.93426513826302mm" /><line stroke="black" x1="62.25175778779169mm" x2="62.25175778779169mm" y1="195.2mm" y2="193.02284342550865mm" /><line stroke="black" x1="60.07460121330037mm" x2="60.07460121330037mm" y1="195.2mm" y2="193.02284342550865mm" /><line stroke="black" x1="57.89744463880905mm" x2="57.89744463880905mm" y1="195.2mm" y2="193.02284342550865mm" /><line stroke="black" x1="55.72028806431773mm" x2="55.72028806431773mm" y1="195.2mm" y2="193.02284342550865mm" /><line stroke="black" x1="53.54313148982641mm" x2="53.54313148982641mm" y1="195.2mm" y2="190.84568685101735mm" /><line stroke="black" x1="75.31469723473961mm" x2="75.31469723473961mm" y1="10.0mm" y2="14.35431314898264mm" /><line stroke="black" x1="77.49185380923093mm" x2="77.49185380923093mm" y1="10.0mm" y2="12.17715657449132mm" /><line stroke="black" x1="79.66901038372225mm" x2="79.66901038372225mm" y1="10.0mm" y2="12.17715657449132mm" /><line stroke="black" x1="81.84616695821357mm" x2="81.84616695821357mm" y1="10.0mm" y2="12.17715657449132mm" /><line stroke="black" x1="84.0233235327049mm" x2="84.0233235327049mm" y1="10.0mm" y2="12.17715657449132mm" /><line stroke="black" x1="86.20048010719621mm" x2="86.20048010719621mm" y1="10.0mm" y2="13.26573486173698mm" /><line stroke="black" x1="88.37763668168753mm" x2="88.37763668168753mm" y1="10.0mm" y2="12.17715657449132mm" /><line stroke="black" x1="90.55479325617885mm" x2="90.55479325617885mm" y1="10.0mm" y2="12.17715657449132mm" /><line stroke="black" x1="92.73194983067017mm" x2="92.73194983067017mm" y1="10.0mm" y2="12.17715657449132mm" /><line stroke="black" x1="94.9091064051615mm" x2="94.9091064051615mm" y1="10.0mm" y2="12.17715657449132mm" /><line stroke="black" x1="97.08626297965282mm" x2="97.08626297965282mm" y1="10.0mm" y2="14.35431314898264mm" /><line stroke="black" x1="97.08626297965282mm" x2="97.08626297965282mm" y1="195.2mm" y2="190.84568685101735mm" /><line stroke="black" x1="94.9091064051615mm" x2="94.9091064051615mm" y1="195.2mm" y2="193.02284342550865mm" /><line stroke="black" x1="92.73194983067017mm" x2="92.73194983067017mm" y1="195.2mm" y2="193.02284342550865mm" /><line stroke="black" x1="90.55479325617885mm" x2="90.55479325617885mm" y1="195.2mm" y2="193.02284342550865mm" /><line stroke="black" x1="88.37763668168753mm" x2="88.37763668168753mm" y1="195.2mm" y2="193.02284342550865mm" /><line stroke="black" x1="86.20048010719621mm" x2="86.20048010719621mm" y1="195.2mm" y2="191.93426513826302mm" /><line stroke="black" x1="84.0233235327049mm" x2="84.0233235327049mm" y1="195.2mm" y2="193.02284342550865mm" /><line stroke="black" x1="81.84616695821357mm" x2="81.84616695821357mm" y1="195.2mm" y2="193.02284342550865mm" /><line stroke="black" x1="79.66901038372225mm" x2="79.66901038372225mm" y1="195.2mm" y2="193.02284342550865mm" /><line stroke="black" x1="77.49185380923093mm" x2="77.49185380923093mm" y1="195.2mm" y2="193.02284342550865mm" /><line stroke="black" x1="75.31469723473961mm" x2="75.31469723473961mm" y1="195.2mm" y2="190.84568685101735mm" /><line stroke="black" x1="97.08626297965282mm" x2="97.08626297965282mm" y1="10.0mm" y2="14.35431314898264mm" /><line stroke="black" x1="99.26341955414414mm" x2="99.26341955414414mm" y1="10.0mm" y2="12.17715657449132mm" /><line stroke="black" x1="101.44057612863546mm" x2="101.44057612863546mm" y1="10.0mm" y2="12.17715657449132mm" /><line stroke="black" x1="103.61773270312678mm" x2="103.61773270312678mm" y1="10.0mm" y2="12.17715657449132mm" /><line stroke="black" x1="105.7948892776181mm" x2="105.7948892776181mm" y1="10.0mm" y2="12.17715657449132mm" /><line stroke="black" x1="107.97204585210942mm" x2="107.97204585210942mm" y1="10.0mm" y2="13.26573486173698mm" /><line stroke="black" x1="110.14920242660074mm" x2="110.14920242660074mm" y1="10.0mm" y2="12.17715657449132mm" /><line stroke="black" x1="112.32635900109206mm" x2="112.32635900109206mm" y1="10.0mm" y2="12.17715657449132mm" /><line stroke="black" x1="114.50351557558338mm" x2="114.50351557558338mm" y1="10.0mm" y2="12.17715657449132mm" /><line stroke="black" x1="116.6806721500747mm" x2="116.6806721500747mm" y1="10.0mm" y2="12.17715657449132mm" /><line stroke="black" x1="118.85782872456602mm" x2="118.85782872456602mm" y1="10.0mm" y2="14.35431314898264mm" /><line stroke="black" x1="118.85782872456602mm" x2="118.85782872456602mm" y1="195.2mm" y2="190.84568685101735mm" /><line stroke="black" x1="116.6806721500747mm" x2="116.6806721500747mm" y1="195.2mm" y2="193.02284342550865mm" /><line stroke="black" x1="114.50351557558338mm" x2="114.50351557558338mm" y1="195.2mm" y2="193.02284342550865mm" /><line stroke="black" x1="112.32635900109206mm" x2="112.32635900109206mm" y1="195.2mm" y2="193.02284342550865mm" /><line stroke="black" x1="110.14920242660074mm" x2="110.14920242660074mm" y1="195.2mm" y2="193.02284342550865mm" /><line stroke="black" x1="107.97204585210942mm" x2="107.97204585210942mm" y1="195.2mm" y2="191.93426513826302mm" /><line stroke="black" x1="105.7948892776181mm" x2="105.7948892776181mm" y1="195.2mm" y2="193.02284342550865mm" /><line stroke="black" x1="103.61773270312678mm" x2="103.61773270312678mm" y1="195.2mm" y2="193.02284342550865mm" /><line stroke="black" x1="101.44057612863546mm" x2="101.44057612863546mm" y1="195.2mm" y2="193.02284342550865mm" /><line stroke="black" x1="99.26341955414414mm" x2="99.26341955414414mm" y1="195.2mm" y2="193.02284342550865mm" /><line stroke="black" x1="97.08626297965282mm" x2="97.08626297965282mm" y1="195.2mm" y2="190.84568685101735mm" /><line stroke="black" x1="118.85782872456602mm" x2="111.44982872456602mm" y1="10.0mm" y2="10.0mm" /><line stroke="black" x1="118.85782872456602mm" x2="115.15382872456603mm" y1="13.704mm" y2="13.704mm" /><line stroke="black" x1="118.85782872456602mm" x2="115.15382872456603mm" y1="17.408mm" y2="17.408mm" /><line stroke="black" x1="118.85782872456602mm" x2="115.15382872456603mm" y1="21.112000000000002mm" y2="21.112000000000002mm" /><line stroke="black" x1="118.85782872456602mm" x2="115.15382872456603mm" y1="24.816000000000003mm" y2="24.816000000000003mm" /><line stroke="black" x1="118.85782872456602mm" x2="113.30182872456602mm" y1="28.52mm" y2="28.52mm" /><line stroke="black" x1="118.85782872456602mm" x2="115.15382872456603mm" y1="32.224000000000004mm" y2="32.224000000000004mm" /><line stroke="black" x1="118.85782872456602mm" x2="115.15382872456603mm" y1="35.928mm" y2="35.928mm" /><line stroke="black" x1="118.85782872456602mm" x2="115.15382872456603mm" y1="39.632000000000005mm" y2="39.632000000000005mm" /><line stroke="black" x1="118.85782872456602mm" x2="115.15382872456603mm" y1="43.336mm" y2="43.336mm" /><line stroke="black" x1="118.85782872456602mm" x2="111.44982872456602mm" y1="47.04mm" y2="47.04mm" /><line stroke="black" x1="10.0mm" x2="17.408mm" y1="47.04mm" y2="47.04mm" /><line stroke="black" x1="10.0mm" x2="13.704mm" y1="43.336mm" y2="43.336mm" /><line stroke="black" x1="9.999999999999998mm" x2="13.703999999999999mm" y1="39.632mm" y2="39.632mm" /><line stroke="black" x1="9.999999999999998mm" x2="13.703999999999999mm" y1="35.928mm" y2="35.928mm" /><line stroke="black" x1="9.999999999999996mm" x2="13.703999999999997mm" y1="32.224mm" y2="32.224mm" /><line stroke="black" x1="9.999999999999996mm" x2="15.555999999999997mm" y1="28.52mm" y2="28.52mm" /><line stroke="black" x1="9.999999999999996mm" x2="13.703999999999997mm" y1="24.815999999999995mm" y2="24.815999999999995mm" /><line stroke="black" x1="9.999999999999995mm" x2="13.703999999999995mm" y1="21.112mm" y2="21.112mm" /><line stroke="black" x1="9.999999999999995mm" x2="13.703999999999995mm" y1="17.407999999999998mm" y2="17.407999999999998mm" /><line stroke="black" x1="9.999999999999995mm" x2="13.703999999999995mm" y1="13.704mm" y2="13.704mm" /><line stroke="black" x1="9.999999999999993mm" x2="17.407999999999994mm" y1="10.0mm" y2="9.999999999999998mm" /><line stroke="black" x1="118.85782872456602mm" x2="111.44982872456602mm" y1="47.04mm" y2="47.04mm" /><line stroke="black" x1="118.85782872456602mm" x2="115.15382872456603mm" y1="50.744mm" y2="50.744mm" /><line stroke="black" x1="118.85782872456602mm" x2="115.15382872456603mm" y1="54.448mm" y2="54.448mm" /><line stroke="black" x1="118.85782872456602mm" x2="115.15382872456603mm" y1="58.152mm" y2="58.152mm" /><line stroke="black" x1="118.85782872456602mm" x2="115.15382872456603mm" y1="61.856mm" y2="61.856mm" /><line stroke="black" x1="118.85782872456602mm" x2="113.30182872456602mm" y1="65.56mm" y2="65.56mm" /><line stroke="black" x1="118.85782872456602mm" x2="115.15382872456603mm" y1="69.26400000000001mm" y2="69.26400000000001mm" /><line stroke="black" x1="118.85782872456602mm" x2="115.15382872456603mm" y1="72.968mm" y2="72.968mm" /><line stroke="black" x1="118.85782872456602mm" x2="115.15382872456603mm" y1="76.672mm" y2="76.672mm" /><line stroke="black" x1="118.85782872456602mm" x2="115.15382872456603mm" y1="80.376mm" y2="80.376mm" /><line stroke="black" x1="118.85782872456602mm" x2="111.44982872456602mm" y1="84.08mm" y2="84.08mm" /><line stroke="black" x1="10.0mm" x2="17.408mm" y1="84.08mm" y2="84.08mm" /><line stroke="black" x1="10.0mm" x2="13.704mm" y1="80.376mm" y2="80.376mm" /><line stroke="black" x1="9.999999999999998mm" x2="13.703999999999999mm" y1="76.672mm" y2="76.672mm" /><line stroke="black" x1="9.999999999999998mm" x2="13.703999999999999mm" y1="72.96799999999999mm" y2="72.96799999999999mm" /><line stroke="black" x1="9.999999999999996mm" x2="13.703999999999997mm" y1="69.264mm" y2="69.264mm" /><line stroke="black" x1="9.999999999999996mm" x2="15.555999999999997mm" y1="65.56mm" y2="65.56mm" /><line stroke="black" x1="9.999999999999996mm" x2="13.703999999999997mm" y1="61.855999999999995mm" y2="61.855999999999995mm" /><line stroke="black" x1="9.999999999999995mm" x2="13.703999999999995mm" y1="58.152mm" y2="58.152mm" /><line stroke="black" x1="9.999999999999995mm" x2="13.703999999999995mm" y1="54.44799999999999mm" y2="54.44799999999999mm" /><line stroke="black" x1="9.999999999999995mm" x2="13.703999999999995mm" y1="50.744mm" y2="50.744mm" /><line stroke="black" x1="9.999999999999993mm" x2="17.407999999999994mm" y1="47.04mm" y2="47.04mm" /><line stroke="black" x1="118.85782872456602mm" x2="111.44982872456602mm" y1="84.08mm" y2="84.08mm" /><line stroke="black" x1="118.85782872456602mm" x2="115.15382872456603mm" y1="87.78399999999999mm" y2="87.78399999999999mm" /><line stroke="black" x1="118.85782872456602mm" x2="115.15382872456603mm" y1="91.488mm" y2="91.488mm" /><line stroke="black" x1="118.85782872456602mm" x2="115.15382872456603mm" y1="95.19200000000001mm" y2="95.19200000000001mm" /><line stroke="black" x1="118.85782872456602mm" x2="115.15382872456603mm" y1="98.896mm" y2="98.896mm" /><line stroke="black" x1="118.85782872456602mm" x2="113.30182872456602mm" y1="102.6mm" y2="102.6mm" /><line stroke="black" x1="118.85782872456602mm" x2="115.15382872456603mm" y1="106.304mm" y2="106.304mm" /><line stroke="black" x1="118.85782872456602mm" x2="115.15382872456603mm" y1="110.008mm" y2="110.008mm" /><line stroke="black" x1="118.85782872456602mm" x2="115.15382872456603mm" y1="113.712mm" y2="113.712mm" /><line stroke="black" x1="118.85782872456602mm" x2="115.15382872456603mm" y1="117.416mm" y2="117.416mm" /><line stroke="black" x1="118.85782872456602mm" x2="111.44982872456602mm" y1="121.12mm" y2="121.12mm" /><line stroke="black" x1="10.0mm" x2="17.408mm" y1="121.12mm" y2="121.12mm" /><line stroke="black" x1="10.0mm" x2="13.704mm" y1="117.41600000000001mm" y2="117.41600000000001mm" /><line stroke="black" x1="9.999999999999998mm" x2="13.703999999999999mm" y1="113.712mm" y2="113.712mm" /><line stroke="black" x1="9.999999999999998mm" x2="13.703999999999999mm" y1="110.00800000000001mm" y2="110.00800000000001mm" /><line stroke="black" x1="9.999999999999996mm" x2="13.703999999999997mm" y1="106.304mm" y2="106.304mm" /><line stroke="black" x1="9.999999999999996mm" x2="15.555999999999997mm" y1="102.60000000000001mm" y2="102.60000000000001mm" /><line stroke="black" x1="9.999999999999996mm" x2="13.703999999999997mm" y1="98.896mm" y2="98.896mm" /><line stroke="black" x1="9.999999999999995mm" x2="13.703999999999995mm" y1="95.19200000000001mm" y2="95.19200000000001mm" /><line stroke="black" x1="9.999999999999995mm" x2="13.703999999999995mm" y1="91.488mm" y2="91.488mm" /><line stroke="black" x1="9.999999999999995mm" x2="13.703999999999995mm" y1="87.784mm" y2="87.784mm" /><line stroke="black" x1="9.999999999999993mm" x2="17.407999999999994mm" y1="84.08000000000001mm" y2="84.08000000000001mm" /><line stroke="black" x1="118.85782872456602mm" x2="111.44982872456602mm" y1="121.12mm" y2="121.12mm" /><line stroke="black" x1="118.85782872456602mm" x2="115.15382872456603mm" y1="124.824mm" y2="124.824mm" /><line stroke="black" x1="118.85782872456602mm" x2="115.15382872456603mm" y1="128.528mm" y2="128.528mm" /><line stroke="black" x1="118.85782872456602mm" x2="115.15382872456603mm" y1="132.232mm" y2="132.232mm" /><line stroke="black" x1="118.85782872456602mm" x2="115.15382872456603mm" y1="135.936mm" y2="135.936mm" /><line stroke="black" x1="118.85782872456602mm" x2="113.30182872456602mm" y1="139.64000000000001mm" y2="139.64000000000001mm" /><line stroke="black" x1="118.85782872456602mm" x2="115.15382872456603mm" y1="143.344mm" y2="143.344mm" /><line stroke="black" x1="118.85782872456602mm" x2="115.15382872456603mm" y1="147.048mm" y2="147.048mm" /><line stroke="black" x1="118.85782872456602mm" x2="115.15382872456603mm" y1="150.752mm" y2="150.752mm" /><line stroke="black" x1="118.85782872456602mm" x2="115.15382872456603mm" y1="154.45600000000002mm" y2="154.45600000000002mm" /><line stroke="black" x1="118.85782872456602mm" x2="111.44982872456602mm" y1="158.16mm" y2="158.16mm" /><line stroke="black" x1="10.0mm" x2="17.408mm" y1="158.16mm" y2="158.16mm" /><line stroke="black" x1="10.0mm" x2="13.704mm" y1="154.456mm" y2="154.456mm" /><line stroke="black" x1="9.999999999999998mm" x2="13.703999999999999mm" y1="150.752mm" y2="150.752mm" /><line stroke="black" x1="9.999999999999998mm" x2="13.703999999999999mm" y1="147.048mm" y2="147.048mm" /><line stroke="black" x1="9.999999999999996mm" x2="13.703999999999997mm" y1="143.344mm" y2="143.344mm" /><line stroke="black" x1="9.999999999999996mm" x2="15.555999999999997mm" y1="139.64mm" y2="139.64mm" /><line stroke="black" x1="9.999999999999996mm" x2="13.703999999999997mm" y1="135.93599999999998mm" y2="135.93599999999998mm" /><line stroke="black" x1="9.999999999999995mm" x2="13.703999999999995mm" y1="132.232mm" y2="132.232mm" /><line stroke="black" x1="9.999999999999995mm" x2="13.703999999999995mm" y1="128.528mm" y2="128.528mm" /><line stroke="black" x1="9.999999999999995mm" x2="13.703999999999995mm" y1="124.824mm" y2="124.824mm" /><line stroke="black" x1="9.999999999999993mm" x2="17.407999999999994mm" y1="121.12mm" y2="121.12mm" /><line stroke="black" x1="118.85782872456602mm" x2="111.44982872456602mm" y1="158.16mm" y2="158.16mm" /><line stroke="black" x1="118.85782872456602mm" x2="115.15382872456603mm" y1="161.864mm" y2="161.864mm" /><line stroke="black" x1="118.85782872456602mm" x2="115.15382872456603mm" y1="165.56799999999998mm" y2="165.56799999999998mm" /><line stroke="black" x1="118.85782872456602mm" x2="115.15382872456603mm" y1="169.272mm" y2="169.272mm" /><line stroke="black" x1="118.85782872456602mm" x2="115.15382872456603mm" y1="172.976mm" y2="172.976mm" /><line stroke="black" x1="118.85782872456602mm" x2="113.30182872456602mm" y1="176.68mm" y2="176.68mm" /><line stroke="black" x1="118.85782872456602mm" x2="115.15382872456603mm" y1="180.38400000000001mm" y2="180.38400000000001mm" /><line stroke="black" x1="118.85782872456602mm" x2="115.15382872456603mm" y1="184.088mm" y2="184.088mm" /><line stroke="black" x1="118.85782872456602mm" x2="115.15382872456603mm" y1="187.792mm" y2="187.792mm" /><line stroke="black" x1="118.85782872456602mm" x2="115.15382872456603mm" y1="191.49599999999998mm" y2="191.49599999999998mm" /><line stroke="black" x1="118.85782872456602mm" x2="111.44982872456602mm" y1="195.2mm" y2="195.2mm" /><line stroke="black" x1="10.0mm" x2="17.408mm" y1="195.2mm" y2="195.2mm" /><line stroke="black" x1="10.0mm" x2="13.704mm" y1="191.49599999999998mm" y2="191.49599999999998mm" /><line stroke="black" x1="9.999999999999998mm" x2="13.703999999999999mm" y1="187.792mm" y2="187.792mm" /><line stroke="black" x1="9.999999999999998mm" x2="13.703999999999999mm" y1="184.088mm" y2="184.088mm" /><line stroke="black" x1="9.999999999999996mm" x2="13.703999999999997mm" y1="180.384mm" y2="180.384mm" /><line stroke="black" x1="9.999999999999996mm" x2="15.555999999999997mm" y1="176.67999999999998mm" y2="176.67999999999998mm" /><line stroke="black" x1="9.999999999999996mm" x2="13.703999999999997mm" y1="172.976mm" y2="172.976mm" /><line stroke="black" x1="9.999999999999995mm" x2="13.703999999999995mm" y1="169.272mm" y2="169.272mm" /><line stroke="black" x1="9.999999999999995mm" x2="13.703999999999995mm" y1="165.56799999999998mm" y2="165.56799999999998mm" /><line stroke="black" x1="9.999999999999995mm" x2="13.703999999999995mm" y1="161.86399999999998mm" y2="161.86399999999998mm" /><line stroke="black" x1="9.999999999999993mm" x2="17.407999999999994mm" y1="158.16mm" y2="158.16mm" /></svg>