<?xml version="1.0" encoding="utf-8" ?>
<svg baseProfile="full" height="89.4581mm" version="1.1" width="60.826446832255826mm" xmlns="http://www.w3.org/2000/svg" xmlns:ev="http://www.w3.org/2001/xml-events" xmlns:xlink="http://www.w3.org/1999/xlink"><defs /><rect fill="white" height="246.111371937" stroke="black" width="144.660634846" x="10.0" y="10.0" /><line stroke="black" x1="10.0" x2="10.0" y1="10.0" y2="19.6440423231" /><line stroke="black" x1="14.8220211615" x2="14.8220211615" y1="10.0" y2="14.8220211615" /><line stroke="black" x1="19.6440423231" x2="19.6440423231" y1="10.0" y2="14.8220211615" /><line stroke="black" x1="24.4660634846" x2="24.4660634846" y1="10.0" y2="14.8220211615" /><line stroke="black" x1="29.2880846461" x2="29.2880846461" y1="10.0" y2="14.8220211615" /><line stroke="black" x1="34.1101058076" x2="34.1101058076" y1="10.0" y2="17.2330317423" /><line stroke="black" x1="38.9321269692" x2="38.9321269692" y1="10.0" y2="14.8220211615" /><line stroke="black" x1="43.7541481307" x2="43.7541481307" y1="10.0" y2="14.8220211615" /><line stroke="black" x1="48.5761692922" x2="48.5761692922" y1="10.0" y2="14.8220211615" /><line stroke="black" x1="53.3981904538" x2="53.3981904538" y1="10.0" y2="14.8220211615" /><line stroke="black" x1="58.2202116153" x2="58.2202116153" y1="10.0" y2="19.6440423231" /><line stroke="black" x1="58.2202116153" x2="58.2202116153" y1="256.111371937" y2="246.467329614" /><line stroke="black" x1="53.3981904538" x2="53.3981904538" y1="256.111371937" y2="251.289350775" /><line stroke="black" x1="48.5761692922" x2="48.5761692922" y1="256.111371937" y2="251.289350775" /><line stroke="black" x1="43.7541481307" x2="43.7541481307" y1="256.111371937" y2="251.289350775" /><line stroke="black" x1="38.9321269692" x2="38.9321269692" y1="256.111371937" y2="251.289350775" /><line stroke="black" x1="34.1101058076" x2="34.1101058076" y1="256.111371937" y2="248.878340194" /><line stroke="black" x1="29.2880846461" x2="29.2880846461" y1="256.111371937" y2="251.289350775" /><line stroke="black" x1="24.4660634846" x2="24.4660634846" y1="256.111371937" y2="251.289350775" /><line stroke="black" x1="19.6440423231" x2="19.6440423231" y1="256.111371937" y2="251.289350775" /><line stroke="black" x1="14.8220211615" x2="14.8220211615" y1="256.111371937" y2="251.289350775" /><line stroke="black" x1="10.0" x2="10.0" y1="256.111371937" y2="246.467329614" /><line stroke="black" x1="58.2202116153" x2="58.2202116153" y1="10.0" y2="19.6440423231" /><line stroke="black" x1="63.0422327768" x2="63.0422327768" y1="10.0" y2="14.8220211615" /><line stroke="black" x1="67.8642539383" x2="67.8642539383" y1="10.0" y2="14.8220211615" /><line stroke="black" x1="72.6862750999" x2="72.6862750999" y1="10.0" y2="14.8220211615" /><line stroke="black" x1="77.5082962614" x2="77.5082962614" y1="10.0" y2="14.8220211615" /><line stroke="black" x1="82.3303174229" x2="82.3303174229" y1="10.0" y2="17.2330317423" /><line stroke="black" x1="87.1523385845" x2="87.1523385845" y1="10.0" y2="14.8220211615" /><line stroke="black" x1="91.974359746" x2="91.974359746" y1="10.0" y2="14.8220211615" /><line stroke="black" x1="96.7963809075" x2="96.7963809075" y1="10.0" y2="14.8220211615" /><line stroke="black" x1="101.618402069" x2="101.618402069" y1="10.0" y2="14.8220211615" /><line stroke="black" x1="106.440423231" x2="106.440423231" y1="10.0" y2="19.6440423231" /><line stroke="black" x1="106.440423231" x2="106.440423231" y1="256.111371937" y2="246.467329614" /><line stroke="black" x1="101.618402069" x2="101.618402069" y1="256.111371937" y2="251.289350775" /><line stroke="black" x1="96.7963809075" x2="96.7963809075" y1="256.111371937" y2="251.289350775" /><line stroke="black" x1="91.974359746" x2="91.974359746" y1="256.111371937" y2="251.289350775" /><line stroke="black" x1="87.1523385845" x2="87.1523385845" y1="256.111371937" y2="251.289350775" /><line stroke="black" x1="82.3303174229" x2="82.3303174229" y1="256.111371937" y2="248.878340194" /><line stroke="black" x1="77.5082962614" x2="77.5082962614" y1="256.111371937" y2="251.289350775" /><line stroke="black" x1="72.6862750999" x2="72.6862750999" y1="256.111371937" y2="251.289350775" /><line stroke="black" x1="67.8642539383" x2="67.8642539383" y1="256.111371937" y2="251.289350775" /><line stroke="black" x1="63.0422327768" x2="63.0422327768" y1="256.111371937" y2="251.289350775" /><line stroke="black" x1="58.2202116153" x2="58.2202116153" y1="256.111371937" y2="246.467329614" /><line stroke="black" x1="106.440423231" x2="106.440423231" y1="10.0" y2="19.6440423231" /><line stroke="black" x1="111.262444392" x2="111.262444392" y1="10.0" y2="14.8220211615" /><line stroke="black" x1="116.084465554" x2="116.084465554" y1="10.0" y2="14.8220211615" /><line stroke="black" x1="120.906486715" x2="120.906486715" y1="10.0" y2="14.8220211615" /><line stroke="black" x1="125.728507877" x2="125.728507877" y1="10.0" y2="14.8220211615" /><line stroke="black" x1="130.550529038" x2="130.550529038" y1="10.0" y2="17.2330317423" /><line stroke="black" x1="135.3725502" x2="135.3725502" y1="10.0" y2="14.8220211615" /><line stroke="black" x1="140.194571361" x2="140.194571361" y1="10.0" y2="14.8220211615" /><line stroke="black" x1="145.016592523" x2="145.016592523" y1="10.0" y2="14.8220211615" /><line stroke="black" x1="149.838613684" x2="149.838613684" y1="10.0" y2="14.8220211615" /><line stroke="black" x1="154.660634846" x2="154.660634846" y1="10.0" y2="19.6440423231" /><line stroke="black" x1="154.660634846" x2="154.660634846" y1="256.111371937" y2="246.467329614" /><line stroke="black" x1="149.838613684" x2="149.838613684" y1="256.111371937" y2="251.289350775" /><line stroke="black" x1="145.016592523" x2="145.016592523" y1="256.111371937" y2="251.289350775" /><line stroke="black" x1="140.194571361" x2="140.194571361" y1="256.111371937" y2="251.289350775" /><line stroke="black" x1="135.3725502" x2="135.3725502" y1="256.111371937" y2="251.289350775" /><line stroke="black" x1="130.550529038" x2="130.550529038" y1="256.111371937" y2="248.878340194" /><line stroke="black" x1="125.728507877" x2="125.728507877" y1="256.111371937" y2="251.289350775" /><line stroke="black" x1="120.906486715" x2="120.906486715" y1="256.111371937" y2="251.289350775" /><line stroke="black" x1="116.084465554" x2="116.084465554" y1="256.111371937" y2="251.289350775" /><line stroke="black" x1="111.262444392" x2="111.262444392" y1="256.111371937" y2="251.289350775" /><line stroke="black" x1="106.440423231" x2="106.440423231" y1="256.111371937" y2="246.467329614" /><line stroke="black" x1="154.660634846" x2="138.25321005" y1="10.0" y2="10.0" /><line stroke="black" x1="154.660634846" x2="146.456922448" y1="18.2037123979" y2="18.2037123979" /><line stroke="black" x1="154.660634846" x2="146.456922448" y1="26.4074247958" y2="26.4074247958" /><line stroke="black" x1="154.660634846" x2="146.456922448" y1="34.6111371937" y2="34.6111371937" /><line stroke="black" x1="154.660634846" x2="146.456922448" y1="42.8148495916" y2="42.8148495916" /><line stroke="black" x1="154.660634846" x2="142.355066249" y1="51.0185619894" y2="51.0185619894" /><line stroke="black" x1="154.660634846" x2="146.456922448" y1="59.2222743873" y2="59.2222743873" /><line stroke="black" x1="154.660634846" x2="146.456922448" y1="67.4259867852" y2="67.4259867852" /><line stroke="black" x1="154.660634846" x2="146.456922448" y1="75.6296991831" y2="75.6296991831" /><line stroke="black" x1="154.660634846" x2="146.456922448" y1="83.833411581" y2="83.833411581" /><line stroke="black" x1="154.660634846" x2="138.25321005" y1="92.0371239789" y2="92.0371239789" /><line stroke="black" x1="10.0" x2="26.4074247958" y1="92.0371239789" y2="92.0371239789" /><line stroke="black" x1="10.0" x2="18.2037123979" y1="83.833411581" y2="83.833411581" /><line stroke="black" x1="10.0" x2="18.2037123979" y1="75.6296991831" y2="75.6296991831" /><line stroke="black" x1="10.0" x2="18.2037123979" y1="67.4259867852" y2="67.4259867852" /><line stroke="black" x1="10.0" x2="18.2037123979" y1="59.2222743873" y2="59.2222743873" /><line stroke="black" x1="10.0" x2="22.3055685968" y1="51.0185619894" y2="51.0185619894" /><line stroke="black" x1="10.0" x2="18.2037123979" y1="42.8148495916" y2="42.8148495916" /><line stroke="black" x1="10.0" x2="18.2037123979" y1="34.6111371937" y2="34.6111371937" /><line stroke="black" x1="10.0" x2="18.2037123979" y1="26.4074247958" y2="26.4074247958" /><line stroke="black" x1="10.0" x2="18.2037123979" y1="18.2037123979" y2="18.2037123979" /><line stroke="black" x1="10.0" x2="26.4074247958" y1="10.0" y2="10.0" /><line stroke="black" x1="154.660634846" x2="138.25321005" y1="92.0371239789" y2="92.0371239789" /><line stroke="black" x1="154.660634846" x2="146.456922448" y1="100.240836377" y2="100.240836377" /><line stroke="black" x1="154.660634846" x2="146.456922448" y1="108.444548775" y2="108.444548775" /><line stroke="black" x1="154.660634846" x2="146.456922448" y1="116.648261173" y2="116.648261173" /><line stroke="black" x1="154.660634846" x2="146.456922448" y1="124.85197357" y2="124.85197357" /><line stroke="black" x1="154.660634846" x2="142.355066249" y1="133.055685968" y2="133.055685968" /><line stroke="black" x1="154.660634846" x2="146.456922448" y1="141.259398366" y2="141.259398366" /><line stroke="black" x1="154.660634846" x2="146.456922448" y1="149.463110764" y2="149.463110764" /><line stroke="black" x1="154.660634846" x2="146.456922448" y1="157.666823162" y2="157.666823162" /><line stroke="black" x1="154.660634846" x2="146.456922448" y1="165.87053556" y2="165.87053556" /><line stroke="black" x1="154.660634846" x2="138.25321005" y1="174.074247958" y2="174.074247958" /><line stroke="black" x1="10.0" x2="26.4074247958" y1="174.074247958" y2="174.074247958" /><line stroke="black" x1="10.0" x2="18.2037123979" y1="165.87053556" y2="165.87053556" /><line stroke="black" x1="10.0" x2="18.2037123979" y1="157.666823162" y2="157.666823162" /><line stroke="black" x1="10.0" x2="18.2037123979" y1="149.463110764" y2="149.463110764" /><line stroke="black" x1="10.0" x2="18.2037123979" y1="141.259398366" y2="141.259398366" /><line stroke="black" x1="10.0" x2="22.3055685968" y1="133.055685968" y2="133.055685968" /><line stroke="black" x1="10.0" x2="18.2037123979" y1="124.85197357" y2="124.85197357" /><line stroke="black" x1="10.0" x2="18.2037123979" y1="116.648261173" y2="116.648261173" /><line stroke="black" x1="10.0" x2="18.2037123979" y1="108.444548775" y2="108.444548775" /><line stroke="black" x1="10.0" x2="18.2037123979" y1="100.240836377" y2="100.240836377" /><line stroke="black" x1="10.0" x2="26.4074247958" y1="92.0371239789" y2="92.0371239789" /><line stroke="black" x1="154.660634846" x2="138.25321005" y1="174.074247958" y2="174.074247958" /><line stroke="black" x1="154.660634846" x2="146.456922448" y1="182.277960356" y2="182.277960356" /><line stroke="black" x1="154.660634846" x2="146.456922448" y1="190.481672754" y2="190.481672754" /><line stroke="black" x1="154.660634846" x2="146.456922448" y1="198.685385151" y2="198.685385151" /><line stroke="black" x1="154.660634846" x2="146.456922448" y1="206.889097549" y2="206.889097549" /><line stroke="black" x1="154.660634846" x2="142.355066249" y1="215.092809947" y2="215.092809947" /><line stroke="black" x1="154.660634846" x2="146.456922448" y1="223.296522345" y2="223.296522345" /><line stroke="black" x1="154.660634846" x2="146.456922448" y1="231.500234743" y2="231.500234743" /><line stroke="black" x1="154.660634846" x2="146.456922448" y1="239.703947141" y2="239.703947141" /><line stroke="black" x1="154.660634846" x2="146.456922448" y1="247.907659539" y2="247.907659539" /><line stroke="black" x1="154.660634846" x2="138.25321005" y1="256.111371937" y2="256.111371937" /><line stroke="black" x1="10.0" x2="26.4074247958" y1="256.111371937" y2="256.111371937" /><line stroke="black" x1="10.0" x2="18.2037123979" y1="247.907659539" y2="247.907659539" /><line stroke="black" x1="10.0" x2="18.2037123979" y1="239.703947141" y2="239.703947141" /><line stroke="black" x1="10.0" x2="18.2037123979" y1="231.500234743" y2="231.500234743" /><line stroke="black" x1="10.0" x2="18.2037123979" y1="223.296522345" y2="223.296522345" /><line stroke="black" x1="10.0" x2="22.3055685968" y1="215.092809947" y2="215.092809947" /><line stroke="black" x1="10.0" x2="18.2037123979" y1="206.889097549" y2="206.889097549" /><line stroke="black" x1="10.0" x2="18.2037123979" y1="198.685385151" y2="198.685385151" /><line stroke="black" x1="10.0" x2="18.2037123979" y1="190.481672754" y2="190.481672754" /><line stroke="black" x1="10.0" x2="18.2037123979" y1="182.277960356" y2="182.277960356" /><line stroke="black" x1="10.0" x2="26.4074247958" y1="174.074247958" y2="174.074247958" /><line stroke="black" x1="10.0" x2="154.660634846" y1="92.0371239789" y2="92.0371239789" /><line stroke="black" x1="10.0" x2="154.660634846" y1="174.074247958" y2="174.074247958" /><line stroke="black" x1="58.2202116153" x2="58.2202116153" y1="10.0" y2="256.111371937" /><line stroke="black" x1="106.440423231" x2="106.440423231" y1="10.0" y2="256.111371937" /><circle cx="82.3303174229" cy="133.055685968" fill="none" r="50.631222196050956" stroke="black" /><line stroke="black" x1="84.2739391145" x2="84.4683012836" y1="82.4617832153" y2="77.40239294" /><text font-size="0.08" text-anchor="middle" transform="matrix(50.59 1.94 -1.94 50.59 82.33 133.06)" x="0.0" y="-1.12">000</text><line stroke="black" x1="93.0299501478" x2="94.0999134203" y1="83.5679246468" y2="78.6191485146" /><text font-size="0.08" text-anchor="middle" transform="matrix(49.49 10.70 -10.70 49.49 82.33 133.06)" x="0.0" y="-1.12">010</text><line stroke="black" x1="101.460858255" x2="103.373912338" y1="86.177726664" y2="81.4899307336" /><text font-size="0.08" text-anchor="middle" transform="matrix(46.88 19.13 -19.13 46.88 82.33 133.06)" x="0.0" y="-1.12">020</text><line stroke="black" x1="109.31049456" x2="112.008512273" y1="90.2118917534" y2="85.9275123319" /><text font-size="0.08" text-anchor="middle" transform="matrix(42.84 26.98 -26.98 42.84 82.33 133.06)" x="0.0" y="-1.12">030</text><line stroke="black" x1="116.340351835" x2="119.741355276" y1="95.5478438499" y2="91.7970596381" /><text font-size="0.08" text-anchor="middle" transform="matrix(37.51 34.01 -34.01 37.51 82.33 133.06)" x="0.0" y="-1.12">040</text><line stroke="black" x1="122.336831424" x2="126.337482824" y1="102.023452749" y2="98.9202294274" /><text font-size="0.08" text-anchor="middle" transform="matrix(31.03 40.01 -40.01 31.03 82.33 133.06)" x="0.0" y="-1.12">050</text><line stroke="black" x1="127.117733329" x2="131.59647492" y1="109.441960352" y2="107.08058779" /><text font-size="0.08" text-anchor="middle" transform="matrix(23.61 44.79 -44.79 23.61 82.33 133.06)" x="0.0" y="-1.12">060</text><line stroke="black" x1="130.537792266" x2="135.358539751" y1="117.577959058" y2="116.030186367" /><text font-size="0.08" text-anchor="middle" transform="matrix(15.48 48.21 -48.21 15.48 82.33 133.06)" x="0.0" y="-1.12">070</text><line stroke="black" x1="132.493091474" x2="137.509368879" y1="126.184240665" y2="125.497096135" /><text font-size="0.08" text-anchor="middle" transform="matrix(6.87 50.16 -50.16 6.87 82.33 133.06)" x="0.0" y="-1.12">080</text><line stroke="black" x1="132.924220176" x2="137.983610451" y1="134.99930766" y2="135.193669829" /><text font-size="0.08" text-anchor="middle" transform="matrix(-1.94 50.59 -50.59 -1.94 82.33 133.06)" x="0.0" y="-1.12">090</text><line stroke="black" x1="131.818078744" x2="136.766854877" y1="143.755318693" y2="144.825281966" /><text font-size="0.08" text-anchor="middle" transform="matrix(-10.70 49.49 -49.49 -10.70 82.33 133.06)" x="0.0" y="-1.12">100</text><line stroke="black" x1="129.208276727" x2="133.896072658" y1="152.1862268" y2="154.099280884" /><text font-size="0.08" text-anchor="middle" transform="matrix(-19.13 46.88 -46.88 -19.13 82.33 133.06)" x="0.0" y="-1.12">110</text><line stroke="black" x1="125.174111638" x2="129.458491059" y1="160.035863105" y2="162.733880819" /><text font-size="0.08" text-anchor="middle" transform="matrix(-26.98 42.84 -42.84 -26.98 82.33 133.06)" x="0.0" y="-1.12">120</text><line stroke="black" x1="119.838159541" x2="123.588943753" y1="167.06572038" y2="170.466723821" /><text font-size="0.08" text-anchor="middle" transform="matrix(-34.01 37.51 -37.51 -34.01 82.33 133.06)" x="0.0" y="-1.12">130</text><line stroke="black" x1="113.362550642" x2="116.465773964" y1="173.062199969" y2="177.062851369" /><text font-size="0.08" text-anchor="middle" transform="matrix(-40.01 31.03 -31.03 -40.01 82.33 133.06)" x="0.0" y="-1.12">140</text><line stroke="black" x1="105.944043039" x2="108.305415601" y1="177.843101875" y2="182.321843466" /><text font-size="0.08" text-anchor="middle" transform="matrix(-44.79 23.61 -23.61 -44.79 82.33 133.06)" x="0.0" y="-1.12">150</text><line stroke="black" x1="97.8080443328" x2="99.3558170238" y1="181.263160812" y2="186.083908296" /><text font-size="0.08" text-anchor="middle" transform="matrix(-48.21 15.48 -15.48 -48.21 82.33 133.06)" x="0.0" y="-1.12">160</text><line stroke="black" x1="89.2017627263" x2="89.8889072567" y1="183.21846002" y2="188.234737425" /><text font-size="0.08" text-anchor="middle" transform="matrix(-50.16 6.87 -6.87 -50.16 82.33 133.06)" x="0.0" y="-1.12">170</text><line stroke="black" x1="80.3866957314" x2="80.1923335622" y1="183.649588721" y2="188.708978997" /><text font-size="0.08" text-anchor="middle" transform="matrix(-50.59 -1.94 1.94 -50.59 82.33 133.06)" x="0.0" y="-1.12">180</text><line stroke="black" x1="71.6306846981" x2="70.5607214256" y1="182.54344729" y2="187.492223422" /><text font-size="0.08" text-anchor="middle" transform="matrix(-49.49 -10.70 10.70 -49.49 82.33 133.06)" x="0.0" y="-1.12">190</text><line stroke="black" x1="63.1997765908" x2="61.2867225076" y1="179.933645273" y2="184.621441203" /><text font-size="0.08" text-anchor="middle" transform="matrix(-46.88 -19.13 19.13 -46.88 82.33 133.06)" x="0.0" y="-1.12">200</text><line stroke="black" x1="55.3501402862" x2="52.6521225725" y1="175.899480183" y2="180.183859605" /><text font-size="0.08" text-anchor="middle" transform="matrix(-42.84 -26.98 26.98 -42.84 82.33 133.06)" x="0.0" y="-1.12">210</text><line stroke="black" x1="48.3202830113" x2="44.9192795701" y1="170.563528087" y2="174.314312299" /><text font-size="0.08" text-anchor="middle" transform="matrix(-37.51 -34.01 34.01 -37.51 82.33 133.06)" x="0.0" y="-1.12">220</text><line stroke="black" x1="42.323803422" x2="38.3231520219" y1="164.087919187" y2="167.191142509" /><text font-size="0.08" text-anchor="middle" transform="matrix(-31.03 -40.01 40.01 -31.03 82.33 133.06)" x="0.0" y="-1.12">230</text><line stroke="black" x1="37.5429015164" x2="33.0641599258" y1="156.669411585" y2="159.030784146" /><text font-size="0.08" text-anchor="middle" transform="matrix(-23.61 -44.79 44.79 -23.61 82.33 133.06)" x="0.0" y="-1.12">240</text><line stroke="black" x1="34.1228425796" x2="29.3020950953" y1="148.533412878" y2="150.081185569" /><text font-size="0.08" text-anchor="middle" transform="matrix(-15.48 -48.21 48.21 -15.48 82.33 133.06)" x="0.0" y="-1.12">250</text><line stroke="black" x1="32.1675433718" x2="27.1512659666" y1="139.927131272" y2="140.614275802" /><text font-size="0.08" text-anchor="middle" transform="matrix(-6.87 -50.16 50.16 -6.87 82.33 133.06)" x="0.0" y="-1.12">260</text><line stroke="black" x1="31.7364146699" x2="26.6770243946" y1="131.112064277" y2="130.917702108" /><text font-size="0.08" text-anchor="middle" transform="matrix(1.94 -50.59 50.59 1.94 82.33 133.06)" x="0.0" y="-1.12">270</text><line stroke="black" x1="32.8425561014" x2="27.8937799692" y1="122.356053243" y2="121.286089971" /><text font-size="0.08" text-anchor="middle" transform="matrix(10.70 -49.49 49.49 10.70 82.33 133.06)" x="0.0" y="-1.12">280</text><line stroke="black" x1="35.4523581186" x2="30.7645621882" y1="113.925145136" y2="112.012091053" /><text font-size="0.08" text-anchor="middle" transform="matrix(19.13 -46.88 46.88 19.13 82.33 133.06)" x="0.0" y="-1.12">290</text><line stroke="black" x1="39.4865232079" x2="35.2021437864" y1="106.075508832" y2="103.377491118" /><text font-size="0.08" text-anchor="middle" transform="matrix(26.98 -42.84 42.84 26.98 82.33 133.06)" x="0.0" y="-1.12">300</text><line stroke="black" x1="44.8224753045" x2="41.0716910926" y1="99.0456515567" y2="95.6446481155" /><text font-size="0.08" text-anchor="middle" transform="matrix(34.01 -37.51 37.51 34.01 82.33 133.06)" x="0.0" y="-1.12">310</text><line stroke="black" x1="51.2980842039" x2="48.194860882" y1="93.0491719674" y2="89.0485205673" /><text font-size="0.08" text-anchor="middle" transform="matrix(40.01 -31.03 31.03 40.01 82.33 133.06)" x="0.0" y="-1.12">320</text><line stroke="black" x1="58.7165918066" x2="56.355219245" y1="88.2682700618" y2="83.7895284712" /><text font-size="0.08" text-anchor="middle" transform="matrix(44.79 -23.61 23.61 44.79 82.33 133.06)" x="0.0" y="-1.12">330</text><line stroke="black" x1="66.8525905131" x2="65.3048178221" y1="84.848211125" y2="80.0274636407" /><text font-size="0.08" text-anchor="middle" transform="matrix(48.21 -15.48 15.48 48.21 82.33 133.06)" x="0.0" y="-1.12">340</text><line stroke="black" x1="75.4588721195" x2="74.7717275892" y1="82.8929119172" y2="77.8766345121" /><text font-size="0.08" text-anchor="middle" transform="matrix(50.16 -6.87 6.87 50.16 82.33 133.06)" x="0.0" y="-1.12">350</text><line stroke="black" x1="84.0795769453" x2="80.5810579006" y1="87.5211734906" y2="178.590198446" /><line stroke="black" x1="36.7958049452" x2="127.864829901" y1="131.306426446" y2="134.804945491" /><text font-size="0.09" font-weight="bold" text-anchor="middle" transform="matrix(45.53 1.75 -1.75 45.53 82.33 133.06)" x="0.0" y="-1.4">N</text><circle cx="82.3303174229" cy="133.055685968" fill="none" r="7.086614" stroke="black" /><circle cx="10.0" cy="10.0" fill="none" r="7.086614" stroke="black" /><circle cx="10.0" cy="256.111371937" fill="none" r="7.086614" stroke="black" /><circle cx="154.660634846" cy="10.0" fill="none" r="7.086614" stroke="black" /><circle cx="154.660634846" cy="256.111371937" fill="none" r="7.086614" stroke="black" /><line stroke="black" x1="0.4132234161279129mm" x2="50.41322341612791mm" y1="79.4581mm" y2="79.4581mm" /><line stroke="black" x1="0.4132234161279129mm" x2="0.4132234161279129mm" y1="77.4581mm" y2="81.4581mm" /><line stroke="black" x1="50.41322341612791mm" x2="50.41322341612791mm" y1="77.4581mm" y2="81.4581mm" /><text font-size="9" text-anchor="middle" x="90.04685242292994" y="274.4578279367">5cm</text><text font-size="3mm" text-anchor="middle" x="25.413223416127913mm" y="59.566480000000006mm">Maßstab: 1:80000</text><text font-size="3mm" text-anchor="middle" x="25.413223416127913mm" y="63.566480000000006mm">54°N</text><text font-size="3mm" text-anchor="middle" x="25.413223416127913mm" y="67.56648000000001mm">Missweisung: 2.2°</text></svg>