<?xml version="1.0" encoding="utf-8" ?>
<svg baseProfile="full" height="100%" version="1.1" width="100%" xmlns="http://www.w3.org/2000/svg" xmlns:ev="http://www.w3.org/2001/xml-events" xmlns:xlink="http://www.w3.org/1999/xlink"><defs /><rect fill="white" height="185.2mm" stroke="black" width="108.85782872456602mm" x="10.0mm" y="10.0mm" /><line stroke="black" x1="10.0mm" x2="10.0mm" y1="10.0mm" y2="17.257188581637735mm" /><line stroke="black" x1="13.628594290818867mm" x2="13.628594290818867mm" y1="10.0mm" y2="13.628594290818867mm" /><line stroke="black" x1="17.257188581637735mm" x2="17.257188581637735mm" y1="10.0mm" y2="13.628594290818867mm" /><line stroke="black" x1="20.885782872456602mm" x2="20.885782872456602mm" y1="10.0mm" y2="13.628594290818867mm" /><line stroke="black" x1="24.51437716327547mm" x2="24.51437716327547mm" y1="10.0mm" y2="13.628594290818867mm" /><line stroke="black" x1="28.142971454094337mm" x2="28.142971454094337mm" y1="10.0mm" y2="15.442891436228301mm" /><line stroke="black" x1="31.771565744913207mm" x2="31.771565744913207mm" y1="10.0mm" y2="13.628594290818867mm" /><line stroke="black" x1="35.40016003573207mm" x2="35.40016003573207mm" y1="10.0mm" y2="13.628594290818867mm" /><line stroke="black" x1="39.02875432655094mm" x2="39.02875432655094mm" y1="10.0mm" y2="13.628594290818867mm" /><line stroke="black" x1="42.657348617369806mm" x2="42.657348617369806mm" y1="10.0mm" y2="13.628594290818867mm" /><line stroke="black" x1="46.28594290818867mm" x2="46.28594290818867mm" y1="10.0mm" y2="17.257188581637735mm" /><line stroke="black" x1="46.28594290818867mm" x2="46.28594290818867mm" y1="195.2mm" y2="187.94281141836225mm" /><line stroke="black" x1="42.657348617369806mm" x2="42.657348617369806mm" y1="195.2mm" y2="191.57140570918114mm" /><line stroke="black" x1="39.02875432655094mm" x2="39.02875432655094mm" y1="195.2mm" y2="191.57140570918114mm" /><line stroke="black" x1="35.40016003573207mm" x2="35.40016003573207mm" y1="195.2mm" y2="191.57140570918114mm" /><line stroke="black" x1="31.771565744913204mm" x2="31.771565744913204mm" y1="195.2mm" y2="191.57140570918114mm" /><line stroke="black" x1="28.142971454094337mm" x2="28.142971454094337mm" y1="195.2mm" y2="189.75710856377168mm" /><line stroke="black" x1="24.514377163275466mm" x2="24.514377163275466mm" y1="195.2mm" y2="191.57140570918114mm" /><line stroke="black" x1="20.8857828724566mm" x2="20.8857828724566mm" y1="195.2mm" y2="191.57140570918114mm" /><line stroke="black" x1="17.257188581637735mm" x2="17.257188581637735mm" y1="195.2mm" y2="191.57140570918114mm" /><line stroke="black" x1="13.628594290818867mm" x2="13.628594290818867mm" y1="195.2mm" y2="191.57140570918114mm" /><line stroke="black" x1="10.0mm" x2="10.0mm" y1="195.2mm" y2="187.94281141836225mm" /><line stroke="black" x1="46.28594290818867mm" x2="46.28594290818867mm" y1="10.0mm" y2="17.257188581637735mm" /><line stroke="black" x1="49.91453719900754mm" x2="49.91453719900754mm" y1="10.0mm" y2="13.628594290818867mm" /><line stroke="black" x1="53.54313148982641mm" x2="53.54313148982641mm" y1="10.0mm" y2="13.628594290818867mm" /><line stroke="black" x1="57.171725780645275mm" x2="57.171725780645275mm" y1="10.0mm" y2="13.628594290818867mm" /><line stroke="black" x1="60.80032007146414mm" x2="60.80032007146414mm" y1="10.0mm" y2="13.628594290818867mm" /><line stroke="black" x1="64.42891436228301mm" x2="64.42891436228301mm" y1="10.0mm" y2="15.442891436228301mm" /><line stroke="black" x1="68.05750865310188mm" x2="68.05750865310188mm" y1="10.0mm" y2="13.628594290818867mm" /><line stroke="black" x1="71.68610294392074mm" x2="71.68610294392074mm" y1="10.0mm" y2="13.628594290818867mm" /><line stroke="black" x1="75.31469723473961mm" x2="75.31469723473961mm" y1="10.0mm" y2="13.628594290818867mm" /><line stroke="black" x1="78.94329152555848mm" x2="78.94329152555848mm" y1="10.0mm" y2="13.628594290818867mm" /><line stroke="black" x1="82.57188581637735mm" x2="82.57188581637735mm" y1="10.0mm" y2="17.257188581637735mm" /><line stroke="black" x1="82.57188581637735mm" x2="82.57188581637735mm" y1="195.2mm" y2="187.94281141836225mm" /><line stroke="black" x1="78.94329152555848mm" x2="78.94329152555848mm" y1="195.2mm" y2="191.57140570918114mm" /><line stroke="black" x1="75.31469723473961mm" x2="75.31469723473961mm" y1="195.2mm" y2="191.57140570918114mm" /><line stroke="black" x1="71.68610294392074mm" x2="71.68610294392074mm" y1="195.2mm" y2="191.57140570918114mm" /><line stroke="black" x1="68.05750865310188mm" x2="68.05750865310188mm" y1="195.2mm" y2="191.57140570918114mm" /><line stroke="black" x1="64.42891436228301mm" x2="64.42891436228301mm" y1="195.2mm" y2="189.75710856377168mm" /><line stroke="black" x1="60.80032007146414mm" x2="60.80032007146414mm" y1="195.2mm" y2="191.57140570918114mm" /><line stroke="black" x1="57.171725780645275mm" x2="57.171725780645275mm" y1="195.2mm" y2="191.57140570918114mm" /><line stroke="black" x1="53.54313148982641mm" x2="53.54313148982641mm" y1="195.2mm" y2="191.57140570918114mm" /><line stroke="black" x1="49.91453719900754mm" x2="49.91453719900754mm" y1="195.2mm" y2="191.57140570918114mm" /><line stroke="black" x1="46.28594290818867mm" x2="46.28594290818867mm" y1="195.2mm" y2="187.94281141836225mm" /><line stroke="black" x1="82.57188581637735mm" x2="82.57188581637735mm" y1="10.0mm" y2="17.257188581637735mm" /><line stroke="black" x1="86.20048010719621mm" x2="86.20048010719621mm" y1="10.0mm" y2="13.628594290818867mm" /><line stroke="black" x1="89.82907439801508mm" x2="89.82907439801508mm" y1="10.0mm" y2="13.628594290818867mm" /><line stroke="black" x1="93.45766868883395mm" x2="93.45766868883395mm" y1="10.0mm" y2="13.628594290818867mm" /><line stroke="black" x1="97.08626297965282mm" x2="97.08626297965282mm" y1="10.0mm" y2="13.628594290818867mm" /><line stroke="black" x1="100.71485727047168mm" x2="100.71485727047168mm" y1="10.0mm" y2="15.442891436228301mm" /><line stroke="black" x1="104.34345156129055mm" x2="104.34345156129055mm" y1="10.0mm" y2="13.628594290818867mm" /><line stroke="black" x1="107.97204585210942mm" x2="107.97204585210942mm" y1="10.0mm" y2="13.628594290818867mm" /><line stroke="black" x1="111.60064014292828mm" x2="111.60064014292828mm" y1="10.0mm" y2="13.628594290818867mm" /><line stroke="black" x1="115.22923443374715mm" x2="115.22923443374715mm" y1="10.0mm" y2="13.628594290818867mm" /><line stroke="black" x1="118.85782872456602mm" x2="118.85782872456602mm" y1="10.0mm" y2="17.257188581637735mm" /><line stroke="black" x1="118.85782872456602mm" x2="118.85782872456602mm" y1="195.2mm" y2="187.94281141836225mm" /><line stroke="black" x1="115.22923443374715mm" x2="115.22923443374715mm" y1="195.2mm" y2="191.57140570918114mm" /><line stroke="black" x1="111.60064014292828mm" x2="111.60064014292828mm" y1="195.2mm" y2="191.57140570918114mm" /><line stroke="black" x1="107.97204585210942mm" x2="107.97204585210942mm" y1="195.2mm" y2="191.57140570918114mm" /><line stroke="black" x1="104.34345156129055mm" x2="104.34345156129055mm" y1="195.2mm" y2="191.57140570918114mm" /><line stroke="black" x1="100.71485727047168mm" x2="100.71485727047168mm" y1="195.2mm" y2="189.75710856377168mm" /><line stroke="black" x1="97.08626297965282mm" x2="97.08626297965282mm" y1="195.2mm" y2="191.57140570918114mm" /><line stroke="black" x1="93.45766868883395mm" x2="93.45766868883395mm" y1="195.2mm" y2="191.57140570918114mm" /><line stroke="black" x1="89.82907439801508mm" x2="89.82907439801508mm" y1="195.2mm" y2="191.57140570918114mm" /><line stroke="black" x1="86.20048010719621mm" x2="86.20048010719621mm" y1="195.2mm" y2="191.57140570918114mm" /><line stroke="black" x1="82.57188581637735mm" x2="82.57188581637735mm" y1="195.2mm" y2="187.94281141836225mm" /><line stroke="black" x1="118.85782872456602mm" x2="106.51116205789936mm" y1="10.0mm" y2="10.0mm" /><line stroke="black" x1="118.85782872456602mm" x2="112.68449539123269mm" y1="16.173333333333332mm" y2="16.173333333333332mm" /><line stroke="black" x1="118.85782872456602mm" x2="112.68449539123269mm" y1="22.346666666666668mm" y2="22.346666666666668mm" /><line stroke="black" x1="118.85782872456602mm" x2="112.68449539123269mm" y1="28.520000000000003mm" y2="28.520000000000003mm" /><line stroke="black" x1="118.85782872456602mm" x2="112.68449539123269mm" y1="34.693333333333335mm" y2="34.693333333333335mm" /><line stroke="black" x1="118.85782872456602mm" x2="109.59782872456603mm" y1="40.86666666666667mm" y2="40.86666666666667mm" /><line stroke="black" x1="118.85782872456602mm" x2="112.68449539123269mm" y1="47.040000000000006mm" y2="47.040000000000006mm" /><line stroke="black" x1="118.85782872456602mm" x2="112.68449539123269mm" y1="53.21333333333334mm" y2="53.21333333333334mm" /><line stroke="black" x1="118.85782872456602mm" x2="112.68449539123269mm" y1="59.38666666666667mm" y2="59.38666666666667mm" /><line stroke="black" x1="118.85782872456602mm" x2="112.68449539123269mm" y1="65.56mm" y2="65.56mm" /><line stroke="black" x1="118.85782872456602mm" x2="106.51116205789936mm" y1="71.73333333333333mm" y2="71.73333333333333mm" /><line stroke="black" x1="10.0mm" x2="22.346666666666668mm" y1="71.73333333333333mm" y2="71.73333333333333mm" /><line stroke="black" x1="9.999999999999998mm" x2="16.173333333333332mm" y1="65.56mm" y2="65.56mm" /><line stroke="black" x1="9.999999999999998mm" x2="16.173333333333332mm" y1="59.38666666666667mm" y2="59.38666666666666mm" /><line stroke="black" x1="9.999999999999996mm" x2="16.173333333333332mm" y1="53.21333333333333mm" y2="53.21333333333333mm" /><line stroke="black" x1="9.999999999999995mm" x2="16.17333333333333mm" y1="47.04mm" y2="47.04mm" /><line stroke="black" x1="9.999999999999995mm" x2="19.259999999999994mm" y1="40.86666666666667mm" y2="40.86666666666667mm" /><line stroke="black" x1="9.999999999999993mm" x2="16.173333333333325mm" y1="34.69333333333333mm" y2="34.69333333333333mm" /><line stroke="black" x1="9.999999999999993mm" x2="16.173333333333325mm" y1="28.519999999999996mm" y2="28.519999999999996mm" /><line stroke="black" x1="9.999999999999991mm" x2="16.173333333333325mm" y1="22.346666666666664mm" y2="22.346666666666664mm" /><line stroke="black" x1="9.99999999999999mm" x2="16.173333333333325mm" y1="16.173333333333332mm" y2="16.173333333333332mm" /><line stroke="black" x1="9.99999999999999mm" x2="22.346666666666657mm" y1="10.0mm" y2="10.0mm" /><line stroke="black" x1="118.85782872456602mm" x2="106.51116205789936mm" y1="71.73333333333333mm" y2="71.73333333333333mm" /><line stroke="black" x1="118.85782872456602mm" x2="112.68449539123269mm" y1="77.90666666666667mm" y2="77.90666666666667mm" /><line stroke="black" x1="118.85782872456602mm" x2="112.68449539123269mm" y1="84.08mm" y2="84.08mm" /><line stroke="black" x1="118.85782872456602mm" x2="112.68449539123269mm" y1="90.25333333333333mm" y2="90.25333333333333mm" /><line stroke="black" x1="118.85782872456602mm" x2="112.68449539123269mm" y1="96.42666666666668mm" y2="96.42666666666668mm" /><line stroke="black" x1="118.85782872456602mm" x2="109.59782872456603mm" y1="102.6mm" y2="102.6mm" /><line stroke="black" x1="118.85782872456602mm" x2="112.68449539123269mm" y1="108.77333333333334mm" y2="108.77333333333334mm" /><line stroke="black" x1="118.85782872456602mm" x2="112.68449539123269mm" y1="114.94666666666667mm" y2="114.94666666666667mm" /><line stroke="black" x1="118.85782872456602mm" x2="112.68449539123269mm" y1="121.12mm" y2="121.12mm" /><line stroke="black" x1="118.85782872456602mm" x2="112.68449539123269mm" y1="127.29333333333334mm" y2="127.29333333333334mm" /><line stroke="black" x1="118.85782872456602mm" x2="106.51116205789936mm" y1="133.46666666666667mm" y2="133.46666666666667mm" /><line stroke="black" x1="10.0mm" x2="22.346666666666668mm" y1="133.46666666666667mm" y2="133.46666666666667mm" /><line stroke="black" x1="9.999999999999998mm" x2="16.173333333333332mm" y1="127.29333333333334mm" y2="127.29333333333334mm" /><line stroke="black" x1="9.999999999999998mm" x2="16.173333333333332mm" y1="121.12mm" y2="121.12mm" /><line stroke="black" x1="9.999999999999996mm" x2="16.173333333333332mm" y1="114.94666666666666mm" y2="114.94666666666666mm" /><line stroke="black" x1="9.999999999999995mm" x2="16.17333333333333mm" y1="108.77333333333334mm" y2="108.77333333333334mm" /><line stroke="black" x1="9.999999999999995mm" x2="19.259999999999994mm" y1="102.6mm" y2="102.6mm" /><line stroke="black" x1="9.999999999999993mm" x2="16.173333333333325mm" y1="96.42666666666666mm" y2="96.42666666666666mm" /><line stroke="black" x1="9.999999999999993mm" x2="16.173333333333325mm" y1="90.25333333333333mm" y2="90.25333333333333mm" /><line stroke="black" x1="9.999999999999991mm" x2="16.173333333333325mm" y1="84.08mm" y2="84.08mm" /><line stroke="black" x1="9.99999999999999mm" x2="16.173333333333325mm" y1="77.90666666666667mm" y2="77.90666666666667mm" /><line stroke="black" x1="9.99999999999999mm" x2="22.346666666666657mm" y1="71.73333333333333mm" y2="71.73333333333333mm" /><line stroke="black" x1="118.85782872456602mm" x2="106.51116205789936mm" y1="133.46666666666667mm" y2="133.46666666666667mm" /><line stroke="black" x1="118.85782872456602mm" x2="112.68449539123269mm" y1="139.64000000000001mm" y2="139.64000000000001mm" /><line stroke="black" x1="118.85782872456602mm" x2="112.68449539123269mm" y1="145.81333333333333mm" y2="145.81333333333333mm" /><line stroke="black" x1="118.85782872456602mm" x2="112.68449539123269mm" y1="151.98666666666668mm" y2="151.98666666666668mm" /><line stroke="black" x1="118.85782872456602mm" x2="112.68449539123269mm" y1="158.16mm" y2="158.16mm" /><line stroke="black" x1="118.85782872456602mm" x2="109.59782872456603mm" y1="164.33333333333334mm" y2="164.33333333333334mm" /><line stroke="black" x1="118.85782872456602mm" x2="112.68449539123269mm" y1="170.50666666666666mm" y2="170.50666666666666mm" /><line stroke="black" x1="118.85782872456602mm" x2="112.68449539123269mm" y1="176.68mm" y2="176.68mm" /><line stroke="black" x1="118.85782872456602mm" x2="112.68449539123269mm" y1="182.85333333333335mm" y2="182.85333333333335mm" /><line stroke="black" x1="118.85782872456602mm" x2="112.68449539123269mm" y1="189.02666666666667mm" y2="189.02666666666667mm" /><line stroke="black" x1="118.85782872456602mm" x2="106.51116205789936mm" y1="195.2mm" y2="195.2mm" /><line stroke="black" x1="10.0mm" x2="22.346666666666668mm" y1="195.2mm" y2="195.2mm" /><line stroke="black" x1="9.999999999999998mm" x2="16.173333333333332mm" y1="189.02666666666664mm" y2="189.02666666666664mm" /><line stroke="black" x1="9.999999999999998mm" x2="16.173333333333332mm" y1="182.85333333333332mm" y2="182.85333333333332mm" /><line stroke="black" x1="9.999999999999996mm" x2="16.173333333333332mm" y1="176.67999999999998mm" y2="176.67999999999998mm" /><line stroke="black" x1="9.999999999999995mm" x2="16.17333333333333mm" y1="170.50666666666666mm" y2="170.50666666666666mm" /><line stroke="black" x1="9.999999999999995mm" x2="19.259999999999994mm" y1="164.33333333333331mm" y2="164.33333333333331mm" /><line stroke="black" x1="9.999999999999993mm" x2="16.173333333333325mm" y1="158.15999999999997mm" y2="158.15999999999997mm" /><line stroke="black" x1="9.999999999999993mm" x2="16.173333333333325mm" y1="151.98666666666665mm" y2="151.98666666666665mm" /><line stroke="black" x1="9.999999999999991mm" x2="16.173333333333325mm" y1="145.81333333333333mm" y2="145.81333333333333mm" /><line stroke="black" x1="9.99999999999999mm" x2="16.173333333333325mm" y1="139.64mm" y2="139.64mm" /><line stroke="black" x1="9.99999999999999mm" x2="22.346666666666657mm" y1="133.46666666666664mm" y2="133.46666666666664mm" /><line stroke="black" x1="10.0mm" x2="118.85782872456602mm" y1="71.73333333333333mm" y2="71.73333333333333mm" /><line stroke="black" x1="10.0mm" x2="118.85782872456602mm" y1="133.46666666666667mm" y2="133.46666666666667mm" /><line stroke="black" x1="46.28594290818867mm" x2="46.28594290818867mm" y1="10.0mm" y2="195.2mm" /><line stroke="black" x1="82.57188581637735mm" x2="82.57188581637735mm" y1="10.0mm" y2="195.2mm" /><circle cx="64.42891436228301mm" cy="102.6mm" fill="none" r="38.10024005359811mm" stroke="black" /><line stroke="black" x1="64.42891436228301mm" x2="64.42891436228301mm" y1="140.7002400535981mm" y2="144.51026405895792mm" /><text rotate="0.0" x="64.42891436228301mm" y="147.55828326324576mm">0</text><line stroke="black" x1="67.74956908301843mm" x2="67.9156018190552mm" y1="140.5552571374172mm" y2="142.45301999428807mm" /><text rotate="5.0" x="68.04842800788461mm" y="143.97123027978475mm" /><line stroke="black" x1="71.0449516162629mm" x2="71.7065553416609mm" y1="140.1214117964097mm" y2="143.87355297605063mm" /><text rotate="10.0" x="72.23583832197929mm" y="146.87526591976342mm">10</text><line stroke="black" x1="74.28998211113209mm" x2="74.78303549857453mm" y1="139.4020058555836mm" y2="141.24210614836278mm" /><text rotate="15.0" x="75.1774782085285mm" y="142.71418638258612mm" /><line stroke="black" x1="77.45996392615702mm" x2="78.76306888254442mm" y1="138.40251442853784mm" y2="141.98276587139162mm" /><text rotate="20.0" x="79.80555284765434mm" y="144.84696702567464mm">20</text><line stroke="black" x1="80.530771585638mm" x2="81.33586444680577mm" y1="137.13054424854164mm" y2="138.8570714609687mm" /><text rotate="25.0" x="81.97993873573996mm" y="140.23829323091036mm" /><line stroke="black" x1="83.47903438908206mm" x2="85.38404639176197mm" y1="135.59577577670134mm" y2="138.89535335437148mm" /><text rotate="30.0" x="86.90805599390589mm" y="141.53501541650758mm">30</text><line stroke="black" x1="86.2823142763452mm" x2="87.37498427204831mm" y1="133.8098895278062mm" y2="135.37038400419652mm" /><text rotate="35.0" x="88.2491202686108mm" y="136.61877958530877mm" /><line stroke="black" x1="88.91927659481868mm" x2="91.36831281807224mm" y1="131.78647717455794mm" y2="134.70512489201374mm" /><text rotate="40.0" x="93.32754179667509mm" y="137.04004306597835mm">40</text><line stroke="black" x1="91.36985246901753mm" x2="92.71689937435427mm" y1="129.54093810673453mm" y2="130.88798501207125mm" /><text rotate="45.0" x="93.79453689862365mm" y="131.96562253634065mm" /><line stroke="black" x1="93.61539153684095mm" x2="96.53403925429674mm" y1="127.09036223253567mm" y2="129.53939845578924mm" /><text rotate="50.0" x="98.86895742826138mm" y="131.4986274343921mm">50</text><line stroke="black" x1="95.63880389008922mm" x2="97.19929836647954mm" y1="124.45339991406219mm" y2="125.5460699097653mm" /><text rotate="55.0" x="98.44769394759179mm" y="126.4202059063278mm" /><line stroke="black" x1="97.42469013898435mm" x2="100.72426771665448mm" y1="121.65012002679904mm" y2="123.55513202947895mm" /><text rotate="60.0" x="103.36392977879059mm" y="125.07914163162289mm">60</text><line stroke="black" x1="98.95945861082464mm" x2="100.68598582325173mm" y1="118.701857223355mm" y2="119.50695008452274mm" /><text rotate="65.0" x="102.06720759319339mm" y="120.15102437345695mm" /><line stroke="black" x1="100.23142879082084mm" x2="103.81168023367464mm" y1="115.631049563874mm" y2="116.93415452026142mm" /><text rotate="70.0" x="106.67588138795766mm" y="117.97663848537132mm">70</text><line stroke="black" x1="101.23092021786661mm" x2="103.07102051064581mm" y1="112.46106774884908mm" y2="112.95412113629152mm" /><text rotate="75.0" x="104.54310074486915mm" y="113.34856384624548mm" /><line stroke="black" x1="101.95032615869269mm" x2="105.70246733833366mm" y1="109.21603725397989mm" y2="109.87764097937789mm" /><text rotate="80.0" x="108.70418028204642mm" y="110.40692395969629mm">80</text><line stroke="black" x1="102.38417149970022mm" x2="104.28193435657107mm" y1="105.92065472073541mm" y2="106.08668745677218mm" /><text rotate="85.0" x="105.80014464206775mm" y="106.2195136456016mm" /><line stroke="black" x1="102.52915441588112mm" x2="106.33917842124093mm" y1="102.6mm" y2="102.6mm" /><text rotate="90.0" x="109.38719762552877mm" y="102.6mm">90</text><line stroke="black" x1="102.38417149970022mm" x2="104.28193435657107mm" y1="99.27934527926458mm" y2="99.1133125432278mm" /><text rotate="95.0" x="105.80014464206775mm" y="98.98048635439838mm" /><line stroke="black" x1="101.95032615869269mm" x2="105.70246733833366mm" y1="95.9839627460201mm" y2="95.3223590206221mm" /><text rotate="100.0" x="108.70418028204642mm" y="94.79307604030372mm">100</text><line stroke="black" x1="101.23092021786661mm" x2="103.07102051064581mm" y1="92.73893225115091mm" y2="92.24587886370846mm" /><text rotate="105.0" x="104.54310074486915mm" y="91.85143615375449mm" /><line stroke="black" x1="100.23142879082086mm" x2="103.81168023367465mm" y1="89.56895043612599mm" y2="88.26584547973859mm" /><text rotate="110.0" x="106.67588138795767mm" y="87.22336151462866mm">110</text><line stroke="black" x1="98.95945861082464mm" x2="100.68598582325174mm" y1="86.498142776645mm" y2="85.69304991547725mm" /><text rotate="115.0" x="102.06720759319339mm" y="85.04897562654304mm" /><line stroke="black" x1="97.42469013898435mm" x2="100.72426771665448mm" y1="83.54987997320094mm" y2="81.64486797052103mm" /><text rotate="120.0" x="103.36392977879059mm" y="80.12085836837713mm">120</text><line stroke="black" x1="95.63880389008924mm" x2="97.19929836647955mm" y1="80.74660008593781mm" y2="79.65393009023471mm" /><text rotate="125.0" x="98.4476939475918mm" y="78.77979409367222mm" /><line stroke="black" x1="93.61539153684095mm" x2="96.53403925429674mm" y1="78.10963776746432mm" y2="75.66060154421075mm" /><text rotate="130.0" x="98.86895742826138mm" y="73.7013725656079mm">130</text><line stroke="black" x1="91.36985246901754mm" x2="92.71689937435427mm" y1="75.65906189326546mm" y2="74.31201498792873mm" /><text rotate="135.0" x="93.79453689862365mm" y="73.23437746365936mm" /><line stroke="black" x1="88.91927659481868mm" x2="91.36831281807225mm" y1="73.41352282544206mm" y2="70.49487510798626mm" /><text rotate="140.0" x="93.3275417966751mm" y="68.15995693402164mm">140</text><line stroke="black" x1="86.2823142763452mm" x2="87.37498427204832mm" y1="71.39011047219378mm" y2="69.82961599580347mm" /><text rotate="145.0" x="88.24912026861081mm" y="68.58122041469122mm" /><line stroke="black" x1="83.47903438908206mm" x2="85.38404639176197mm" y1="69.60422422329864mm" y2="66.30464664562851mm" /><text rotate="150.0" x="86.90805599390589mm" y="63.66498458349241mm">150</text><line stroke="black" x1="80.53077158563802mm" x2="81.33586444680577mm" y1="68.06945575145836mm" y2="66.34292853903128mm" /><text rotate="155.0" x="81.97993873573998mm" y="64.96170676908962mm" /><line stroke="black" x1="77.45996392615703mm" x2="78.76306888254443mm" y1="66.79748557146215mm" y2="63.21723412860837mm" /><text rotate="160.0" x="79.80555284765435mm" y="60.353032974325345mm">160</text><line stroke="black" x1="74.28998211113209mm" x2="74.78303549857455mm" y1="65.79799414441639mm" y2="63.95789385163721mm" /><text rotate="165.0" x="75.17747820852851mm" y="62.48581361741387mm" /><line stroke="black" x1="71.0449516162629mm" x2="71.7065553416609mm" y1="65.07858820359031mm" y2="61.32644702394934mm" /><text rotate="170.0" x="72.23583832197929mm" y="58.324734080236574mm">170</text><line stroke="black" x1="67.74956908301844mm" x2="67.91560181905521mm" y1="64.6447428625828mm" y2="62.74698000571193mm" /><text rotate="175.0" x="68.04842800788464mm" y="61.22876972021525mm" /><line stroke="black" x1="64.42891436228301mm" x2="64.42891436228301mm" y1="64.4997599464019mm" y2="60.68973594104207mm" /><text rotate="180.0" x="64.42891436228301mm" y="57.64171673675423mm">180</text><line stroke="black" x1="61.1082596415476mm" x2="60.94222690551083mm" y1="64.6447428625828mm" y2="62.74698000571193mm" /><text rotate="185.0" x="60.80940071668141mm" y="61.22876972021525mm" /><line stroke="black" x1="57.812877108303105mm" x2="57.15127338290512mm" y1="65.07858820359031mm" y2="61.32644702394934mm" /><text rotate="190.0" x="56.621990402586725mm" y="58.324734080236574mm">190</text><line stroke="black" x1="54.56784661343395mm" x2="54.0747932259915mm" y1="65.79799414441638mm" y2="63.9578938516372mm" /><text rotate="195.0" x="53.680350516037535mm" y="62.48581361741386mm" /><line stroke="black" x1="51.397864798409mm" x2="50.0947598420216mm" y1="66.79748557146215mm" y2="63.21723412860836mm" /><text rotate="200.0" x="49.05227587691168mm" y="60.35303297432534mm">200</text><line stroke="black" x1="48.32705713892801mm" x2="47.52196427776026mm" y1="68.06945575145835mm" y2="66.34292853903128mm" /><text rotate="205.0" x="46.87788998882606mm" y="64.9617067690896mm" /><line stroke="black" x1="45.37879433548395mm" x2="43.47378233280405mm" y1="69.60422422329864mm" y2="66.30464664562851mm" /><text rotate="210.0" x="41.94977273066012mm" y="63.66498458349241mm">210</text><line stroke="black" x1="42.57551444822083mm" x2="41.482844452517725mm" y1="71.39011047219377mm" y2="69.82961599580347mm" /><text rotate="215.0" x="40.60870845595523mm" y="68.58122041469122mm" /><line stroke="black" x1="39.938552129747336mm" x2="37.48951590649377mm" y1="73.41352282544204mm" y2="70.49487510798625mm" /><text rotate="220.0" x="35.53028692789092mm" y="68.15995693402162mm">220</text><line stroke="black" x1="37.48797625554848mm" x2="36.14092935021175mm" y1="75.65906189326546mm" y2="74.31201498792873mm" /><text rotate="225.0" x="35.06329182594237mm" y="73.23437746365934mm" /><line stroke="black" x1="35.24243718772507mm" x2="32.323789470269276mm" y1="78.10963776746432mm" y2="75.66060154421075mm" /><text rotate="230.0" x="29.988871296304644mm" y="73.7013725656079mm">230</text><line stroke="black" x1="33.2190248344768mm" x2="31.658530358086487mm" y1="80.74660008593779mm" y2="79.65393009023468mm" /><text rotate="235.0" x="30.41013477697424mm" y="78.7797940936722mm" /><line stroke="black" x1="31.43313858558168mm" x2="28.133561007911545mm" y1="83.54987997320092mm" y2="81.64486797052102mm" /><text rotate="240.0" x="25.49389894577544mm" y="80.1208583683771mm">240</text><line stroke="black" x1="29.898370113741386mm" x2="28.171842901314307mm" y1="86.49814277664497mm" y2="85.69304991547722mm" /><text rotate="245.0" x="26.79062113137264mm" y="85.04897562654301mm" /><line stroke="black" x1="28.626399933745176mm" x2="25.04614849089139mm" y1="89.56895043612596mm" y2="88.26584547973856mm" /><text rotate="250.0" x="22.181947336608367mm" y="87.22336151462864mm">250</text><line stroke="black" x1="27.6269085066994mm" x2="25.786808213920217mm" y1="92.73893225115093mm" y2="92.24587886370847mm" /><text rotate="255.0" x="24.314727979696876mm" y="91.8514361537545mm" /><line stroke="black" x1="26.90750256587333mm" x2="23.155361386232357mm" y1="95.9839627460201mm" y2="95.3223590206221mm" /><text rotate="260.0" x="20.15364844251959mm" y="94.79307604030372mm">260</text><line stroke="black" x1="26.47365722486581mm" x2="24.575894367994948mm" y1="99.27934527926458mm" y2="99.1133125432278mm" /><text rotate="265.0" x="23.057684082498263mm" y="98.98048635439838mm" /><line stroke="black" x1="26.328674308684903mm" x2="22.51865030332509mm" y1="102.6mm" y2="102.59999999999998mm" /><text rotate="270.0" x="19.47063109903725mm" y="102.59999999999998mm">270</text><line stroke="black" x1="26.47365722486581mm" x2="24.575894367994948mm" y1="105.9206547207354mm" y2="106.08668745677217mm" /><text rotate="275.0" x="23.057684082498263mm" y="106.2195136456016mm" /><line stroke="black" x1="26.907502565873322mm" x2="23.15536138623235mm" y1="109.21603725397988mm" y2="109.87764097937787mm" /><text rotate="280.0" x="20.153648442519582mm" y="110.40692395969626mm">280</text><line stroke="black" x1="27.626908506699408mm" x2="25.786808213920224mm" y1="112.46106774884909mm" y2="112.95412113629153mm" /><text rotate="285.0" x="24.314727979696883mm" y="113.3485638462455mm" /><line stroke="black" x1="28.626399933745162mm" x2="25.046148490891376mm" y1="115.63104956387399mm" y2="116.93415452026139mm" /><text rotate="290.0" x="22.181947336608353mm" y="117.9766384853713mm">290</text><line stroke="black" x1="29.89837011374138mm" x2="28.171842901314292mm" y1="118.701857223355mm" y2="119.50695008452276mm" /><text rotate="295.0" x="26.79062113137263mm" y="120.15102437345696mm" /><line stroke="black" x1="31.433138585581666mm" x2="28.13356100791153mm" y1="121.65012002679904mm" y2="123.55513202947895mm" /><text rotate="300.0" x="25.493898945775427mm" y="125.07914163162289mm">300</text><line stroke="black" x1="33.2190248344768mm" x2="31.65853035808648mm" y1="124.45339991406219mm" y2="125.5460699097653mm" /><text rotate="305.0" x="30.410134776974232mm" y="126.42020590632778mm" /><line stroke="black" x1="35.24243718772506mm" x2="32.32378947026927mm" y1="127.09036223253567mm" y2="129.53939845578924mm" /><text rotate="310.0" x="29.988871296304637mm" y="131.4986274343921mm">310</text><line stroke="black" x1="37.487976255548475mm" x2="36.14092935021175mm" y1="129.54093810673453mm" y2="130.88798501207125mm" /><text rotate="315.0" x="35.063291825942365mm" y="131.96562253634062mm" /><line stroke="black" x1="39.93855212974733mm" x2="37.48951590649376mm" y1="131.78647717455792mm" y2="134.7051248920137mm" /><text rotate="320.0" x="35.53028692789091mm" y="137.04004306597835mm">320</text><line stroke="black" x1="42.5755144482208mm" x2="41.482844452517696mm" y1="133.8098895278062mm" y2="135.37038400419652mm" /><text rotate="325.0" x="40.60870845595521mm" y="136.61877958530877mm" /><line stroke="black" x1="45.37879433548394mm" x2="43.473782332804035mm" y1="135.59577577670132mm" y2="138.89535335437145mm" /><text rotate="330.0" x="41.94977273066011mm" y="141.53501541650758mm">330</text><line stroke="black" x1="48.327057138927984mm" x2="47.52196427776023mm" y1="137.1305442485416mm" y2="138.8570714609687mm" /><text rotate="335.0" x="46.87788998882603mm" y="140.23829323091036mm" /><line stroke="black" x1="51.397864798409mm" x2="50.0947598420216mm" y1="138.40251442853784mm" y2="141.98276587139162mm" /><text rotate="340.0" x="49.052275876911686mm" y="144.84696702567464mm">340</text><line stroke="black" x1="54.567846613433936mm" x2="54.074793225991485mm" y1="139.4020058555836mm" y2="141.24210614836278mm" /><text rotate="345.0" x="53.68035051603752mm" y="142.71418638258612mm" /><line stroke="black" x1="57.81287710830308mm" x2="57.15127338290508mm" y1="140.12141179640966mm" y2="143.87355297605063mm" /><text rotate="350.0" x="56.62199040258669mm" y="146.87526591976342mm">350</text><line stroke="black" x1="61.10825964154758mm" x2="60.942226905510815mm" y1="140.5552571374172mm" y2="142.45301999428807mm" /><text rotate="355.0" x="60.809400716681395mm" y="143.97123027978475mm" /></svg>