<?xml version="1.0" encoding="utf-8" ?>
<svg baseProfile="full" height="100%" version="1.1" width="100%" xmlns="http://www.w3.org/2000/svg" xmlns:ev="http://www.w3.org/2001/xml-events" xmlns:xlink="http://www.w3.org/1999/xlink"><defs /><rect fill="white" height="185.2mm" stroke="black" width="108.85782872456602mm" x="10.0mm" y="10.0mm" /><line stroke="black" x1="10.0mm" x2="10.0mm" y1="10.0mm" y2="17.257188581637735mm" /><line stroke="black" x1="13.628594290818867mm" x2="13.628594290818867mm" y1="10.0mm" y2="13.628594290818867mm" /><line stroke="black" x1="17.257188581637735mm" x2="17.257188581637735mm" y1="10.0mm" y2="13.628594290818867mm" /><line stroke="black" x1="20.885782872456602mm" x2="20.885782872456602mm" y1="10.0mm" y2="13.628594290818867mm" /><line stroke="black" x1="24.51437716327547mm" x2="24.51437716327547mm" y1="10.0mm" y2="13.628594290818867mm" /><line stroke="black" x1="28.142971454094337mm" x2="28.142971454094337mm" y1="10.0mm" y2="15.442891436228301mm" /><line stroke="black" x1="31.771565744913207mm" x2="31.771565744913207mm" y1="10.0mm" y2="13.628594290818867mm" /><line stroke="black" x1="35.40016003573207mm" x2="35.40016003573207mm" y1="10.0mm" y2="13.628594290818867mm" /><line stroke="black" x1="39.02875432655094mm" x2="39.02875432655094mm" y1="10.0mm" y2="13.628594290818867mm" /><line stroke="black" x1="42.657348617369806mm" x2="42.657348617369806mm" y1="10.0mm" y2="13.628594290818867mm" /><line stroke="black" x1="46.28594290818867mm" x2="46.28594290818867mm" y1="10.0mm" y2="17.257188581637735mm" /><line stroke="black" x1="46.28594290818867mm" x2="46.28594290818867mm" y1="195.2mm" y2="187.94281141836225mm" /><line stroke="black" x1="42.657348617369806mm" x2="42.657348617369806mm" y1="195.2mm" y2="191.57140570918114mm" /><line stroke="black" x1="39.02875432655094mm" x2="39.02875432655094mm" y1="195.2mm" y2="191.57140570918114mm" /><line stroke="black" x1="35.40016003573207mm" x2="35.40016003573207mm" y1="195.2mm" y2="191.57140570918114mm" /><line stroke="black" x1="31.771565744913204mm" x2="31.771565744913204mm" y1="195.2mm" y2="191.57140570918114mm" /><line stroke="black" x1="28.142971454094337mm" x2="28.142971454094337mm" y1="195.2mm" y2="189.75710856377168mm" /><line stroke="black" x1="24.514377163275466mm" x2="24.514377163275466mm" y1="195.2mm" y2="191.57140570918114mm" /><line stroke="black" x1="20.8857828724566mm" x2="20.8857828724566mm" y1="195.2mm" y2="191.57140570918114mm" /><line stroke="black" x1="17.257188581637735mm" x2="17.257188581637735mm" y1="195.2mm" y2="191.57140570918114mm" /><line stroke="black" x1="13.628594290818867mm" x2="13.628594290818867mm" y1="195.2mm" y2="191.57140570918114mm" /><line stroke="black" x1="10.0mm" x2="10.0mm" y1="195.2mm" y2="187.94281141836225mm" /><line stroke="black" x1="46.28594290818867mm" x2="46.28594290818867mm" y1="10.0mm" y2="17.257188581637735mm" /><line stroke="black" x1="49.91453719900754mm" x2="49.91453719900754mm" y1="10.0mm" y2="13.628594290818867mm" /><line stroke="black" x1="53.54313148982641mm" x2="53.54313148982641mm" y1="10.0mm" y2="13.628594290818867mm" /><line stroke="black" x1="57.171725780645275mm" x2="57.171725780645275mm" y1="10.0mm" y2="13.628594290818867mm" /><line stroke="black" x1="60.80032007146414mm" x2="60.80032007146414mm" y1="10.0mm" y2="13.628594290818867mm" /><line stroke="black" x1="64.42891436228301mm" x2="64.42891436228301mm" y1="10.0mm" y2="15.442891436228301mm" /><line stroke="black" x1="68.05750865310188mm" x2="68.05750865310188mm" y1="10.0mm" y2="13.628594290818867mm" /><line stroke="black" x1="71.68610294392074mm" x2="71.68610294392074mm" y1="10.0mm" y2="13.628594290818867mm" /><line stroke="black" x1="75.31469723473961mm" x2="75.31469723473961mm" y1="10.0mm" y2="13.628594290818867mm" /><line stroke="black" x1="78.94329152555848mm" x2="78.94329152555848mm" y1="10.0mm" y2="13.628594290818867mm" /><line stroke="black" x1="82.57188581637735mm" x2="82.57188581637735mm" y1="10.0mm" y2="17.257188581637735mm" /><line stroke="black" x1="82.57188581637735mm" x2="82.57188581637735mm" y1="195.2mm" y2="187.94281141836225mm" /><line stroke="black" x1="78.94329152555848mm" x2="78.94329152555848mm" y1="195.2mm" y2="191.57140570918114mm" /><line stroke="black" x1="75.31469723473961mm" x2="75.31469723473961mm" y1="195.2mm" y2="191.57140570918114mm" /><line stroke="black" x1="71.68610294392074mm" x2="71.68610294392074mm" y1="195.2mm" y2="191.57140570918114mm" /><line stroke="black" x1="68.05750865310188mm" x2="68.05750865310188mm" y1="195.2mm" y2="191.57140570918114mm" /><line stroke="black" x1="64.42891436228301mm" x2="64.42891436228301mm" y1="195.2mm" y2="189.75710856377168mm" /><line stroke="black" x1="60.80032007146414mm" x2="60.80032007146414mm" y1="195.2mm" y2="191.57140570918114mm" /><line stroke="black" x1="57.171725780645275mm" x2="57.171725780645275mm" y1="195.2mm" y2="191.57140570918114mm" /><line stroke="black" x1="53.54313148982641mm" x2="53.54313148982641mm" y1="195.2mm" y2="191.57140570918114mm" /><line stroke="black" x1="49.91453719900754mm" x2="49.91453719900754mm" y1="195.2mm" y2="191.57140570918114mm" /><line stroke="black" x1="46.28594290818867mm" x2="46.28594290818867mm" y1="195.2mm" y2="187.94281141836225mm" /><line stroke="black" x1="82.57188581637735mm" x2="82.57188581637735mm" y1="10.0mm" y2="17.257188581637735mm" /><line stroke="black" x1="86.20048010719621mm" x2="86.20048010719621mm" y1="10.0mm" y2="13.628594290818867mm" /><line stroke="black" x1="89.82907439801508mm" x2="89.82907439801508mm" y1="10.0mm" y2="13.628594290818867mm" /><line stroke="black" x1="93.45766868883395mm" x2="93.45766868883395mm" y1="10.0mm" y2="13.628594290818867mm" /><line stroke="black" x1="97.08626297965282mm" x2="97.08626297965282mm" y1="10.0mm" y2="13.628594290818867mm" /><line stroke="black" x1="100.71485727047168mm" x2="100.71485727047168mm" y1="10.0mm" y2="15.442891436228301mm" /><line stroke="black" x1="104.34345156129055mm" x2="104.34345156129055mm" y1="10.0mm" y2="13.628594290818867mm" /><line stroke="black" x1="107.97204585210942mm" x2="107.97204585210942mm" y1="10.0mm" y2="13.628594290818867mm" /><line stroke="black" x1="111.60064014292828mm" x2="111.60064014292828mm" y1="10.0mm" y2="13.628594290818867mm" /><line stroke="black" x1="115.22923443374715mm" x2="115.22923443374715mm" y1="10.0mm" y2="13.628594290818867mm" /><line stroke="black" x1="118.85782872456602mm" x2="118.85782872456602mm" y1="10.0mm" y2="17.257188581637735mm" /><line stroke="black" x1="118.85782872456602mm" x2="118.85782872456602mm" y1="195.2mm" y2="187.94281141836225mm" /><line stroke="black" x1="115.22923443374715mm" x2="115.22923443374715mm" y1="195.2mm" y2="191.57140570918114mm" /><line stroke="black" x1="111.60064014292828mm" x2="111.60064014292828mm" y1="195.2mm" y2="191.57140570918114mm" /><line stroke="black" x1="107.97204585210942mm" x2="107.97204585210942mm" y1="195.2mm" y2="191.57140570918114mm" /><line stroke="black" x1="104.34345156129055mm" x2="104.34345156129055mm" y1="195.2mm" y2="191.57140570918114mm" /><line stroke="black" x1="100.71485727047168mm" x2="100.71485727047168mm" y1="195.2mm" y2="189.75710856377168mm" /><line stroke="black" x1="97.08626297965282mm" x2="97.08626297965282mm" y1="195.2mm" y2="191.57140570918114mm" /><line stroke="black" x1="93.45766868883395mm" x2="93.45766868883395mm" y1="195.2mm" y2="191.57140570918114mm" /><line stroke="black" x1="89.82907439801508mm" x2="89.82907439801508mm" y1="195.2mm" y2="191.57140570918114mm" /><line stroke="black" x1="86.20048010719621mm" x2="86.20048010719621mm" y1="195.2mm" y2="191.57140570918114mm" /><line stroke="black" x1="82.57188581637735mm" x2="82.57188581637735mm" y1="195.2mm" y2="187.94281141836225mm" /><line stroke="black" x1="118.85782872456602mm" x2="106.51116205789936mm" y1="10.0mm" y2="10.0mm" /><line stroke="black" x1="118.85782872456602mm" x2="112.68449539123269mm" y1="16.173333333333332mm" y2="16.173333333333332mm" /><line stroke="black" x1="118.85782872456602mm" x2="112.68449539123269mm" y1="22.346666666666668mm" y2="22.346666666666668mm" /><line stroke="black" x1="118.85782872456602mm" x2="112.68449539123269mm" y1="28.520000000000003mm" y2="28.520000000000003mm" /><line stroke="black" x1="118.85782872456602mm" x2="112.68449539123269mm" y1="34.693333333333335mm" y2="34.693333333333335mm" /><line stroke="black" x1="118.85782872456602mm" x2="109.59782872456603mm" y1="40.86666666666667mm" y2="40.86666666666667mm" /><line stroke="black" x1="118.85782872456602mm" x2="112.68449539123269mm" y1="47.040000000000006mm" y2="47.040000000000006mm" /><line stroke="black" x1="118.85782872456602mm" x2="112.68449539123269mm" y1="53.21333333333334mm" y2="53.21333333333334mm" /><line stroke="black" x1="118.85782872456602mm" x2="112.68449539123269mm" y1="59.38666666666667mm" y2="59.38666666666667mm" /><line stroke="black" x1="118.85782872456602mm" x2="112.68449539123269mm" y1="65.56mm" y2="65.56mm" /><line stroke="black" x1="118.85782872456602mm" x2="106.51116205789936mm" y1="71.73333333333333mm" y2="71.73333333333333mm" /><line stroke="black" x1="10.0mm" x2="22.346666666666668mm" y1="71.73333333333333mm" y2="71.73333333333333mm" /><line stroke="black" x1="9.999999999999998mm" x2="16.173333333333332mm" y1="65.56mm" y2="65.56mm" /><line stroke="black" x1="9.999999999999998mm" x2="16.173333333333332mm" y1="59.38666666666667mm" y2="59.38666666666666mm" /><line stroke="black" x1="9.999999999999996mm" x2="16.173333333333332mm" y1="53.21333333333333mm" y2="53.21333333333333mm" /><line stroke="black" x1="9.999999999999995mm" x2="16.17333333333333mm" y1="47.04mm" y2="47.04mm" /><line stroke="black" x1="9.999999999999995mm" x2="19.259999999999994mm" y1="40.86666666666667mm" y2="40.86666666666667mm" /><line stroke="black" x1="9.999999999999993mm" x2="16.173333333333325mm" y1="34.69333333333333mm" y2="34.69333333333333mm" /><line stroke="black" x1="9.999999999999993mm" x2="16.173333333333325mm" y1="28.519999999999996mm" y2="28.519999999999996mm" /><line stroke="black" x1="9.999999999999991mm" x2="16.173333333333325mm" y1="22.346666666666664mm" y2="22.346666666666664mm" /><line stroke="black" x1="9.99999999999999mm" x2="16.173333333333325mm" y1="16.173333333333332mm" y2="16.173333333333332mm" /><line stroke="black" x1="9.99999999999999mm" x2="22.346666666666657mm" y1="10.0mm" y2="10.0mm" /><line stroke="black" x1="118.85782872456602mm" x2="106.51116205789936mm" y1="71.73333333333333mm" y2="71.73333333333333mm" /><line stroke="black" x1="118.85782872456602mm" x2="112.68449539123269mm" y1="77.90666666666667mm" y2="77.90666666666667mm" /><line stroke="black" x1="118.85782872456602mm" x2="112.68449539123269mm" y1="84.08mm" y2="84.08mm" /><line stroke="black" x1="118.85782872456602mm" x2="112.68449539123269mm" y1="90.25333333333333mm" y2="90.25333333333333mm" /><line stroke="black" x1="118.85782872456602mm" x2="112.68449539123269mm" y1="96.42666666666668mm" y2="96.42666666666668mm" /><line stroke="black" x1="118.85782872456602mm" x2="109.59782872456603mm" y1="102.6mm" y2="102.6mm" /><line stroke="black" x1="118.85782872456602mm" x2="112.68449539123269mm" y1="108.77333333333334mm" y2="108.77333333333334mm" /><line stroke="black" x1="118.85782872456602mm" x2="112.68449539123269mm" y1="114.94666666666667mm" y2="114.94666666666667mm" /><line stroke="black" x1="118.85782872456602mm" x2="112.68449539123269mm" y1="121.12mm" y2="121.12mm" /><line stroke="black" x1="118.85782872456602mm" x2="112.68449539123269mm" y1="127.29333333333334mm" y2="127.29333333333334mm" /><line stroke="black" x1="118.85782872456602mm" x2="106.51116205789936mm" y1="133.46666666666667mm" y2="133.46666666666667mm" /><line stroke="black" x1="10.0mm" x2="22.346666666666668mm" y1="133.46666666666667mm" y2="133.46666666666667mm" /><line stroke="black" x1="9.999999999999998mm" x2="16.173333333333332mm" y1="127.29333333333334mm" y2="127.29333333333334mm" /><line stroke="black" x1="9.999999999999998mm" x2="16.173333333333332mm" y1="121.12mm" y2="121.12mm" /><line stroke="black" x1="9.999999999999996mm" x2="16.173333333333332mm" y1="114.94666666666666mm" y2="114.94666666666666mm" /><line stroke="black" x1="9.999999999999995mm" x2="16.17333333333333mm" y1="108.77333333333334mm" y2="108.77333333333334mm" /><line stroke="black" x1="9.999999999999995mm" x2="19.259999999999994mm" y1="102.6mm" y2="102.6mm" /><line stroke="black" x1="9.999999999999993mm" x2="16.173333333333325mm" y1="96.42666666666666mm" y2="96.42666666666666mm" /><line stroke="black" x1="9.999999999999993mm" x2="16.173333333333325mm" y1="90.25333333333333mm" y2="90.25333333333333mm" /><line stroke="black" x1="9.999999999999991mm" x2="16.173333333333325mm" y1="84.08mm" y2="84.08mm" /><line stroke="black" x1="9.99999999999999mm" x2="16.173333333333325mm" y1="77.90666666666667mm" y2="77.90666666666667mm" /><line stroke="black" x1="9.99999999999999mm" x2="22.346666666666657mm" y1="71.73333333333333mm" y2="71.73333333333333mm" /><line stroke="black" x1="118.85782872456602mm" x2="106.51116205789936mm" y1="133.46666666666667mm" y2="133.46666666666667mm" /><line stroke="black" x1="118.85782872456602mm" x2="112.68449539123269mm" y1="139.64000000000001mm" y2="139.64000000000001mm" /><line stroke="black" x1="118.85782872456602mm" x2="112.68449539123269mm" y1="145.81333333333333mm" y2="145.81333333333333mm" /><line stroke="black" x1="118.85782872456602mm" x2="112.68449539123269mm" y1="151.98666666666668mm" y2="151.98666666666668mm" /><line stroke="black" x1="118.85782872456602mm" x2="112.68449539123269mm" y1="158.16mm" y2="158.16mm" /><line stroke="black" x1="118.85782872456602mm" x2="109.59782872456603mm" y1="164.33333333333334mm" y2="164.33333333333334mm" /><line stroke="black" x1="118.85782872456602mm" x2="112.68449539123269mm" y1="170.50666666666666mm" y2="170.50666666666666mm" /><line stroke="black" x1="118.85782872456602mm" x2="112.68449539123269mm" y1="176.68mm" y2="176.68mm" /><line stroke="black" x1="118.85782872456602mm" x2="112.68449539123269mm" y1="182.85333333333335mm" y2="182.85333333333335mm" /><line stroke="black" x1="118.85782872456602mm" x2="112.68449539123269mm" y1="189.02666666666667mm" y2="189.02666666666667mm" /><line stroke="black" x1="118.85782872456602mm" x2="106.51116205789936mm" y1="195.2mm" y2="195.2mm" /><line stroke="black" x1="10.0mm" x2="22.346666666666668mm" y1="195.2mm" y2="195.2mm" /><line stroke="black" x1="9.999999999999998mm" x2="16.173333333333332mm" y1="189.02666666666664mm" y2="189.02666666666664mm" /><line stroke="black" x1="9.999999999999998mm" x2="16.173333333333332mm" y1="182.85333333333332mm" y2="182.85333333333332mm" /><line stroke="black" x1="9.999999999999996mm" x2="16.173333333333332mm" y1="176.67999999999998mm" y2="176.67999999999998mm" /><line stroke="black" x1="9.999999999999995mm" x2="16.17333333333333mm" y1="170.50666666666666mm" y2="170.50666666666666mm" /><line stroke="black" x1="9.999999999999995mm" x2="19.259999999999994mm" y1="164.33333333333331mm" y2="164.33333333333331mm" /><line stroke="black" x1="9.999999999999993mm" x2="16.173333333333325mm" y1="158.15999999999997mm" y2="158.15999999999997mm" /><line stroke="black" x1="9.999999999999993mm" x2="16.173333333333325mm" y1="151.98666666666665mm" y2="151.98666666666665mm" /><line stroke="black" x1="9.999999999999991mm" x2="16.173333333333325mm" y1="145.81333333333333mm" y2="145.81333333333333mm" /><line stroke="black" x1="9.99999999999999mm" x2="16.173333333333325mm" y1="139.64mm" y2="139.64mm" /><line stroke="black" x1="9.99999999999999mm" x2="22.346666666666657mm" y1="133.46666666666664mm" y2="133.46666666666664mm" /><line stroke="black" x1="10.0mm" x2="118.85782872456602mm" y1="71.73333333333333mm" y2="71.73333333333333mm" /><line stroke="black" x1="10.0mm" x2="118.85782872456602mm" y1="133.46666666666667mm" y2="133.46666666666667mm" /><line stroke="black" x1="46.28594290818867mm" x2="46.28594290818867mm" y1="10.0mm" y2="195.2mm" /><line stroke="black" x1="82.57188581637735mm" x2="82.57188581637735mm" y1="10.0mm" y2="195.2mm" /><circle cx="64.42891436228301mm" cy="102.6mm" fill="none" r="38.10024005359811mm" stroke="black" /><line stroke="black" x1="64.42891436228301mm" x2="64.42891436228301mm" y1="64.4997599464019mm" y2="60.68973594104207mm" /><text text-anchor="middle" transform="rotate(0.0,64.42891436228301,57.64171673675423)" x="0mm" y="0mm">0</text><line stroke="black" x1="67.74956908301843mm" x2="67.9156018190552mm" y1="64.6447428625828mm" y2="62.74698000571193mm" /><text text-anchor="middle" transform="rotate(5.0,68.04842800788461,61.22876972021525)" x="0mm" y="0mm" /><line stroke="black" x1="71.0449516162629mm" x2="71.7065553416609mm" y1="65.07858820359031mm" y2="61.32644702394934mm" /><text text-anchor="middle" transform="rotate(10.0,72.23583832197929,58.324734080236574)" x="0mm" y="0mm">10</text><line stroke="black" x1="74.28998211113209mm" x2="74.78303549857453mm" y1="65.79799414441638mm" y2="63.9578938516372mm" /><text text-anchor="middle" transform="rotate(15.0,75.1774782085285,62.48581361741386)" x="0mm" y="0mm" /><line stroke="black" x1="77.45996392615702mm" x2="78.76306888254442mm" y1="66.79748557146215mm" y2="63.21723412860836mm" /><text text-anchor="middle" transform="rotate(20.0,79.80555284765434,60.35303297432534)" x="0mm" y="0mm">20</text><line stroke="black" x1="80.530771585638mm" x2="81.33586444680577mm" y1="68.06945575145836mm" y2="66.34292853903128mm" /><text text-anchor="middle" transform="rotate(25.0,81.97993873573996,64.96170676908962)" x="0mm" y="0mm" /><line stroke="black" x1="83.47903438908206mm" x2="85.38404639176197mm" y1="69.60422422329864mm" y2="66.30464664562851mm" /><text text-anchor="middle" transform="rotate(30.0,86.90805599390589,63.66498458349241)" x="0mm" y="0mm">30</text><line stroke="black" x1="86.2823142763452mm" x2="87.37498427204831mm" y1="71.39011047219378mm" y2="69.82961599580347mm" /><text text-anchor="middle" transform="rotate(35.0,88.2491202686108,68.58122041469122)" x="0mm" y="0mm" /><line stroke="black" x1="88.91927659481868mm" x2="91.36831281807224mm" y1="73.41352282544204mm" y2="70.49487510798625mm" /><text text-anchor="middle" transform="rotate(40.0,93.32754179667509,68.15995693402162)" x="0mm" y="0mm">40</text><line stroke="black" x1="91.36985246901753mm" x2="92.71689937435427mm" y1="75.65906189326546mm" y2="74.31201498792873mm" /><text text-anchor="middle" transform="rotate(45.0,93.79453689862365,73.23437746365936)" x="0mm" y="0mm" /><line stroke="black" x1="93.61539153684095mm" x2="96.53403925429674mm" y1="78.10963776746432mm" y2="75.66060154421075mm" /><text text-anchor="middle" transform="rotate(50.0,98.86895742826138,73.7013725656079)" x="0mm" y="0mm">50</text><line stroke="black" x1="95.63880389008922mm" x2="97.19929836647954mm" y1="80.7466000859378mm" y2="79.6539300902347mm" /><text text-anchor="middle" transform="rotate(55.0,98.44769394759179,78.7797940936722)" x="0mm" y="0mm" /><line stroke="black" x1="97.42469013898435mm" x2="100.72426771665448mm" y1="83.54987997320094mm" y2="81.64486797052103mm" /><text text-anchor="middle" transform="rotate(60.0,103.36392977879059,80.1208583683771)" x="0mm" y="0mm">60</text><line stroke="black" x1="98.95945861082464mm" x2="100.68598582325173mm" y1="86.49814277664498mm" y2="85.69304991547725mm" /><text text-anchor="middle" transform="rotate(65.0,102.06720759319339,85.04897562654304)" x="0mm" y="0mm" /><line stroke="black" x1="100.23142879082084mm" x2="103.81168023367464mm" y1="89.56895043612599mm" y2="88.26584547973857mm" /><text text-anchor="middle" transform="rotate(70.0,106.67588138795766,87.22336151462866)" x="0mm" y="0mm">70</text><line stroke="black" x1="101.23092021786661mm" x2="103.07102051064581mm" y1="92.73893225115091mm" y2="92.24587886370847mm" /><text text-anchor="middle" transform="rotate(75.0,104.54310074486915,91.8514361537545)" x="0mm" y="0mm" /><line stroke="black" x1="101.95032615869269mm" x2="105.70246733833366mm" y1="95.9839627460201mm" y2="95.3223590206221mm" /><text text-anchor="middle" transform="rotate(80.0,108.70418028204642,94.7930760403037)" x="0mm" y="0mm">80</text><line stroke="black" x1="102.38417149970022mm" x2="104.28193435657107mm" y1="99.27934527926458mm" y2="99.1133125432278mm" /><text text-anchor="middle" transform="rotate(85.0,105.80014464206775,98.9804863543984)" x="0mm" y="0mm" /><line stroke="black" x1="102.52915441588112mm" x2="106.33917842124093mm" y1="102.6mm" y2="102.6mm" /><text text-anchor="middle" transform="rotate(90.0,109.38719762552877,102.6)" x="0mm" y="0mm">90</text><line stroke="black" x1="102.38417149970022mm" x2="104.28193435657107mm" y1="105.92065472073541mm" y2="106.08668745677218mm" /><text text-anchor="middle" transform="rotate(95.0,105.80014464206775,106.21951364560161)" x="0mm" y="0mm" /><line stroke="black" x1="101.95032615869269mm" x2="105.70246733833366mm" y1="109.21603725397989mm" y2="109.87764097937789mm" /><text text-anchor="middle" transform="rotate(100.0,108.70418028204642,110.40692395969627)" x="0mm" y="0mm">100</text><line stroke="black" x1="101.23092021786661mm" x2="103.07102051064581mm" y1="112.46106774884908mm" y2="112.95412113629153mm" /><text text-anchor="middle" transform="rotate(105.0,104.54310074486915,113.3485638462455)" x="0mm" y="0mm" /><line stroke="black" x1="100.23142879082086mm" x2="103.81168023367465mm" y1="115.631049563874mm" y2="116.9341545202614mm" /><text text-anchor="middle" transform="rotate(110.0,106.67588138795767,117.97663848537132)" x="0mm" y="0mm">110</text><line stroke="black" x1="98.95945861082464mm" x2="100.68598582325174mm" y1="118.70185722335499mm" y2="119.50695008452274mm" /><text text-anchor="middle" transform="rotate(115.0,102.06720759319339,120.15102437345695)" x="0mm" y="0mm" /><line stroke="black" x1="97.42469013898435mm" x2="100.72426771665448mm" y1="121.65012002679904mm" y2="123.55513202947895mm" /><text text-anchor="middle" transform="rotate(120.0,103.36392977879059,125.07914163162286)" x="0mm" y="0mm">120</text><line stroke="black" x1="95.63880389008924mm" x2="97.19929836647955mm" y1="124.45339991406217mm" y2="125.54606990976528mm" /><text text-anchor="middle" transform="rotate(125.0,98.4476939475918,126.42020590632777)" x="0mm" y="0mm" /><line stroke="black" x1="93.61539153684095mm" x2="96.53403925429674mm" y1="127.09036223253567mm" y2="129.53939845578924mm" /><text text-anchor="middle" transform="rotate(130.0,98.86895742826138,131.4986274343921)" x="0mm" y="0mm">130</text><line stroke="black" x1="91.36985246901754mm" x2="92.71689937435427mm" y1="129.54093810673453mm" y2="130.88798501207125mm" /><text text-anchor="middle" transform="rotate(135.0,93.79453689862365,131.96562253634062)" x="0mm" y="0mm" /><line stroke="black" x1="88.91927659481868mm" x2="91.36831281807225mm" y1="131.78647717455794mm" y2="134.7051248920137mm" /><text text-anchor="middle" transform="rotate(140.0,93.3275417966751,137.04004306597835)" x="0mm" y="0mm">140</text><line stroke="black" x1="86.2823142763452mm" x2="87.37498427204832mm" y1="133.8098895278062mm" y2="135.37038400419652mm" /><text text-anchor="middle" transform="rotate(145.0,88.24912026861081,136.61877958530877)" x="0mm" y="0mm" /><line stroke="black" x1="83.47903438908206mm" x2="85.38404639176197mm" y1="135.59577577670134mm" y2="138.89535335437148mm" /><text text-anchor="middle" transform="rotate(150.0,86.90805599390589,141.53501541650758)" x="0mm" y="0mm">150</text><line stroke="black" x1="80.53077158563802mm" x2="81.33586444680577mm" y1="137.13054424854164mm" y2="138.8570714609687mm" /><text text-anchor="middle" transform="rotate(155.0,81.97993873573998,140.23829323091036)" x="0mm" y="0mm" /><line stroke="black" x1="77.45996392615703mm" x2="78.76306888254443mm" y1="138.40251442853784mm" y2="141.98276587139162mm" /><text text-anchor="middle" transform="rotate(160.0,79.80555284765435,144.84696702567464)" x="0mm" y="0mm">160</text><line stroke="black" x1="74.28998211113209mm" x2="74.78303549857455mm" y1="139.40200585558358mm" y2="141.24210614836278mm" /><text text-anchor="middle" transform="rotate(165.0,75.17747820852851,142.71418638258612)" x="0mm" y="0mm" /><line stroke="black" x1="71.0449516162629mm" x2="71.7065553416609mm" y1="140.1214117964097mm" y2="143.87355297605063mm" /><text text-anchor="middle" transform="rotate(170.0,72.23583832197929,146.87526591976342)" x="0mm" y="0mm">170</text><line stroke="black" x1="67.74956908301844mm" x2="67.91560181905521mm" y1="140.5552571374172mm" y2="142.45301999428807mm" /><text text-anchor="middle" transform="rotate(175.0,68.04842800788464,143.97123027978475)" x="0mm" y="0mm" /><line stroke="black" x1="64.42891436228301mm" x2="64.42891436228301mm" y1="140.7002400535981mm" y2="144.51026405895792mm" /><text text-anchor="middle" transform="rotate(180.0,64.42891436228301,147.55828326324576)" x="0mm" y="0mm">180</text><line stroke="black" x1="61.1082596415476mm" x2="60.94222690551083mm" y1="140.5552571374172mm" y2="142.45301999428807mm" /><text text-anchor="middle" transform="rotate(185.0,60.80940071668141,143.97123027978475)" x="0mm" y="0mm" /><line stroke="black" x1="57.812877108303105mm" x2="57.15127338290512mm" y1="140.1214117964097mm" y2="143.87355297605063mm" /><text text-anchor="middle" transform="rotate(190.0,56.621990402586725,146.87526591976342)" x="0mm" y="0mm">190</text><line stroke="black" x1="54.56784661343395mm" x2="54.0747932259915mm" y1="139.4020058555836mm" y2="141.24210614836278mm" /><text text-anchor="middle" transform="rotate(195.0,53.680350516037535,142.71418638258612)" x="0mm" y="0mm" /><line stroke="black" x1="51.397864798409mm" x2="50.0947598420216mm" y1="138.40251442853784mm" y2="141.98276587139162mm" /><text text-anchor="middle" transform="rotate(200.0,49.05227587691168,144.84696702567464)" x="0mm" y="0mm">200</text><line stroke="black" x1="48.32705713892801mm" x2="47.52196427776026mm" y1="137.13054424854164mm" y2="138.8570714609687mm" /><text text-anchor="middle" transform="rotate(205.0,46.87788998882606,140.2382932309104)" x="0mm" y="0mm" /><line stroke="black" x1="45.37879433548395mm" x2="43.47378233280405mm" y1="135.59577577670134mm" y2="138.89535335437148mm" /><text text-anchor="middle" transform="rotate(210.0,41.94977273066012,141.53501541650758)" x="0mm" y="0mm">210</text><line stroke="black" x1="42.57551444822083mm" x2="41.482844452517725mm" y1="133.8098895278062mm" y2="135.37038400419652mm" /><text text-anchor="middle" transform="rotate(215.0,40.60870845595523,136.61877958530877)" x="0mm" y="0mm" /><line stroke="black" x1="39.938552129747336mm" x2="37.48951590649377mm" y1="131.78647717455794mm" y2="134.70512489201374mm" /><text text-anchor="middle" transform="rotate(220.0,35.53028692789092,137.04004306597835)" x="0mm" y="0mm">220</text><line stroke="black" x1="37.48797625554848mm" x2="36.14092935021175mm" y1="129.54093810673453mm" y2="130.88798501207125mm" /><text text-anchor="middle" transform="rotate(225.0,35.06329182594237,131.96562253634065)" x="0mm" y="0mm" /><line stroke="black" x1="35.24243718772507mm" x2="32.323789470269276mm" y1="127.09036223253567mm" y2="129.53939845578924mm" /><text text-anchor="middle" transform="rotate(230.0,29.988871296304644,131.4986274343921)" x="0mm" y="0mm">230</text><line stroke="black" x1="33.2190248344768mm" x2="31.658530358086487mm" y1="124.4533999140622mm" y2="125.54606990976531mm" /><text text-anchor="middle" transform="rotate(235.0,30.41013477697424,126.4202059063278)" x="0mm" y="0mm" /><line stroke="black" x1="31.43313858558168mm" x2="28.133561007911545mm" y1="121.65012002679907mm" y2="123.55513202947897mm" /><text text-anchor="middle" transform="rotate(240.0,25.49389894577544,125.07914163162289)" x="0mm" y="0mm">240</text><line stroke="black" x1="29.898370113741386mm" x2="28.171842901314307mm" y1="118.70185722335502mm" y2="119.50695008452277mm" /><text text-anchor="middle" transform="rotate(245.0,26.79062113137264,120.15102437345698)" x="0mm" y="0mm" /><line stroke="black" x1="28.626399933745176mm" x2="25.04614849089139mm" y1="115.63104956387403mm" y2="116.93415452026143mm" /><text text-anchor="middle" transform="rotate(250.0,22.181947336608367,117.97663848537135)" x="0mm" y="0mm">250</text><line stroke="black" x1="27.6269085066994mm" x2="25.786808213920217mm" y1="112.46106774884906mm" y2="112.95412113629152mm" /><text text-anchor="middle" transform="rotate(255.0,24.314727979696876,113.34856384624548)" x="0mm" y="0mm" /><line stroke="black" x1="26.90750256587333mm" x2="23.155361386232357mm" y1="109.21603725397989mm" y2="109.87764097937789mm" /><text text-anchor="middle" transform="rotate(260.0,20.15364844251959,110.40692395969627)" x="0mm" y="0mm">260</text><line stroke="black" x1="26.47365722486581mm" x2="24.575894367994948mm" y1="105.92065472073541mm" y2="106.08668745677218mm" /><text text-anchor="middle" transform="rotate(265.0,23.057684082498263,106.21951364560161)" x="0mm" y="0mm" /><line stroke="black" x1="26.328674308684903mm" x2="22.51865030332509mm" y1="102.6mm" y2="102.60000000000001mm" /><text text-anchor="middle" transform="rotate(270.0,19.47063109903725,102.60000000000001)" x="0mm" y="0mm">270</text><line stroke="black" x1="26.47365722486581mm" x2="24.575894367994948mm" y1="99.27934527926459mm" y2="99.11331254322782mm" /><text text-anchor="middle" transform="rotate(275.0,23.057684082498263,98.9804863543984)" x="0mm" y="0mm" /><line stroke="black" x1="26.907502565873322mm" x2="23.15536138623235mm" y1="95.98396274602011mm" y2="95.32235902062212mm" /><text text-anchor="middle" transform="rotate(280.0,20.153648442519582,94.79307604030373)" x="0mm" y="0mm">280</text><line stroke="black" x1="27.626908506699408mm" x2="25.786808213920224mm" y1="92.7389322511509mm" y2="92.24587886370846mm" /><text text-anchor="middle" transform="rotate(285.0,24.314727979696883,91.85143615375449)" x="0mm" y="0mm" /><line stroke="black" x1="28.626399933745162mm" x2="25.046148490891376mm" y1="89.568950436126mm" y2="88.2658454797386mm" /><text text-anchor="middle" transform="rotate(290.0,22.181947336608353,87.22336151462869)" x="0mm" y="0mm">290</text><line stroke="black" x1="29.89837011374138mm" x2="28.171842901314292mm" y1="86.49814277664498mm" y2="85.69304991547723mm" /><text text-anchor="middle" transform="rotate(295.0,26.79062113137263,85.04897562654303)" x="0mm" y="0mm" /><line stroke="black" x1="31.433138585581666mm" x2="28.13356100791153mm" y1="83.54987997320094mm" y2="81.64486797052103mm" /><text text-anchor="middle" transform="rotate(300.0,25.493898945775427,80.1208583683771)" x="0mm" y="0mm">300</text><line stroke="black" x1="33.2190248344768mm" x2="31.65853035808648mm" y1="80.7466000859378mm" y2="79.6539300902347mm" /><text text-anchor="middle" transform="rotate(305.0,30.410134776974232,78.77979409367221)" x="0mm" y="0mm" /><line stroke="black" x1="35.24243718772506mm" x2="32.32378947026927mm" y1="78.10963776746432mm" y2="75.66060154421075mm" /><text text-anchor="middle" transform="rotate(310.0,29.988871296304637,73.7013725656079)" x="0mm" y="0mm">310</text><line stroke="black" x1="37.487976255548475mm" x2="36.14092935021175mm" y1="75.65906189326547mm" y2="74.31201498792873mm" /><text text-anchor="middle" transform="rotate(315.0,35.063291825942365,73.23437746365936)" x="0mm" y="0mm" /><line stroke="black" x1="39.93855212974733mm" x2="37.48951590649376mm" y1="73.41352282544206mm" y2="70.49487510798627mm" /><text text-anchor="middle" transform="rotate(320.0,35.53028692789091,68.15995693402164)" x="0mm" y="0mm">320</text><line stroke="black" x1="42.5755144482208mm" x2="41.482844452517696mm" y1="71.39011047219378mm" y2="69.82961599580347mm" /><text text-anchor="middle" transform="rotate(325.0,40.60870845595521,68.58122041469122)" x="0mm" y="0mm" /><line stroke="black" x1="45.37879433548394mm" x2="43.473782332804035mm" y1="69.60422422329867mm" y2="66.30464664562854mm" /><text text-anchor="middle" transform="rotate(330.0,41.94977273066011,63.664984583492426)" x="0mm" y="0mm">330</text><line stroke="black" x1="48.327057138927984mm" x2="47.52196427776023mm" y1="68.06945575145838mm" y2="66.34292853903129mm" /><text text-anchor="middle" transform="rotate(335.0,46.87788998882603,64.96170676908963)" x="0mm" y="0mm" /><line stroke="black" x1="51.397864798409mm" x2="50.0947598420216mm" y1="66.79748557146215mm" y2="63.21723412860836mm" /><text text-anchor="middle" transform="rotate(340.0,49.052275876911686,60.35303297432534)" x="0mm" y="0mm">340</text><line stroke="black" x1="54.567846613433936mm" x2="54.074793225991485mm" y1="65.79799414441638mm" y2="63.9578938516372mm" /><text text-anchor="middle" transform="rotate(345.0,53.68035051603752,62.48581361741386)" x="0mm" y="0mm" /><line stroke="black" x1="57.81287710830308mm" x2="57.15127338290508mm" y1="65.07858820359033mm" y2="61.32644702394935mm" /><text text-anchor="middle" transform="rotate(350.0,56.62199040258669,58.32473408023658)" x="0mm" y="0mm">350</text><line stroke="black" x1="61.10825964154758mm" x2="60.942226905510815mm" y1="64.6447428625828mm" y2="62.74698000571193mm" /><text text-anchor="middle" transform="rotate(355.0,60.809400716681395,61.22876972021525)" x="0mm" y="0mm" /></svg>