<?xml version="1.0" encoding="utf-8" ?>
<svg baseProfile="full" height="100%" version="1.1" width="100%" xmlns="http://www.w3.org/2000/svg" xmlns:ev="http://www.w3.org/2001/xml-events" xmlns:xlink="http://www.w3.org/1999/xlink"><defs /><rect fill="white" height="656.2204564" stroke="black" width="385.716706525" x="10.0" y="10.0" /><line stroke="black" x1="10.0" x2="10.0" y1="10.0" y2="35.7144471016" /><line stroke="black" x1="22.8572235508" x2="22.8572235508" y1="10.0" y2="22.8572235508" /><line stroke="black" x1="35.7144471016" x2="35.7144471016" y1="10.0" y2="22.8572235508" /><line stroke="black" x1="48.5716706525" x2="48.5716706525" y1="10.0" y2="22.8572235508" /><line stroke="black" x1="61.4288942033" x2="61.4288942033" y1="10.0" y2="22.8572235508" /><line stroke="black" x1="74.2861177541" x2="74.2861177541" y1="10.0" y2="29.2858353262" /><line stroke="black" x1="87.1433413049" x2="87.1433413049" y1="10.0" y2="22.8572235508" /><line stroke="black" x1="100.000564856" x2="100.000564856" y1="10.0" y2="22.8572235508" /><line stroke="black" x1="112.857788407" x2="112.857788407" y1="10.0" y2="22.8572235508" /><line stroke="black" x1="125.715011957" x2="125.715011957" y1="10.0" y2="22.8572235508" /><line stroke="black" x1="138.572235508" x2="138.572235508" y1="10.0" y2="35.7144471016" /><line stroke="black" x1="138.572235508" x2="138.572235508" y1="666.2204564" y2="640.506009298" /><line stroke="black" x1="125.715011957" x2="125.715011957" y1="666.2204564" y2="653.363232849" /><line stroke="black" x1="112.857788407" x2="112.857788407" y1="666.2204564" y2="653.363232849" /><line stroke="black" x1="100.000564856" x2="100.000564856" y1="666.2204564" y2="653.363232849" /><line stroke="black" x1="87.1433413049" x2="87.1433413049" y1="666.2204564" y2="653.363232849" /><line stroke="black" x1="74.2861177541" x2="74.2861177541" y1="666.2204564" y2="646.934621074" /><line stroke="black" x1="61.4288942033" x2="61.4288942033" y1="666.2204564" y2="653.363232849" /><line stroke="black" x1="48.5716706525" x2="48.5716706525" y1="666.2204564" y2="653.363232849" /><line stroke="black" x1="35.7144471016" x2="35.7144471016" y1="666.2204564" y2="653.363232849" /><line stroke="black" x1="22.8572235508" x2="22.8572235508" y1="666.2204564" y2="653.363232849" /><line stroke="black" x1="10.0" x2="10.0" y1="666.2204564" y2="640.506009298" /><line stroke="black" x1="138.572235508" x2="138.572235508" y1="10.0" y2="35.7144471016" /><line stroke="black" x1="151.429459059" x2="151.429459059" y1="10.0" y2="22.8572235508" /><line stroke="black" x1="164.28668261" x2="164.28668261" y1="10.0" y2="22.8572235508" /><line stroke="black" x1="177.143906161" x2="177.143906161" y1="10.0" y2="22.8572235508" /><line stroke="black" x1="190.001129711" x2="190.001129711" y1="10.0" y2="22.8572235508" /><line stroke="black" x1="202.858353262" x2="202.858353262" y1="10.0" y2="29.2858353262" /><line stroke="black" x1="215.715576813" x2="215.715576813" y1="10.0" y2="22.8572235508" /><line stroke="black" x1="228.572800364" x2="228.572800364" y1="10.0" y2="22.8572235508" /><line stroke="black" x1="241.430023915" x2="241.430023915" y1="10.0" y2="22.8572235508" /><line stroke="black" x1="254.287247466" x2="254.287247466" y1="10.0" y2="22.8572235508" /><line stroke="black" x1="267.144471016" x2="267.144471016" y1="10.0" y2="35.7144471016" /><line stroke="black" x1="267.144471016" x2="267.144471016" y1="666.2204564" y2="640.506009298" /><line stroke="black" x1="254.287247466" x2="254.287247466" y1="666.2204564" y2="653.363232849" /><line stroke="black" x1="241.430023915" x2="241.430023915" y1="666.2204564" y2="653.363232849" /><line stroke="black" x1="228.572800364" x2="228.572800364" y1="666.2204564" y2="653.363232849" /><line stroke="black" x1="215.715576813" x2="215.715576813" y1="666.2204564" y2="653.363232849" /><line stroke="black" x1="202.858353262" x2="202.858353262" y1="666.2204564" y2="646.934621074" /><line stroke="black" x1="190.001129711" x2="190.001129711" y1="666.2204564" y2="653.363232849" /><line stroke="black" x1="177.143906161" x2="177.143906161" y1="666.2204564" y2="653.363232849" /><line stroke="black" x1="164.28668261" x2="164.28668261" y1="666.2204564" y2="653.363232849" /><line stroke="black" x1="151.429459059" x2="151.429459059" y1="666.2204564" y2="653.363232849" /><line stroke="black" x1="138.572235508" x2="138.572235508" y1="666.2204564" y2="640.506009298" /><line stroke="black" x1="267.144471016" x2="267.144471016" y1="10.0" y2="35.7144471016" /><line stroke="black" x1="280.001694567" x2="280.001694567" y1="10.0" y2="22.8572235508" /><line stroke="black" x1="292.858918118" x2="292.858918118" y1="10.0" y2="22.8572235508" /><line stroke="black" x1="305.716141669" x2="305.716141669" y1="10.0" y2="22.8572235508" /><line stroke="black" x1="318.57336522" x2="318.57336522" y1="10.0" y2="22.8572235508" /><line stroke="black" x1="331.43058877" x2="331.43058877" y1="10.0" y2="29.2858353262" /><line stroke="black" x1="344.287812321" x2="344.287812321" y1="10.0" y2="22.8572235508" /><line stroke="black" x1="357.145035872" x2="357.145035872" y1="10.0" y2="22.8572235508" /><line stroke="black" x1="370.002259423" x2="370.002259423" y1="10.0" y2="22.8572235508" /><line stroke="black" x1="382.859482974" x2="382.859482974" y1="10.0" y2="22.8572235508" /><line stroke="black" x1="395.716706525" x2="395.716706525" y1="10.0" y2="35.7144471016" /><line stroke="black" x1="395.716706525" x2="395.716706525" y1="666.2204564" y2="640.506009298" /><line stroke="black" x1="382.859482974" x2="382.859482974" y1="666.2204564" y2="653.363232849" /><line stroke="black" x1="370.002259423" x2="370.002259423" y1="666.2204564" y2="653.363232849" /><line stroke="black" x1="357.145035872" x2="357.145035872" y1="666.2204564" y2="653.363232849" /><line stroke="black" x1="344.287812321" x2="344.287812321" y1="666.2204564" y2="653.363232849" /><line stroke="black" x1="331.43058877" x2="331.43058877" y1="666.2204564" y2="646.934621074" /><line stroke="black" x1="318.57336522" x2="318.57336522" y1="666.2204564" y2="653.363232849" /><line stroke="black" x1="305.716141669" x2="305.716141669" y1="666.2204564" y2="653.363232849" /><line stroke="black" x1="292.858918118" x2="292.858918118" y1="666.2204564" y2="653.363232849" /><line stroke="black" x1="280.001694567" x2="280.001694567" y1="666.2204564" y2="653.363232849" /><line stroke="black" x1="267.144471016" x2="267.144471016" y1="666.2204564" y2="640.506009298" /><line stroke="black" x1="395.716706525" x2="351.968676098" y1="10.0" y2="10.0" /><line stroke="black" x1="395.716706525" x2="373.842691311" y1="31.8740152133" y2="31.8740152133" /><line stroke="black" x1="395.716706525" x2="373.842691311" y1="53.7480304267" y2="53.7480304267" /><line stroke="black" x1="395.716706525" x2="373.842691311" y1="75.62204564" y2="75.62204564" /><line stroke="black" x1="395.716706525" x2="373.842691311" y1="97.4960608533" y2="97.4960608533" /><line stroke="black" x1="395.716706525" x2="362.905683705" y1="119.370076067" y2="119.370076067" /><line stroke="black" x1="395.716706525" x2="373.842691311" y1="141.24409128" y2="141.24409128" /><line stroke="black" x1="395.716706525" x2="373.842691311" y1="163.118106493" y2="163.118106493" /><line stroke="black" x1="395.716706525" x2="373.842691311" y1="184.992121707" y2="184.992121707" /><line stroke="black" x1="395.716706525" x2="373.842691311" y1="206.86613692" y2="206.86613692" /><line stroke="black" x1="395.716706525" x2="351.968676098" y1="228.740152133" y2="228.740152133" /><line stroke="black" x1="10.0" x2="53.7480304267" y1="228.740152133" y2="228.740152133" /><line stroke="black" x1="10.0" x2="31.8740152133" y1="206.86613692" y2="206.86613692" /><line stroke="black" x1="10.0" x2="31.8740152133" y1="184.992121707" y2="184.992121707" /><line stroke="black" x1="10.0" x2="31.8740152133" y1="163.118106493" y2="163.118106493" /><line stroke="black" x1="10.0" x2="31.8740152133" y1="141.24409128" y2="141.24409128" /><line stroke="black" x1="10.0" x2="42.81102282" y1="119.370076067" y2="119.370076067" /><line stroke="black" x1="10.0" x2="31.8740152133" y1="97.4960608533" y2="97.4960608533" /><line stroke="black" x1="10.0" x2="31.8740152133" y1="75.62204564" y2="75.62204564" /><line stroke="black" x1="10.0" x2="31.8740152133" y1="53.7480304267" y2="53.7480304267" /><line stroke="black" x1="10.0" x2="31.8740152133" y1="31.8740152133" y2="31.8740152133" /><line stroke="black" x1="10.0" x2="53.7480304267" y1="10.0" y2="10.0" /><line stroke="black" x1="395.716706525" x2="351.968676098" y1="228.740152133" y2="228.740152133" /><line stroke="black" x1="395.716706525" x2="373.842691311" y1="250.614167347" y2="250.614167347" /><line stroke="black" x1="395.716706525" x2="373.842691311" y1="272.48818256" y2="272.48818256" /><line stroke="black" x1="395.716706525" x2="373.842691311" y1="294.362197773" y2="294.362197773" /><line stroke="black" x1="395.716706525" x2="373.842691311" y1="316.236212987" y2="316.236212987" /><line stroke="black" x1="395.716706525" x2="362.905683705" y1="338.1102282" y2="338.1102282" /><line stroke="black" x1="395.716706525" x2="373.842691311" y1="359.984243413" y2="359.984243413" /><line stroke="black" x1="395.716706525" x2="373.842691311" y1="381.858258627" y2="381.858258627" /><line stroke="black" x1="395.716706525" x2="373.842691311" y1="403.73227384" y2="403.73227384" /><line stroke="black" x1="395.716706525" x2="373.842691311" y1="425.606289053" y2="425.606289053" /><line stroke="black" x1="395.716706525" x2="351.968676098" y1="447.480304267" y2="447.480304267" /><line stroke="black" x1="10.0" x2="53.7480304267" y1="447.480304267" y2="447.480304267" /><line stroke="black" x1="10.0" x2="31.8740152133" y1="425.606289053" y2="425.606289053" /><line stroke="black" x1="10.0" x2="31.8740152133" y1="403.73227384" y2="403.73227384" /><line stroke="black" x1="10.0" x2="31.8740152133" y1="381.858258627" y2="381.858258627" /><line stroke="black" x1="10.0" x2="31.8740152133" y1="359.984243413" y2="359.984243413" /><line stroke="black" x1="10.0" x2="42.81102282" y1="338.1102282" y2="338.1102282" /><line stroke="black" x1="10.0" x2="31.8740152133" y1="316.236212987" y2="316.236212987" /><line stroke="black" x1="10.0" x2="31.8740152133" y1="294.362197773" y2="294.362197773" /><line stroke="black" x1="10.0" x2="31.8740152133" y1="272.48818256" y2="272.48818256" /><line stroke="black" x1="10.0" x2="31.8740152133" y1="250.614167347" y2="250.614167347" /><line stroke="black" x1="10.0" x2="53.7480304267" y1="228.740152133" y2="228.740152133" /><line stroke="black" x1="395.716706525" x2="351.968676098" y1="447.480304267" y2="447.480304267" /><line stroke="black" x1="395.716706525" x2="373.842691311" y1="469.35431948" y2="469.35431948" /><line stroke="black" x1="395.716706525" x2="373.842691311" y1="491.228334693" y2="491.228334693" /><line stroke="black" x1="395.716706525" x2="373.842691311" y1="513.102349907" y2="513.102349907" /><line stroke="black" x1="395.716706525" x2="373.842691311" y1="534.97636512" y2="534.97636512" /><line stroke="black" x1="395.716706525" x2="362.905683705" y1="556.850380333" y2="556.850380333" /><line stroke="black" x1="395.716706525" x2="373.842691311" y1="578.724395547" y2="578.724395547" /><line stroke="black" x1="395.716706525" x2="373.842691311" y1="600.59841076" y2="600.59841076" /><line stroke="black" x1="395.716706525" x2="373.842691311" y1="622.472425973" y2="622.472425973" /><line stroke="black" x1="395.716706525" x2="373.842691311" y1="644.346441187" y2="644.346441187" /><line stroke="black" x1="395.716706525" x2="351.968676098" y1="666.2204564" y2="666.2204564" /><line stroke="black" x1="10.0" x2="53.7480304267" y1="666.2204564" y2="666.2204564" /><line stroke="black" x1="10.0" x2="31.8740152133" y1="644.346441187" y2="644.346441187" /><line stroke="black" x1="10.0" x2="31.8740152133" y1="622.472425973" y2="622.472425973" /><line stroke="black" x1="10.0" x2="31.8740152133" y1="600.59841076" y2="600.59841076" /><line stroke="black" x1="10.0" x2="31.8740152133" y1="578.724395547" y2="578.724395547" /><line stroke="black" x1="10.0" x2="42.81102282" y1="556.850380333" y2="556.850380333" /><line stroke="black" x1="10.0" x2="31.8740152133" y1="534.97636512" y2="534.97636512" /><line stroke="black" x1="10.0" x2="31.8740152133" y1="513.102349907" y2="513.102349907" /><line stroke="black" x1="10.0" x2="31.8740152133" y1="491.228334693" y2="491.228334693" /><line stroke="black" x1="10.0" x2="31.8740152133" y1="469.35431948" y2="469.35431948" /><line stroke="black" x1="10.0" x2="53.7480304267" y1="447.480304267" y2="447.480304267" /><line stroke="black" x1="10.0" x2="395.716706525" y1="228.740152133" y2="228.740152133" /><line stroke="black" x1="10.0" x2="395.716706525" y1="447.480304267" y2="447.480304267" /><line stroke="black" x1="138.572235508" x2="138.572235508" y1="10.0" y2="666.2204564" /><line stroke="black" x1="267.144471016" x2="267.144471016" y1="10.0" y2="666.2204564" /><circle cx="202.858353262" cy="338.1102282" fill="none" r="135.00084728359454" stroke="black" /><line stroke="black" x1="202.858353262" x2="202.858353262" y1="203.109380916" y2="189.609296188" /><text font-size="0.08" text-anchor="middle" transform="matrix(135.00 0.00 0.00 135.00 202.86 338.11)" x="0.0" y="-1.12">000</text><line stroke="black" x1="226.301004377" x2="228.645269488" y1="205.160347132" y2="191.865359025" /><text font-size="0.08" text-anchor="middle" transform="matrix(132.95 23.44 -23.44 132.95 202.86 338.11)" x="0.0" y="-1.12">010</text><line stroke="black" x1="249.031362399" x2="253.648663313" y1="211.250928208" y2="198.564998209" /><text font-size="0.08" text-anchor="middle" transform="matrix(126.86 46.17 -46.17 126.86 202.86 338.11)" x="0.0" y="-1.12">020</text><line stroke="black" x1="270.358776904" x2="277.108819268" y1="221.19606492" y2="209.504648592" /><text font-size="0.08" text-anchor="middle" transform="matrix(116.91 67.50 -67.50 116.91 202.86 338.11)" x="0.0" y="-1.12">030</text><line stroke="black" x1="289.635225193" x2="298.312912386" y1="234.693579322" y2="224.351914434" /><text font-size="0.08" text-anchor="middle" transform="matrix(103.42 86.78 -86.78 103.42 202.86 338.11)" x="0.0" y="-1.12">040</text><line stroke="black" x1="306.27500214" x2="316.616667028" y1="251.333356269" y2="242.655669076" /><text font-size="0.08" text-anchor="middle" transform="matrix(86.78 103.42 -103.42 86.78 202.86 338.11)" x="0.0" y="-1.12">050</text><line stroke="black" x1="319.772516542" x2="331.46393287" y1="270.609804558" y2="263.859762194" /><text font-size="0.08" text-anchor="middle" transform="matrix(67.50 116.91 -116.91 67.50 202.86 338.11)" x="0.0" y="-1.12">060</text><line stroke="black" x1="329.717653255" x2="342.403583254" y1="291.937219063" y2="287.319918149" /><text font-size="0.08" text-anchor="middle" transform="matrix(46.17 126.86 -126.86 46.17 202.86 338.11)" x="0.0" y="-1.12">070</text><line stroke="black" x1="335.80823433" x2="349.103222437" y1="314.667577086" y2="312.323311974" /><text font-size="0.08" text-anchor="middle" transform="matrix(23.44 132.95 -132.95 23.44 202.86 338.11)" x="0.0" y="-1.12">080</text><line stroke="black" x1="337.859200546" x2="351.359285274" y1="338.1102282" y2="338.1102282" /><text font-size="0.08" text-anchor="middle" transform="matrix(0.00 135.00 -135.00 0.00 202.86 338.11)" x="0.0" y="-1.12">090</text><line stroke="black" x1="335.80823433" x2="349.103222437" y1="361.552879314" y2="363.897144426" /><text font-size="0.08" text-anchor="middle" transform="matrix(-23.44 132.95 -132.95 -23.44 202.86 338.11)" x="0.0" y="-1.12">100</text><line stroke="black" x1="329.717653255" x2="342.403583254" y1="384.283237337" y2="388.900538251" /><text font-size="0.08" text-anchor="middle" transform="matrix(-46.17 126.86 -126.86 -46.17 202.86 338.11)" x="0.0" y="-1.12">110</text><line stroke="black" x1="319.772516542" x2="331.46393287" y1="405.610651842" y2="412.360694206" /><text font-size="0.08" text-anchor="middle" transform="matrix(-67.50 116.91 -116.91 -67.50 202.86 338.11)" x="0.0" y="-1.12">120</text><line stroke="black" x1="306.27500214" x2="316.616667028" y1="424.887100131" y2="433.564787324" /><text font-size="0.08" text-anchor="middle" transform="matrix(-86.78 103.42 -103.42 -86.78 202.86 338.11)" x="0.0" y="-1.12">130</text><line stroke="black" x1="289.635225193" x2="298.312912386" y1="441.526877078" y2="451.868541966" /><text font-size="0.08" text-anchor="middle" transform="matrix(-103.42 86.78 -86.78 -103.42 202.86 338.11)" x="0.0" y="-1.12">140</text><line stroke="black" x1="270.358776904" x2="277.108819268" y1="455.02439148" y2="466.715807808" /><text font-size="0.08" text-anchor="middle" transform="matrix(-116.91 67.50 -67.50 -116.91 202.86 338.11)" x="0.0" y="-1.12">150</text><line stroke="black" x1="249.031362399" x2="253.648663313" y1="464.969528192" y2="477.655458191" /><text font-size="0.08" text-anchor="middle" transform="matrix(-126.86 46.17 -46.17 -126.86 202.86 338.11)" x="0.0" y="-1.12">160</text><line stroke="black" x1="226.301004377" x2="228.645269488" y1="471.060109268" y2="484.355097375" /><text font-size="0.08" text-anchor="middle" transform="matrix(-132.95 23.44 -23.44 -132.95 202.86 338.11)" x="0.0" y="-1.12">170</text><line stroke="black" x1="202.858353262" x2="202.858353262" y1="473.111075484" y2="486.611160212" /><text font-size="0.08" text-anchor="middle" transform="matrix(-135.00 0.00 -0.00 -135.00 202.86 338.11)" x="0.0" y="-1.12">180</text><line stroke="black" x1="179.415702148" x2="177.071437037" y1="471.060109268" y2="484.355097375" /><text font-size="0.08" text-anchor="middle" transform="matrix(-132.95 -23.44 23.44 -132.95 202.86 338.11)" x="0.0" y="-1.12">190</text><line stroke="black" x1="156.685344125" x2="152.068043212" y1="464.969528192" y2="477.655458191" /><text font-size="0.08" text-anchor="middle" transform="matrix(-126.86 -46.17 46.17 -126.86 202.86 338.11)" x="0.0" y="-1.12">200</text><line stroke="black" x1="135.35792962" x2="128.607887256" y1="455.02439148" y2="466.715807808" /><text font-size="0.08" text-anchor="middle" transform="matrix(-116.91 -67.50 67.50 -116.91 202.86 338.11)" x="0.0" y="-1.12">210</text><line stroke="black" x1="116.081481331" x2="107.403794138" y1="441.526877078" y2="451.868541966" /><text font-size="0.08" text-anchor="middle" transform="matrix(-103.42 -86.78 86.78 -103.42 202.86 338.11)" x="0.0" y="-1.12">220</text><line stroke="black" x1="99.4417043843" x2="89.1000394965" y1="424.887100131" y2="433.564787324" /><text font-size="0.08" text-anchor="middle" transform="matrix(-86.78 -103.42 103.42 -86.78 202.86 338.11)" x="0.0" y="-1.12">230</text><line stroke="black" x1="85.9441899823" x2="74.2527736543" y1="405.610651842" y2="412.360694206" /><text font-size="0.08" text-anchor="middle" transform="matrix(-67.50 -116.91 116.91 -67.50 202.86 338.11)" x="0.0" y="-1.12">240</text><line stroke="black" x1="75.99905327" x2="63.3131232708" y1="384.283237337" y2="388.900538251" /><text font-size="0.08" text-anchor="middle" transform="matrix(-46.17 -126.86 126.86 -46.17 202.86 338.11)" x="0.0" y="-1.12">250</text><line stroke="black" x1="69.9084721942" x2="56.6134840874" y1="361.552879314" y2="363.897144426" /><text font-size="0.08" text-anchor="middle" transform="matrix(-23.44 -132.95 132.95 -23.44 202.86 338.11)" x="0.0" y="-1.12">260</text><line stroke="black" x1="67.8575059787" x2="54.3574212503" y1="338.1102282" y2="338.1102282" /><text font-size="0.08" text-anchor="middle" transform="matrix(-0.00 -135.00 135.00 -0.00 202.86 338.11)" x="0.0" y="-1.12">270</text><line stroke="black" x1="69.9084721942" x2="56.6134840874" y1="314.667577086" y2="312.323311974" /><text font-size="0.08" text-anchor="middle" transform="matrix(23.44 -132.95 132.95 23.44 202.86 338.11)" x="0.0" y="-1.12">280</text><line stroke="black" x1="75.99905327" x2="63.3131232708" y1="291.937219063" y2="287.319918149" /><text font-size="0.08" text-anchor="middle" transform="matrix(46.17 -126.86 126.86 46.17 202.86 338.11)" x="0.0" y="-1.12">290</text><line stroke="black" x1="85.9441899823" x2="74.2527736543" y1="270.609804558" y2="263.859762194" /><text font-size="0.08" text-anchor="middle" transform="matrix(67.50 -116.91 116.91 67.50 202.86 338.11)" x="0.0" y="-1.12">300</text><line stroke="black" x1="99.4417043843" x2="89.1000394965" y1="251.333356269" y2="242.655669076" /><text font-size="0.08" text-anchor="middle" transform="matrix(86.78 -103.42 103.42 86.78 202.86 338.11)" x="0.0" y="-1.12">310</text><line stroke="black" x1="116.081481331" x2="107.403794138" y1="234.693579322" y2="224.351914434" /><text font-size="0.08" text-anchor="middle" transform="matrix(103.42 -86.78 86.78 103.42 202.86 338.11)" x="0.0" y="-1.12">320</text><line stroke="black" x1="135.35792962" x2="128.607887256" y1="221.19606492" y2="209.504648592" /><text font-size="0.08" text-anchor="middle" transform="matrix(116.91 -67.50 67.50 116.91 202.86 338.11)" x="0.0" y="-1.12">330</text><line stroke="black" x1="156.685344125" x2="152.068043212" y1="211.250928208" y2="198.564998209" /><text font-size="0.08" text-anchor="middle" transform="matrix(126.86 -46.17 46.17 126.86 202.86 338.11)" x="0.0" y="-1.12">340</text><line stroke="black" x1="179.415702148" x2="177.071437037" y1="205.160347132" y2="191.865359025" /><text font-size="0.08" text-anchor="middle" transform="matrix(132.95 -23.44 23.44 132.95 202.86 338.11)" x="0.0" y="-1.12">350</text><line stroke="black" x1="202.858353262" x2="202.858353262" y1="216.609465645" y2="459.610990755" /><line stroke="black" x1="81.357590707" x2="324.359115818" y1="338.1102282" y2="338.1102282" /><text font-size="0.09" font-weight="bold" text-anchor="middle" transform="matrix(121.50 0.00 0.00 121.50 202.86 338.11)" x="0.0" y="-1.4">N</text><circle cx="202.858353262" cy="338.1102282" fill="none" r="7.086614" stroke="black" /><circle cx="10.0" cy="10.0" fill="none" r="7.086614" stroke="black" /><circle cx="10.0" cy="666.2204564" fill="none" r="7.086614" stroke="black" /><circle cx="395.716706525" cy="10.0" fill="none" r="7.086614" stroke="black" /><circle cx="395.716706525" cy="666.2204564" fill="none" r="7.086614" stroke="black" /><line stroke="black" x1="177.85835326227792mm" x2="227.85835326227792mm" y1="676.2204564mm" y2="676.2204564mm" /><line stroke="black" x1="177.85835326227792mm" x2="177.85835326227792mm" y1="674.2204564mm" y2="678.2204564mm" /><line stroke="black" x1="227.85835326227792mm" x2="227.85835326227792mm" y1="674.2204564mm" y2="678.2204564mm" /><text font-size="9" text-anchor="middle" x="202.858353262" y="675.2204564">5cm</text></svg>